STARTFONT 2.3
FONT -FontForge-Bungee Shade-Book-R-Normal--16-160-72-72-P-137-ISO10646-1
SIZE 16 72 72  2
FONTBOUNDINGBOX 41 41 -10 -15
COMMENT "Generated by fontforge, http://fontforge.sourceforge.net"
COMMENT "Copyright 2008 The Bungee Project Authors (david@djr.com)"
STARTPROPERTIES 40
FOUNDRY "FontForge"
FAMILY_NAME "Bungee Shade"
WEIGHT_NAME "Book"
SLANT "R"
SETWIDTH_NAME "Normal"
ADD_STYLE_NAME ""
PIXEL_SIZE 16
POINT_SIZE 160
RESOLUTION_X 72
RESOLUTION_Y 72
SPACING "P"
AVERAGE_WIDTH 137
CHARSET_REGISTRY "ISO10646"
CHARSET_ENCODING "1"
FONTNAME_REGISTRY ""
CHARSET_COLLECTIONS "ISO8859-2 ISO8859-9 ISO8859-4 ISO10646-1"
BITS_PER_PIXEL 2
FONT_NAME "BungeeShade-Regular"
FACE_NAME "Bungee Shade"
COPYRIGHT "Copyright 2008 The Bungee Project Authors (david@djr.com)"
FONT_VERSION "1.000;PS 1.0;hotconv 1.0.72;makeotf.lib2.5.5900"
FONT_ASCENT 14
FONT_DESCENT 2
UNDERLINE_POSITION 0
UNDERLINE_THICKNESS 0
X_HEIGHT 11
CAP_HEIGHT 11
RAW_ASCENT 860
RAW_DESCENT 140
NORM_SPACE 5
RELATIVE_WEIGHT 40
RELATIVE_SETWIDTH 50
SUPERSCRIPT_X 0
SUPERSCRIPT_Y 5
SUPERSCRIPT_SIZE 9
SUBSCRIPT_X 0
SUBSCRIPT_Y 1
SUBSCRIPT_SIZE 9
AVG_LOWERCASE_WIDTH 131
AVG_UPPERCASE_WIDTH 133
ENDPROPERTIES
CHARS 1065
STARTCHAR space
ENCODING 32
SWIDTH 325 0
DWIDTH 5 0
BBX 1 1 0 0
BITMAP
00
ENDCHAR
STARTCHAR exclam
ENCODING 33
SWIDTH 524 0
DWIDTH 8 0
BBX 6 14 1 -2
BITMAP
1550
7400
F400
F400
F400
F400
F400
F950
FA90
B400
B400
F400
FFE0
FF80
ENDCHAR
STARTCHAR quotedbl
ENCODING 34
SWIDTH 746 0
DWIDTH 12 0
BBX 12 8 0 4
BITMAP
055555
380A00
B80A00
B80A00
B80A00
B80A00
BFFFF8
7F9FE0
ENDCHAR
STARTCHAR numbersign
ENCODING 35
SWIDTH 850 0
DWIDTH 14 0
BBX 14 14 0 -2
BITMAP
00551500
02819000
06419040
1C000000
7C155410
7F038180
7A024100
14000000
74555400
B8000000
BD0B0200
BD0B0000
2FEFE400
2F4FC000
ENDCHAR
STARTCHAR dollar
ENCODING 36
SWIDTH 750 0
DWIDTH 12 0
BBX 12 17 0 -3
BITMAP
001540
009000
014014
040000
280100
780554
7806A0
B84000
BD0001
7F9411
3FFF01
180010
380100
B94014
BFD010
7FFF40
02FD00
ENDCHAR
STARTCHAR percent
ENCODING 37
SWIDTH 1131 0
DWIDTH 18 0
BBX 18 14 0 -2
BITMAP
0015154000
1840604000
7920A04000
B970904000
B930804000
B900810040
BD45814510
7FFF420540
2FEB430900
000F070900
000E070040
001E0B8550
002FEFFF40
002F47F900
ENDCHAR
STARTCHAR ampersand
ENCODING 38
SWIDTH 866 0
DWIDTH 14 0
BBX 14 14 0 -2
BITMAP
00455400
01000000
0A000000
1E100000
2E03D000
2E014000
28145000
14409100
740FD010
B4054040
B8000040
BE000100
7FFFF800
1FFFE000
ENDCHAR
STARTCHAR quotesingle
ENCODING 39
SWIDTH 456 0
DWIDTH 7 0
BBX 7 8 0 4
BITMAP
0554
2800
7800
7800
7C00
7C00
7FE0
7F80
ENDCHAR
STARTCHAR parenleft
ENCODING 40
SWIDTH 529 0
DWIDTH 8 0
BBX 8 17 0 -3
BITMAP
0001
0100
0810
3805
7808
B804
B804
B804
B804
B804
B804
B801
B840
BC10
7F40
3FFD
1BF4
ENDCHAR
STARTCHAR parenright
ENCODING 41
SWIDTH 529 0
DWIDTH 8 0
BBX 8 17 0 -3
BITMAP
0400
1801
7811
B800
BF40
7F40
0F40
0F40
0F40
0F40
0F40
0F40
0800
7841
B804
BFE0
7E40
ENDCHAR
STARTCHAR asterisk
ENCODING 42
SWIDTH 818 0
DWIDTH 13 0
BBX 13 11 0 1
BITMAP
00155000
00B41000
01651100
1C010040
3C011040
7F914A00
7F840400
02020100
0B878400
1FEFD000
07874000
ENDCHAR
STARTCHAR plus
ENCODING 43
SWIDTH 834 0
DWIDTH 13 0
BBX 12 12 0 -1
BITMAP
000400
002000
00F100
01A110
080100
3C0100
7C0100
7FF12E
3FF028
00F410
00FF80
00FE00
ENDCHAR
STARTCHAR comma
ENCODING 44
SWIDTH 484 0
DWIDTH 8 0
BBX 7 8 0 -4
BITMAP
1800
7810
B800
BE90
7C00
3D54
7FC0
2900
ENDCHAR
STARTCHAR hyphen
ENCODING 45
SWIDTH 520 0
DWIDTH 8 0
BBX 8 6 0 2
BITMAP
0401
2400
B400
B800
BFFD
BFF4
ENDCHAR
STARTCHAR period
ENCODING 46
SWIDTH 484 0
DWIDTH 8 0
BBX 7 6 0 -2
BITMAP
1800
7800
B800
B800
BFF4
7FD0
ENDCHAR
STARTCHAR slash
ENCODING 47
SWIDTH 487 0
DWIDTH 8 0
BBX 8 17 0 -3
BITMAP
0054
0201
0F01
0F01
1E01
1E00
2D00
2D00
3C00
3C00
3C00
7800
7800
B400
B410
FFD0
BE00
ENDCHAR
STARTCHAR zero
ENCODING 48
SWIDTH 827 0
DWIDTH 13 0
BBX 13 14 0 -2
BITMAP
00550400
05000000
1C000400
38068000
780BC000
780BC000
7807C000
7807C000
78078000
7C000400
7D000040
7F400500
2FFFF400
06FF8000
ENDCHAR
STARTCHAR one
ENCODING 49
SWIDTH 701 0
DWIDTH 11 0
BBX 11 14 0 -2
BITMAP
055540
2C0000
7C0400
7F8000
7FC000
07C000
07C000
07C000
068004
180000
780400
B80000
BFFFE4
7FFFC0
ENDCHAR
STARTCHAR two
ENCODING 50
SWIDTH 739 0
DWIDTH 12 0
BBX 11 14 0 -2
BITMAP
055550
1C0000
3C0000
3D0000
3FFD00
3F9000
000014
184690
780A40
B40000
B44000
B80000
BFFFF4
BFFFD0
ENDCHAR
STARTCHAR three
ENCODING 51
SWIDTH 737 0
DWIDTH 12 0
BBX 12 14 0 -2
BITMAP
055550
280000
780004
B80044
BFF804
7F5010
0B0140
1F0010
1FFE10
095510
280001
B80004
BFFFE0
7FFE40
ENDCHAR
STARTCHAR four
ENCODING 52
SWIDTH 809 0
DWIDTH 13 0
BBX 12 14 0 -2
BITMAP
055455
2C0640
7C0744
7C0B44
7C0B44
7C0744
7C0004
7C1554
7E0004
3FFF44
1BFF40
000B80
000BFD
000BF4
ENDCHAR
STARTCHAR five
ENCODING 53
SWIDTH 747 0
DWIDTH 12 0
BBX 12 14 0 -2
BITMAP
055554
2C0000
7C0000
7C0000
7C07F4
7C0014
7C1541
7C0010
7FFF10
2D5510
280001
780004
BFFFE0
7FFE40
ENDCHAR
STARTCHAR six
ENCODING 54
SWIDTH 793 0
DWIDTH 13 0
BBX 13 14 0 -2
BITMAP
00555400
05000000
1C000000
3807F400
78051000
78014100
78400440
780B4440
780B8440
7C000000
7D000000
7F400400
2FFFE000
06FE4000
ENDCHAR
STARTCHAR seven
ENCODING 55
SWIDTH 727 0
DWIDTH 12 0
BBX 11 14 0 -2
BITMAP
055554
240000
B40000
B80000
BFFD00
BFF900
004040
020400
0E0050
1E0240
2E0000
2E0100
2FF800
1FE000
ENDCHAR
STARTCHAR eight
ENCODING 56
SWIDTH 811 0
DWIDTH 13 0
BBX 13 14 0 -2
BITMAP
00555400
01054100
1D000000
2D074000
3E074100
2E155100
28400440
384B8000
B84B8000
B8400400
BC001000
7E400500
3FFFF400
0AFF9000
ENDCHAR
STARTCHAR nine
ENCODING 57
SWIDTH 793 0
DWIDTH 13 0
BBX 12 14 0 -2
BITMAP
005554
041141
184000
784B40
B84B40
B84004
BC0000
BE4000
7FFF40
1B0000
0A0001
1F0004
1FFFE0
1FFF40
ENDCHAR
STARTCHAR colon
ENCODING 58
SWIDTH 484 0
DWIDTH 8 0
BBX 7 12 0 -2
BITMAP
1800
7800
B800
B800
BEA4
7EA4
2800
7800
B800
B800
BFF4
7FD0
ENDCHAR
STARTCHAR semicolon
ENCODING 59
SWIDTH 484 0
DWIDTH 8 0
BBX 7 14 0 -4
BITMAP
1800
7800
7800
B800
BEA4
7EA4
2800
7810
B800
BE90
7C00
3D54
7FC0
2900
ENDCHAR
STARTCHAR less
ENCODING 60
SWIDTH 814 0
DWIDTH 13 0
BBX 11 12 1 -1
BITMAP
000004
001400
010000
140004
7006A0
F01B40
F40050
F80000
FF9000
7FFE40
06FFF4
0016D0
ENDCHAR
STARTCHAR equal
ENCODING 61
SWIDTH 834 0
DWIDTH 13 0
BBX 13 10 0 0
BITMAP
01555500
1C000000
3C000000
7EAAAA40
7FFFFD00
19555100
2C000000
7C000040
7FFFFE40
7FFFF800
ENDCHAR
STARTCHAR greater
ENCODING 62
SWIDTH 814 0
DWIDTH 13 0
BBX 11 12 1 -1
BITMAP
195000
741540
F40014
F80044
FFE410
6FF910
064040
240000
B40190
F46E40
FF9000
A40000
ENDCHAR
STARTCHAR question
ENCODING 63
SWIDTH 756 0
DWIDTH 12 0
BBX 12 14 0 -2
BITMAP
055554
280001
B85541
B80011
BFFF11
7F5010
070400
1F0000
1F5AD0
0F0040
0F0000
1F0000
1FFD00
1FF400
ENDCHAR
STARTCHAR at
ENCODING 64
SWIDTH 967 0
DWIDTH 15 0
BBX 15 17 0 -3
BITMAP
00055500
00400010
052FFF44
1CBFFFD0
394000D0
795154D4
7994E0D4
7990E0D4
7990E0D4
79909090
79A10404
79B95560
7D7FFF80
7E46AA00
3FA54040
1FFFFE00
01BFF800
ENDCHAR
STARTCHAR A
ENCODING 65
SWIDTH 830 0
DWIDTH 13 0
BBX 13 14 0 -2
BITMAP
00555400
01400000
03044100
0A020100
0D074000
1C078040
28000000
78555400
78000000
B80BC000
B80BC000
B807C000
BFD7FE00
7F43F800
ENDCHAR
STARTCHAR B
ENCODING 66
SWIDTH 825 0
DWIDTH 13 0
BBX 13 14 0 -2
BITMAP
05555400
2C000100
7C000000
7C065000
7C074000
7C000100
7C405040
7C07C000
7C07C000
7C000000
7C001000
7C000100
7FFFFC00
7FFFE000
ENDCHAR
STARTCHAR C
ENCODING 67
SWIDTH 728 0
DWIDTH 12 0
BBX 11 14 0 -2
BITMAP
005554
050000
1C1400
384000
7807F4
780BD0
780000
780000
780000
7C0000
7D1400
7F4000
2FFFF4
0BFFD0
ENDCHAR
STARTCHAR D
ENCODING 68
SWIDTH 846 0
DWIDTH 14 0
BBX 13 14 0 -2
BITMAP
05555500
2C000040
7C000040
7C010400
7C07D000
7C07D000
7C03D000
7C03D000
7C028000
7C000440
7C000000
7C000100
7FFFF800
7FFF9000
ENDCHAR
STARTCHAR E
ENCODING 69
SWIDTH 754 0
DWIDTH 12 0
BBX 12 14 0 -2
BITMAP
055555
2C0001
7C0001
7C0000
7C07F8
7C0154
7C4004
7C06A0
7C0690
7C0001
7C0001
7C0000
7FFFF8
7FFFE0
ENDCHAR
STARTCHAR F
ENCODING 70
SWIDTH 718 0
DWIDTH 11 0
BBX 11 14 0 -2
BITMAP
055554
2C0000
7C0000
7C06A8
7C07E0
7C0000
7C4000
7C0000
7C07D0
7C0740
7C0000
7C0000
7FE000
7F8000
ENDCHAR
STARTCHAR G
ENCODING 71
SWIDTH 808 0
DWIDTH 13 0
BBX 13 14 0 -2
BITMAP
00555400
05000000
1C140000
38000000
7807F000
78059000
78018040
78078040
78078040
7C400040
7D000040
7F400000
2FFFFE00
0BFFF800
ENDCHAR
STARTCHAR H
ENCODING 72
SWIDTH 859 0
DWIDTH 14 0
BBX 13 14 0 -2
BITMAP
05541540
2C01D000
7C03D000
7C03D000
7C028000
7C000000
7C400400
7C000000
7C07D000
7C07D000
7C03D000
7C07D000
7FE3FF40
7F83FD00
ENDCHAR
STARTCHAR I
ENCODING 73
SWIDTH 705 0
DWIDTH 11 0
BBX 11 14 0 -2
BITMAP
055554
280000
B80404
BF8064
7FC050
07C000
07C000
07C000
064000
180000
780400
B80000
BFFFE0
7FFF80
ENDCHAR
STARTCHAR J
ENCODING 74
SWIDTH 788 0
DWIDTH 13 0
BBX 12 14 0 -2
BITMAP
000155
000700
000F00
000F00
000F00
055F00
280F00
B80F00
B80B00
B84010
BC0141
BE4014
3FFFE0
0BFE40
ENDCHAR
STARTCHAR K
ENCODING 75
SWIDTH 846 0
DWIDTH 14 0
BBX 13 14 0 -2
BITMAP
05545540
2C018040
7C074000
7C061100
7C051100
7C004000
7C555000
7C000000
7C07C000
7C07D000
7C07D000
7C07D040
7FE7FF40
7F83FD00
ENDCHAR
STARTCHAR L
ENCODING 76
SWIDTH 795 0
DWIDTH 13 0
BBX 13 14 0 -2
BITMAP
05540000
2C000000
7C000000
7C000000
7C000000
7C001500
7C018040
7C078040
7C078040
7C000040
7C000040
7C000040
7FFFFE00
7FFFF400
ENDCHAR
STARTCHAR M
ENCODING 77
SWIDTH 949 0
DWIDTH 15 0
BBX 15 14 0 -2
BITMAP
05540550
2C002004
7C10A104
7C048404
7C010004
7C000004
7C040804
7C0A5804
7C0BF804
7C06B804
7C00B804
7C00B804
7FE0BFE0
7F807F80
ENDCHAR
STARTCHAR N
ENCODING 78
SWIDTH 853 0
DWIDTH 14 0
BBX 13 14 0 -2
BITMAP
05501540
2C00D000
7C51D000
7C009000
7C000000
7C000000
7C040000
7C0A1000
7C0B4400
7C0BC000
7C0BD000
7C07D000
7FE3FE40
7F83FC00
ENDCHAR
STARTCHAR O
ENCODING 79
SWIDTH 837 0
DWIDTH 13 0
BBX 13 14 0 -2
BITMAP
00554400
01000040
1C000440
38068000
780BC000
7807C000
7807C000
7807C000
7807C000
7C000440
7D001040
7F400500
2FFFF400
06FF9000
ENDCHAR
STARTCHAR P
ENCODING 80
SWIDTH 782 0
DWIDTH 13 0
BBX 13 14 0 -2
BITMAP
05555400
2C000100
7C000040
7C054440
7C078040
7C078040
7C000400
7C401100
7C000400
7C07F000
7C068000
7C040000
7FE40000
7F800000
ENDCHAR
STARTCHAR Q
ENCODING 81
SWIDTH 837 0
DWIDTH 13 0
BBX 13 15 0 -3
BITMAP
00555400
05000040
1C000440
38078000
780BC000
7807C000
7807C000
7807C000
7807C000
7C000400
7D051000
3F900400
1FF01400
06FF8000
01FE0000
ENDCHAR
STARTCHAR R
ENCODING 82
SWIDTH 843 0
DWIDTH 13 0
BBX 13 14 0 -2
BITMAP
05555400
2C000100
7C000000
7C074000
7C074000
7C000100
7C401040
7C000000
7C07D000
7C07D000
7C07D000
7C02D000
7FE2FF40
7F82FD00
ENDCHAR
STARTCHAR S
ENCODING 83
SWIDTH 750 0
DWIDTH 12 0
BBX 12 14 0 -2
BITMAP
004554
040000
180000
780554
7806A0
B84004
BC0001
7F9411
3FFF01
180010
380001
B80004
BFFFE0
7FFE40
ENDCHAR
STARTCHAR T
ENCODING 84
SWIDTH 756 0
DWIDTH 12 0
BBX 12 14 0 -2
BITMAP
055555
340000
F40100
F40000
FFD03C
BFD020
03D000
03D000
03D000
03D000
03D000
03D000
03FF40
03FD00
ENDCHAR
STARTCHAR U
ENCODING 85
SWIDTH 846 0
DWIDTH 14 0
BBX 13 14 0 -2
BITMAP
05545540
2C01D000
7C07D000
7C07D000
7C07D000
7C07D000
7C07D000
7C07D000
7C038000
7C000400
7D001040
3F400500
2FFFF400
06FF9000
ENDCHAR
STARTCHAR V
ENCODING 86
SWIDTH 830 0
DWIDTH 13 0
BBX 13 14 0 -2
BITMAP
05545540
2801C000
7807C000
B807C000
B807C000
B807C000
BC478400
7D034400
7E110000
3F001000
2F400000
0F800000
0BFFE000
07FF8000
ENDCHAR
STARTCHAR W
ENCODING 87
SWIDTH 931 0
DWIDTH 15 0
BBX 15 14 0 -2
BITMAP
05500550
28002804
78007844
7800B844
78016844
78080844
78040444
78000044
7C004040
7D04C400
7E11D100
3F02E000
2FFBFF40
1FE2FD00
ENDCHAR
STARTCHAR X
ENCODING 88
SWIDTH 837 0
DWIDTH 13 0
BBX 13 14 0 -2
BITMAP
05505540
2801C000
7807C000
7C038440
7D110000
7F001100
2F854000
0F001100
09024040
2C47C000
780BC000
7807C040
7FE7FE40
7F83F800
ENDCHAR
STARTCHAR Y
ENCODING 89
SWIDTH 805 0
DWIDTH 13 0
BBX 13 14 0 -2
BITMAP
05505540
2806C000
B84BC000
B84BC000
B8474400
BC010000
BE000100
7F410000
2FC00000
0BE00000
07E00000
02E00000
02FF8000
01FE0000
ENDCHAR
STARTCHAR Z
ENCODING 90
SWIDTH 760 0
DWIDTH 12 0
BBX 12 14 0 -2
BITMAP
055555
1C0000
7C0000
7C0010
7FF444
7FE000
008000
020000
081100
284001
780001
B80000
BFFFF8
BFFFE0
ENDCHAR
STARTCHAR bracketleft
ENCODING 91
SWIDTH 529 0
DWIDTH 8 0
BBX 8 17 0 -3
BITMAP
0401
1800
7840
B805
B808
B804
B804
B804
B804
B804
B804
B805
B800
B850
B800
BFFD
7FF4
ENDCHAR
STARTCHAR backslash
ENCODING 92
SWIDTH 487 0
DWIDTH 8 0
BBX 8 17 0 -3
BITMAP
0540
2400
B400
F800
B800
BC00
7C00
7C04
3D00
3D00
3E01
2E01
2F01
1F01
1F41
0FFC
0BE0
ENDCHAR
STARTCHAR bracketright
ENCODING 93
SWIDTH 529 0
DWIDTH 8 0
BBX 8 17 0 -3
BITMAP
0401
1800
7800
B800
BF40
7F40
0F40
0F40
0F40
0F40
0F40
0F40
0800
7850
B800
BFFD
7FF4
ENDCHAR
STARTCHAR asciicircum
ENCODING 94
SWIDTH 814 0
DWIDTH 13 0
BBX 13 11 0 1
BITMAP
00101000
01450000
07500400
0B111000
0E171000
1D071100
2C4B4100
380F8000
781BC040
BFDBFE00
BE07F400
ENDCHAR
STARTCHAR underscore
ENCODING 95
SWIDTH 834 0
DWIDTH 13 0
BBX 12 6 0 -4
BITMAP
015555
0C0000
3C0000
7C0000
7FFFFE
7FFFF8
ENDCHAR
STARTCHAR grave
ENCODING 96
SWIDTH 600 0
DWIDTH 10 0
BBX 10 6 0 10
BITMAP
040000
240000
B40000
BE9510
BFFF80
15A900
ENDCHAR
STARTCHAR a
ENCODING 97
SWIDTH 830 0
DWIDTH 13 0
BBX 13 14 0 -2
BITMAP
00555400
01400000
03044100
0A020100
0D074000
1C078040
28000000
78555400
78000000
B80BC000
B80BC000
B807C000
BFD7FE00
7F43F800
ENDCHAR
STARTCHAR b
ENCODING 98
SWIDTH 825 0
DWIDTH 13 0
BBX 13 14 0 -2
BITMAP
05555400
2C000100
7C000000
7C065000
7C074000
7C000100
7C405040
7C07C000
7C07C000
7C000000
7C001000
7C000100
7FFFFC00
7FFFE000
ENDCHAR
STARTCHAR c
ENCODING 99
SWIDTH 728 0
DWIDTH 12 0
BBX 11 14 0 -2
BITMAP
005554
050000
1C1400
384000
7807F4
780BD0
780000
780000
780000
7C0000
7D1400
7F4000
2FFFF4
0BFFD0
ENDCHAR
STARTCHAR d
ENCODING 100
SWIDTH 846 0
DWIDTH 14 0
BBX 13 14 0 -2
BITMAP
05555500
2C000040
7C000040
7C010400
7C07D000
7C07D000
7C03D000
7C03D000
7C028000
7C000440
7C000000
7C000100
7FFFF800
7FFF9000
ENDCHAR
STARTCHAR e
ENCODING 101
SWIDTH 754 0
DWIDTH 12 0
BBX 12 14 0 -2
BITMAP
055555
2C0001
7C0001
7C0000
7C07F8
7C0154
7C4004
7C06A0
7C0690
7C0001
7C0001
7C0000
7FFFF8
7FFFE0
ENDCHAR
STARTCHAR f
ENCODING 102
SWIDTH 718 0
DWIDTH 11 0
BBX 11 14 0 -2
BITMAP
055554
2C0000
7C0000
7C06A8
7C07E0
7C0000
7C4000
7C0000
7C07D0
7C0740
7C0000
7C0000
7FE000
7F8000
ENDCHAR
STARTCHAR g
ENCODING 103
SWIDTH 808 0
DWIDTH 13 0
BBX 13 14 0 -2
BITMAP
00555400
05000000
1C140000
38000000
7807F000
78059000
78018040
78078040
78078040
7C400040
7D000040
7F400000
2FFFFE00
0BFFF800
ENDCHAR
STARTCHAR h
ENCODING 104
SWIDTH 859 0
DWIDTH 14 0
BBX 13 14 0 -2
BITMAP
05541540
2C01D000
7C03D000
7C03D000
7C028000
7C000000
7C400400
7C000000
7C07D000
7C07D000
7C03D000
7C07D000
7FE3FF40
7F83FD00
ENDCHAR
STARTCHAR i
ENCODING 105
SWIDTH 705 0
DWIDTH 11 0
BBX 11 14 0 -2
BITMAP
055554
280000
B80404
BF8064
7FC050
07C000
07C000
07C000
064000
180000
780400
B80000
BFFFE0
7FFF80
ENDCHAR
STARTCHAR j
ENCODING 106
SWIDTH 788 0
DWIDTH 13 0
BBX 12 14 0 -2
BITMAP
000155
000700
000F00
000F00
000F00
055F00
280F00
B80F00
B80B00
B84010
BC0141
BE4014
3FFFE0
0BFE40
ENDCHAR
STARTCHAR k
ENCODING 107
SWIDTH 846 0
DWIDTH 14 0
BBX 13 14 0 -2
BITMAP
05545540
2C018040
7C074000
7C061100
7C051100
7C004000
7C555000
7C000000
7C07C000
7C07D000
7C07D000
7C07D040
7FE7FF40
7F83FD00
ENDCHAR
STARTCHAR l
ENCODING 108
SWIDTH 795 0
DWIDTH 13 0
BBX 13 14 0 -2
BITMAP
05540000
2C000000
7C000000
7C000000
7C000000
7C001500
7C018040
7C078040
7C078040
7C000040
7C000040
7C000040
7FFFFE00
7FFFF400
ENDCHAR
STARTCHAR m
ENCODING 109
SWIDTH 949 0
DWIDTH 15 0
BBX 15 14 0 -2
BITMAP
05540550
2C002004
7C10A104
7C048404
7C010004
7C000004
7C040804
7C0A5804
7C0BF804
7C06B804
7C00B804
7C00B804
7FE0BFE0
7F807F80
ENDCHAR
STARTCHAR n
ENCODING 110
SWIDTH 853 0
DWIDTH 14 0
BBX 13 14 0 -2
BITMAP
05501540
2C00D000
7C51D000
7C009000
7C000000
7C000000
7C040000
7C0A1000
7C0B4400
7C0BC000
7C0BD000
7C07D000
7FE3FE40
7F83FC00
ENDCHAR
STARTCHAR o
ENCODING 111
SWIDTH 837 0
DWIDTH 13 0
BBX 13 14 0 -2
BITMAP
00554400
01000040
1C000440
38068000
780BC000
7807C000
7807C000
7807C000
7807C000
7C000440
7D001040
7F400500
2FFFF400
06FF9000
ENDCHAR
STARTCHAR p
ENCODING 112
SWIDTH 782 0
DWIDTH 13 0
BBX 13 14 0 -2
BITMAP
05555400
2C000100
7C000040
7C054440
7C078040
7C078040
7C000400
7C401100
7C000400
7C07F000
7C068000
7C040000
7FE40000
7F800000
ENDCHAR
STARTCHAR q
ENCODING 113
SWIDTH 837 0
DWIDTH 13 0
BBX 13 15 0 -3
BITMAP
00555400
05000040
1C000440
38078000
780BC000
7807C000
7807C000
7807C000
7807C000
7C000400
7D051000
3F900400
1FF01400
06FF8000
01FE0000
ENDCHAR
STARTCHAR r
ENCODING 114
SWIDTH 843 0
DWIDTH 13 0
BBX 13 14 0 -2
BITMAP
05555400
2C000100
7C000000
7C074000
7C074000
7C000100
7C401040
7C000000
7C07D000
7C07D000
7C07D000
7C02D000
7FE2FF40
7F82FD00
ENDCHAR
STARTCHAR s
ENCODING 115
SWIDTH 750 0
DWIDTH 12 0
BBX 12 14 0 -2
BITMAP
004554
040000
180000
780554
7806A0
B84004
BC0001
7F9411
3FFF01
180010
380001
B80004
BFFFE0
7FFE40
ENDCHAR
STARTCHAR t
ENCODING 116
SWIDTH 756 0
DWIDTH 12 0
BBX 12 14 0 -2
BITMAP
055555
340000
F40100
F40000
FFD03C
BFD020
03D000
03D000
03D000
03D000
03D000
03D000
03FF40
03FD00
ENDCHAR
STARTCHAR u
ENCODING 117
SWIDTH 846 0
DWIDTH 14 0
BBX 13 14 0 -2
BITMAP
05545540
2C01D000
7C07D000
7C07D000
7C07D000
7C07D000
7C07D000
7C07D000
7C038000
7C000400
7D001040
3F400500
2FFFF400
06FF9000
ENDCHAR
STARTCHAR v
ENCODING 118
SWIDTH 830 0
DWIDTH 13 0
BBX 13 14 0 -2
BITMAP
05545540
2801C000
7807C000
B807C000
B807C000
B807C000
BC478400
7D034400
7E110000
3F001000
2F400000
0F800000
0BFFE000
07FF8000
ENDCHAR
STARTCHAR w
ENCODING 119
SWIDTH 931 0
DWIDTH 15 0
BBX 15 14 0 -2
BITMAP
05500550
28002804
78007844
7800B844
78016844
78080844
78040444
78000044
7C004040
7D04C400
7E11D100
3F02E000
2FFBFF40
1FE2FD00
ENDCHAR
STARTCHAR x
ENCODING 120
SWIDTH 837 0
DWIDTH 13 0
BBX 13 14 0 -2
BITMAP
05505540
2801C000
7807C000
7C038440
7D110000
7F001100
2F854000
0F001100
09024040
2C47C000
780BC000
7807C040
7FE7FE40
7F83F800
ENDCHAR
STARTCHAR y
ENCODING 121
SWIDTH 805 0
DWIDTH 13 0
BBX 13 14 0 -2
BITMAP
05505540
2806C000
B84BC000
B84BC000
B8474400
BC010000
BE000100
7F410000
2FC00000
0BE00000
07E00000
02E00000
02FF8000
01FE0000
ENDCHAR
STARTCHAR z
ENCODING 122
SWIDTH 760 0
DWIDTH 12 0
BBX 12 14 0 -2
BITMAP
055555
1C0000
7C0000
7C0010
7FF444
7FE000
008000
020000
081100
284001
780001
B80000
BFFFF8
BFFFE0
ENDCHAR
STARTCHAR braceleft
ENCODING 123
SWIDTH 555 0
DWIDTH 9 0
BBX 9 16 0 -3
BITMAP
010000
051000
1D0140
3D0100
3D0000
384000
741400
F44000
FC0000
BD0000
3D0100
3D1000
3E0000
3F9000
1FFE00
06F800
ENDCHAR
STARTCHAR bar
ENCODING 124
SWIDTH 447 0
DWIDTH 7 0
BBX 7 17 0 -3
BITMAP
0150
1800
7C00
7C00
7C00
7C00
7C00
7C00
7C00
7C00
7C00
7C00
7C00
7C00
7C04
7FE0
7F80
ENDCHAR
STARTCHAR braceright
ENCODING 125
SWIDTH 555 0
DWIDTH 9 0
BBX 9 17 0 -3
BITMAP
040000
180000
781100
B80000
BF0000
7F0000
0F0040
0F8400
0F8400
0B0040
0F0000
0F0000
181000
784100
B81400
BFE000
7E4000
ENDCHAR
STARTCHAR asciitilde
ENCODING 126
SWIDTH 834 0
DWIDTH 13 0
BBX 12 7 0 2
BITMAP
005501
040000
1C0000
7C0000
7EBE99
7FFFF8
141650
ENDCHAR
STARTCHAR uni00A0
ENCODING 160
SWIDTH 325 0
DWIDTH 5 0
BBX 1 1 0 0
BITMAP
00
ENDCHAR
STARTCHAR exclamdown
ENCODING 161
SWIDTH 523 0
DWIDTH 8 0
BBX 6 14 1 -2
BITMAP
1550
7400
F400
F400
FFE0
B400
B400
F400
F400
F400
F400
F400
FFE0
FF80
ENDCHAR
STARTCHAR cent
ENCODING 162
SWIDTH 728 0
DWIDTH 12 0
BBX 12 16 0 -3
BITMAP
000540
006000
004004
051500
1C0001
3807F8
780BE0
780000
780000
780000
7C0000
7D1500
3F9000
1FF024
06FF80
01FE00
ENDCHAR
STARTCHAR sterling
ENCODING 163
SWIDTH 795 0
DWIDTH 13 0
BBX 13 14 0 -2
BITMAP
00555400
01000000
0D000000
2C000000
3C07E000
74014000
B0404000
F4008040
FC078040
BC010040
7C000040
7C000040
7FFFFE00
7FFFF400
ENDCHAR
STARTCHAR currency
ENCODING 164
SWIDTH 921 0
DWIDTH 15 0
BBX 15 14 0 -2
BITMAP
01400140
09104510
28004000
7E100000
7F519000
1F52E040
0F52E040
0F52E140
0F100400
0D000010
18055404
7E2FFE00
7F6A7F40
18001900
ENDCHAR
STARTCHAR yen
ENCODING 165
SWIDTH 803 0
DWIDTH 13 0
BBX 13 14 0 -2
BITMAP
05505500
2805C000
B847C000
B80BC000
B8078040
BD020100
7F000000
2E400400
1D010100
2D000100
3FE02D00
2FE02000
02FF8000
01FE0000
ENDCHAR
STARTCHAR brokenbar
ENCODING 166
SWIDTH 447 0
DWIDTH 7 0
BBX 7 17 0 -3
BITMAP
0150
1800
7C00
7C00
7C00
7C00
7C00
7EA0
7E90
1C00
7C00
7C00
7C00
7C00
7C04
7FE0
7F80
ENDCHAR
STARTCHAR section
ENCODING 167
SWIDTH 750 0
DWIDTH 12 0
BBX 12 14 0 -2
BITMAP
005554
051540
1C4000
780BF4
784054
B80011
B84B01
BD0541
7F4001
2FFE01
1C0001
7C0004
7FFFD0
7FFE40
ENDCHAR
STARTCHAR dieresis
ENCODING 168
SWIDTH 600 0
DWIDTH 10 0
BBX 9 6 0 10
BITMAP
040400
202400
F02400
F42400
FFFF80
FEBE00
ENDCHAR
STARTCHAR copyright
ENCODING 169
SWIDTH 967 0
DWIDTH 15 0
BBX 15 17 0 -3
BITMAP
00055500
00400010
052FFE44
1C7E56D0
391001D0
796001D4
79A0BFD4
79A0A7D4
79A043D4
79A056D4
79A001D4
79B801D0
7D7FFF90
7E56A550
3FA55550
1FFFFE00
01BFA400
ENDCHAR
STARTCHAR ordfeminine
ENCODING 170
SWIDTH 620 0
DWIDTH 10 0
BBX 10 14 0 -2
BITMAP
015500
090040
2C0000
382400
741400
B50010
B41410
B43C10
B97D50
BE6A80
740010
B40000
BFFF80
BFFE00
ENDCHAR
STARTCHAR guillemotleft
ENCODING 171
SWIDTH 912 0
DWIDTH 15 0
BBX 14 11 0 -1
BITMAP
00040050
01401400
04108100
28418410
780F8180
B8418410
BC008000
7F90F900
3FFEFFD0
06F86F40
00100000
ENDCHAR
STARTCHAR logicalnot
ENCODING 172
SWIDTH 834 0
DWIDTH 13 0
BBX 13 9 0 -1
BITMAP
01555500
1C155400
7C000000
7FFFD000
7FFFD000
0003D000
0003D040
0003FE00
0002F800
ENDCHAR
STARTCHAR uni00AD
ENCODING 173
SWIDTH 520 0
DWIDTH 8 0
BBX 8 6 0 2
BITMAP
0401
2400
B400
B800
BFFD
BFF4
ENDCHAR
STARTCHAR registered
ENCODING 174
SWIDTH 660 0
DWIDTH 11 0
BBX 10 10 0 2
BITMAP
015540
09BF50
2955D0
7955D0
795590
795C50
7DFF90
7E5550
7FFF40
1FFD00
ENDCHAR
STARTCHAR macron
ENCODING 175
SWIDTH 600 0
DWIDTH 10 0
BBX 10 5 0 10
BITMAP
040000
240000
B80010
BFFF80
BFFD00
ENDCHAR
STARTCHAR degree
ENCODING 176
SWIDTH 583 0
DWIDTH 9 0
BBX 9 9 0 3
BITMAP
015500
184040
791100
B93900
B93500
B84040
BE5540
7FFC00
1A9000
ENDCHAR
STARTCHAR plusminus
ENCODING 177
SWIDTH 834 0
DWIDTH 13 0
BBX 13 14 0 -2
BITMAP
00140000
00700000
00F10000
01A11500
08010000
3C010000
7D010040
7FF12E00
7FF02800
05A01500
1C000000
7C000040
7FFFFE40
7FFFF800
ENDCHAR
STARTCHAR twosuperior
ENCODING 178
SWIDTH 585 0
DWIDTH 9 0
BBX 9 10 0 2
BITMAP
055500
2C0040
7D5000
7F9000
280040
280500
742840
B40000
BFFF80
BFFD00
ENDCHAR
STARTCHAR threesuperior
ENCODING 179
SWIDTH 584 0
DWIDTH 9 0
BBX 9 10 0 2
BITMAP
055500
280000
BFD000
BE0000
6E0440
2FF400
280000
280040
BFFE00
BFF400
ENDCHAR
STARTCHAR acute
ENCODING 180
SWIDTH 600 0
DWIDTH 10 0
BBX 9 5 0 10
BITMAP
040000
240000
B85640
BFFE00
AA5000
ENDCHAR
STARTCHAR mu
ENCODING 181
SWIDTH 813 0
DWIDTH 13 0
BBX 12 14 0 -4
BITMAP
010000
180180
780780
780B80
780B80
780B80
784780
784000
780000
780005
780BF4
7EAF80
7F8000
150000
ENDCHAR
STARTCHAR paragraph
ENCODING 182
SWIDTH 782 0
DWIDTH 13 0
BBX 12 14 0 -2
BITMAP
001555
040001
280001
740001
B40001
B40001
B80001
B80405
BE4401
7FC481
1BC081
07C181
07FFF8
07FBE0
ENDCHAR
STARTCHAR periodcentered
ENCODING 183
SWIDTH 464 0
DWIDTH 7 0
BBX 7 7 0 2
BITMAP
0404
1800
7800
B800
B800
BFF4
BFD0
ENDCHAR
STARTCHAR cedilla
ENCODING 184
SWIDTH 600 0
DWIDTH 10 0
BBX 7 7 1 -4
BITMAP
0140
0604
1D04
2C04
3800
7FD0
BF40
ENDCHAR
STARTCHAR onesuperior
ENCODING 185
SWIDTH 557 0
DWIDTH 9 0
BBX 9 10 0 2
BITMAP
055400
281000
7D0000
7F4000
6F4000
0F4000
0A4100
281000
BFFF40
BFF900
ENDCHAR
STARTCHAR ordmasculine
ENCODING 186
SWIDTH 625 0
DWIDTH 10 0
BBX 10 14 0 -2
BITMAP
010040
080000
340010
B42C10
B42C10
B42C10
B82C10
B80000
BE5540
7EA940
240010
B80000
BFFF80
BFFE00
ENDCHAR
STARTCHAR guillemotright
ENCODING 187
SWIDTH 912 0
DWIDTH 15 0
BBX 14 11 0 -1
BITMAP
01001000
08154140
38018000
7D109100
7F80F800
7C008000
18118010
781B8190
7EFFEF40
7F9BF800
64064000
ENDCHAR
STARTCHAR onequarter
ENCODING 188
SWIDTH 1303 0
DWIDTH 21 0
BBX 21 14 0 -2
BITMAP
055405500000
281024100000
7D00B4100000
7F40B0151500
2F40F0206040
0F41E060A040
0A41A060A040
281050A05040
780094E00440
BFFFC4F40040
7FFB81FFE040
000781BFE040
0007F802FE00
0007E001F800
ENDCHAR
STARTCHAR onehalf
ENCODING 189
SWIDTH 1260 0
DWIDTH 20 0
BBX 20 14 0 -2
BITMAP
0554055000
2810241000
7D00B41000
7F40B01554
1F40F02001
0F41E06541
0A41A07F80
2810506410
7800945154
BFFFC4D094
7FFB81D001
000781D000
0007FBFFF8
0007E3FFE0
ENDCHAR
STARTCHAR threequarters
ENCODING 190
SWIDTH 1313 0
DWIDTH 21 0
BBX 20 14 0 -2
BITMAP
0555055000
2800180000
B800740000
BE50B41505
6E04702060
2E003020B0
2FF42060B0
2850606050
780090B000
BFFFC0F400
7FE3C0FFE0
0003C0BFF0
0007F901FE
0007F001F8
ENDCHAR
STARTCHAR questiondown
ENCODING 191
SWIDTH 756 0
DWIDTH 12 0
BBX 12 14 0 -2
BITMAP
000550
007400
00F400
00F404
009500
000000
040100
3805A0
B80690
B80001
BC1001
BE0000
7FFFF8
1BFFE0
ENDCHAR
STARTCHAR Agrave
ENCODING 192
SWIDTH 830 0
DWIDTH 13 0
BBX 13 18 0 -2
BITMAP
00400000
02400000
0B440000
0FE94000
0FEAA400
06800000
03044000
0A020000
0D074000
1C078000
28000000
78555400
78000000
B80BC000
B80BC000
B807C000
BFD7FE40
7F43F800
ENDCHAR
STARTCHAR Aacute
ENCODING 193
SWIDTH 830 0
DWIDTH 13 0
BBX 13 18 0 -2
BITMAP
00155400
01904000
07400000
0F456000
0FD55400
0F400000
07044100
0A020100
0D074000
1C078040
28000000
78555400
78000000
B80BC000
B80BC000
B807C000
BFD7FE00
7F43F800
ENDCHAR
STARTCHAR Acircumflex
ENCODING 194
SWIDTH 830 0
DWIDTH 13 0
BBX 12 17 0 -2
BITMAP
000440
024000
0BABE4
0FD554
0F4000
070440
0A0200
0D0740
1C0780
280000
785554
780000
B80BC0
B80BC0
B807C0
BFD7FE
7F43F8
ENDCHAR
STARTCHAR Atilde
ENCODING 195
SWIDTH 830 0
DWIDTH 13 0
BBX 13 18 0 -2
BITMAP
00001400
01400000
07454000
0F550400
0FEAA400
0F800000
07444000
0A020000
0D074000
1C078000
28000000
78555400
78000000
B80BC000
B80BC000
B807C000
BFD7FE40
7F43F800
ENDCHAR
STARTCHAR Adieresis
ENCODING 196
SWIDTH 830 0
DWIDTH 13 0
BBX 13 18 0 -2
BITMAP
00404000
02020000
0F020000
1F030100
1FEAA800
1F800000
07444000
0A020000
0D074000
1C078000
28000000
78555400
78000000
B80BC000
B80BC000
B807C040
BFD7FE40
7F43F800
ENDCHAR
STARTCHAR Aring
ENCODING 197
SWIDTH 830 0
DWIDTH 13 0
BBX 13 18 0 -2
BITMAP
00155000
00450400
02501000
0B438000
0F535000
0F850000
0B444000
0A020100
0D074000
2C078000
38000000
78555400
78000000
B80BC000
B80BC000
B807C040
BFD7FE40
7F43F800
ENDCHAR
STARTCHAR AE
ENCODING 198
SWIDTH 1105 0
DWIDTH 18 0
BBX 17 14 0 -2
BITMAP
0055555540
0240000000
0B00040000
0E02806A80
1D03C05600
2C07C00000
3800015400
7855546900
7800006400
B80B800000
B80BC00000
B80BC00000
BFD7FFFF40
7F47FFFD00
ENDCHAR
STARTCHAR Ccedilla
ENCODING 199
SWIDTH 728 0
DWIDTH 12 0
BBX 12 16 0 -4
BITMAP
005554
051400
1C0001
3807F8
780BD0
780000
780000
780000
780000
7C0000
7D1440
7F4000
2FF024
07E010
01FF00
02F800
ENDCHAR
STARTCHAR Egrave
ENCODING 200
SWIDTH 754 0
DWIDTH 12 0
BBX 12 18 0 -2
BITMAP
015550
0A0014
1E0000
2FA540
1D5555
1C0001
3C0001
7C0000
7C07F8
7C0154
7C4004
7C06A0
7C0690
7C0001
7C0001
7C0000
7FFFF8
7FFFE0
ENDCHAR
STARTCHAR Eacute
ENCODING 201
SWIDTH 754 0
DWIDTH 12 0
BBX 12 18 0 -2
BITMAP
001554
015040
0B4000
0F45A0
0D5555
2C0001
7C0001
7C0000
7C07F8
7C0154
7C4004
7C06A0
7C0690
7C0001
7C0001
7C0000
7FFFF8
7FFFE0
ENDCHAR
STARTCHAR Ecircumflex
ENCODING 202
SWIDTH 754 0
DWIDTH 12 0
BBX 12 18 0 -2
BITMAP
000100
000400
060000
1F6FE4
1D5555
1C0001
3C0001
7C0000
7C07F8
7C0154
7C4004
7C06A0
7C0690
7C0001
7C0001
7C0000
7FFFF8
7FFFE0
ENDCHAR
STARTCHAR Edieresis
ENCODING 203
SWIDTH 754 0
DWIDTH 12 0
BBX 12 18 0 -2
BITMAP
000404
060200
1E0200
2E0300
2EAAA9
2C0001
2C0001
7C0000
7C07F8
7C0154
7C4004
7C06A0
7C0690
7C0001
7C0001
7C0000
7FFFF8
7FFFE0
ENDCHAR
STARTCHAR Igrave
ENCODING 204
SWIDTH 705 0
DWIDTH 11 0
BBX 11 18 0 -2
BITMAP
025540
1D1050
3D0000
3FA500
395554
280000
780404
BF8064
7FC050
07C000
07C000
07C000
064000
180000
780400
B80000
BFFFE0
7FFF80
ENDCHAR
STARTCHAR Iacute
ENCODING 205
SWIDTH 705 0
DWIDTH 11 0
BBX 11 18 0 -2
BITMAP
005550
064100
1D0000
3D1580
395554
380000
780404
BF8064
7FC050
07C000
07C000
07C000
064000
180000
780400
B80000
BFFFE0
7FFF80
ENDCHAR
STARTCHAR Icircumflex
ENCODING 206
SWIDTH 705 0
DWIDTH 11 0
BBX 11 17 0 -2
BITMAP
001100
090000
2EBF90
395554
380000
780404
BF8064
7FC050
07C000
07C000
07C000
064000
180000
780400
B80000
BFFFE0
7FFF80
ENDCHAR
STARTCHAR Idieresis
ENCODING 207
SWIDTH 705 0
DWIDTH 11 0
BBX 11 18 0 -2
BITMAP
010100
080800
3C0800
7C0C00
7EAAA8
780000
780400
BF8064
7FC050
07C000
07C000
07C000
064000
180000
780400
B80000
BFFFE0
7FFF80
ENDCHAR
STARTCHAR Eth
ENCODING 208
SWIDTH 856 0
DWIDTH 14 0
BBX 13 14 0 -2
BITMAP
05555100
1C000040
3C000000
3C000000
3C07D000
3401D000
7050D000
F400D000
FC07D000
BC014000
3C000040
3C000100
3FFFF800
3FFFD000
ENDCHAR
STARTCHAR Ntilde
ENCODING 209
SWIDTH 853 0
DWIDTH 14 0
BBX 13 18 0 -2
BITMAP
00015400
01400000
07854000
0B950000
095FD540
1C07D000
7C51D000
7C009000
7C000000
7C000000
7C040000
7C0A1000
7C0B4400
7C0BC000
7C0BD000
7C07D000
7FE3FE40
7F83FC00
ENDCHAR
STARTCHAR Ograve
ENCODING 210
SWIDTH 837 0
DWIDTH 13 0
BBX 13 18 0 -2
BITMAP
00555000
02401400
0B400000
0FE95000
0B900400
05000000
1C000440
38068000
780BC000
7807C000
7807C000
7807C000
7807C000
7C000440
7D001040
7F400500
2FFFF400
06FF9000
ENDCHAR
STARTCHAR Oacute
ENCODING 211
SWIDTH 837 0
DWIDTH 13 0
BBX 13 18 0 -2
BITMAP
00055400
01900000
07400000
0F456400
0F900500
09000000
1C000440
78068000
780BC000
7807C000
7807C000
7807C000
7807C000
7C000440
7D001040
7F400500
2FFFF400
06FF9000
ENDCHAR
STARTCHAR Ocircumflex
ENCODING 212
SWIDTH 837 0
DWIDTH 13 0
BBX 13 18 0 -2
BITMAP
00014000
00454000
02400000
0B9B9400
0F941400
09000000
1C000440
78068000
780BC000
7807C000
7807C000
7807C000
7807C000
7C000440
7D001040
7F400500
2FFFF400
06FF9000
ENDCHAR
STARTCHAR Otilde
ENCODING 213
SWIDTH 837 0
DWIDTH 13 0
BBX 13 18 0 -2
BITMAP
00011400
01400000
07454000
0F550400
0F955400
09000000
1C000440
78068000
780BC000
7807C000
7807C000
7807C000
7807C000
7C000440
7D001040
7F400500
2FFFF400
06FF9000
ENDCHAR
STARTCHAR Odieresis
ENCODING 214
SWIDTH 837 0
DWIDTH 13 0
BBX 13 18 0 -2
BITMAP
00404000
07020000
0F020000
1F024000
1FE56800
0A000000
1C000440
78068000
780BC000
7807C000
7807C000
7807C000
7807C000
7C000440
7D001040
7F400500
2FFFF400
06FF9000
ENDCHAR
STARTCHAR multiply
ENCODING 215
SWIDTH 834 0
DWIDTH 13 0
BBX 12 11 1 -1
BITMAP
010044
140100
780000
FE1000
7F4410
1E1000
080000
341E01
BD7F84
BE1FD0
280740
ENDCHAR
STARTCHAR Oslash
ENCODING 216
SWIDTH 837 0
DWIDTH 13 0
BBX 13 16 0 -3
BITMAP
00001100
00550100
01001000
1C001400
380A4000
780D4000
78081000
78055000
78009000
7845D000
7C440440
7D140040
7F000500
2E0BF400
1FFF9000
2F800000
ENDCHAR
STARTCHAR Ugrave
ENCODING 217
SWIDTH 846 0
DWIDTH 14 0
BBX 13 18 0 -2
BITMAP
00955000
07441400
0F400000
0FE94000
095BD540
2C06D000
7C07D000
7C07D000
7C07D000
7C07D000
7C07D000
7C07D000
7C038000
7C000400
7D001040
3F400500
2FFFF400
06FF9000
ENDCHAR
STARTCHAR Uacute
ENCODING 218
SWIDTH 846 0
DWIDTH 14 0
BBX 13 18 0 -2
BITMAP
00155500
00900000
07800000
0B856400
095BD540
2C05D000
7C07D000
7C07D000
7C07D000
7C07D000
7C07D000
7C07D000
7C038000
7C000400
7D001040
3F400500
2FFFF400
06FF9000
ENDCHAR
STARTCHAR Ucircumflex
ENCODING 219
SWIDTH 846 0
DWIDTH 14 0
BBX 13 18 0 -2
BITMAP
00014000
00414400
02400000
0B9BE400
095BD540
2C06D000
7C07D000
7C07D000
7C07D000
7C07D000
7C07D000
7C07D000
7C07C000
7C000400
7D001040
3F400500
2FFFF400
06FF9000
ENDCHAR
STARTCHAR Udieresis
ENCODING 220
SWIDTH 846 0
DWIDTH 14 0
BBX 13 18 0 -2
BITMAP
00404000
03024000
0F024000
0F024000
0EAFEA80
2C07D000
7C07D000
7C07D000
7C07D000
7C07D000
7C07D000
7C07D000
7C07C000
7C000400
7D001040
3F400500
2FFFF400
06FF9000
ENDCHAR
STARTCHAR Yacute
ENCODING 221
SWIDTH 805 0
DWIDTH 13 0
BBX 13 18 0 -2
BITMAP
00155400
01904000
07400000
0F456000
095FD540
2806C000
B84BC000
B84BC000
B8474400
BC010000
BE000100
7F410000
2FC00000
0BE00000
07E00000
02E00000
02FF8000
01FE0000
ENDCHAR
STARTCHAR Thorn
ENCODING 222
SWIDTH 792 0
DWIDTH 13 0
BBX 13 14 0 -2
BITMAP
05540000
2C000000
7C000000
7C400100
7C000040
7C078040
7C078040
7C054040
7C000000
7C554500
7C07F400
7C078000
7FE00000
7F800000
ENDCHAR
STARTCHAR germandbls
ENCODING 223
SWIDTH 859 0
DWIDTH 14 0
BBX 14 14 0 -2
BITMAP
05555400
2C000100
7C000000
7C000100
7C070100
7C071000
7C061400
7C079100
7C07E100
7C060100
7C060010
7C060040
7FFFFE00
7FAFE400
ENDCHAR
STARTCHAR agrave
ENCODING 224
SWIDTH 830 0
DWIDTH 13 0
BBX 13 18 0 -2
BITMAP
00400000
02400000
0B440000
0FE94000
0FEAA400
06800000
03044000
0A020000
0D074000
1C078000
28000000
78555400
78000000
B80BC000
B80BC000
B807C000
BFD7FE40
7F43F800
ENDCHAR
STARTCHAR aacute
ENCODING 225
SWIDTH 830 0
DWIDTH 13 0
BBX 13 18 0 -2
BITMAP
00155400
01904000
07400000
0F456000
0FD55400
0F400000
07044100
0A020100
0D074000
1C078040
28000000
78555400
78000000
B80BC000
B80BC000
B807C000
BFD7FE00
7F43F800
ENDCHAR
STARTCHAR acircumflex
ENCODING 226
SWIDTH 830 0
DWIDTH 13 0
BBX 12 17 0 -2
BITMAP
000440
024000
0BABE4
0FD554
0F4000
070440
0A0200
0D0740
1C0780
280000
785554
780000
B80BC0
B80BC0
B807C0
BFD7FE
7F43F8
ENDCHAR
STARTCHAR atilde
ENCODING 227
SWIDTH 830 0
DWIDTH 13 0
BBX 13 18 0 -2
BITMAP
00001400
01400000
07454000
0F550400
0FEAA400
0F800000
07444000
0A020000
0D074000
1C078000
28000000
78555400
78000000
B80BC000
B80BC000
B807C000
BFD7FE40
7F43F800
ENDCHAR
STARTCHAR adieresis
ENCODING 228
SWIDTH 830 0
DWIDTH 13 0
BBX 13 18 0 -2
BITMAP
00404000
02020000
0F020000
1F030100
1FEAA800
1F800000
07444000
0A020000
0D074000
1C078000
28000000
78555400
78000000
B80BC000
B80BC000
B807C040
BFD7FE40
7F43F800
ENDCHAR
STARTCHAR aring
ENCODING 229
SWIDTH 830 0
DWIDTH 13 0
BBX 13 18 0 -2
BITMAP
00155000
00450400
02501000
0B438000
0F535000
0F850000
0B444000
0A020100
0D074000
2C078000
38000000
78555400
78000000
B80BC000
B80BC000
B807C040
BFD7FE40
7F43F800
ENDCHAR
STARTCHAR ae
ENCODING 230
SWIDTH 1105 0
DWIDTH 18 0
BBX 17 14 0 -2
BITMAP
0055555540
0240000000
0B00040000
0E02806A80
1D03C05600
2C07C00000
3800015400
7855546900
7800006400
B80B800000
B80BC00000
B80BC00000
BFD7FFFF40
7F47FFFD00
ENDCHAR
STARTCHAR ccedilla
ENCODING 231
SWIDTH 728 0
DWIDTH 12 0
BBX 12 16 0 -4
BITMAP
005554
051400
1C0001
3807F8
780BD0
780000
780000
780000
780000
7C0000
7D1440
7F4000
2FF024
07E010
01FF00
02F800
ENDCHAR
STARTCHAR egrave
ENCODING 232
SWIDTH 754 0
DWIDTH 12 0
BBX 12 18 0 -2
BITMAP
015550
0A0014
1E0000
2FA540
1D5555
1C0001
3C0001
7C0000
7C07F8
7C0154
7C4004
7C06A0
7C0690
7C0001
7C0001
7C0000
7FFFF8
7FFFE0
ENDCHAR
STARTCHAR eacute
ENCODING 233
SWIDTH 754 0
DWIDTH 12 0
BBX 12 18 0 -2
BITMAP
001554
015040
0B4000
0F45A0
0D5555
2C0001
7C0001
7C0000
7C07F8
7C0154
7C4004
7C06A0
7C0690
7C0001
7C0001
7C0000
7FFFF8
7FFFE0
ENDCHAR
STARTCHAR ecircumflex
ENCODING 234
SWIDTH 754 0
DWIDTH 12 0
BBX 12 18 0 -2
BITMAP
000100
000400
060000
1F6FE4
1D5555
1C0001
3C0001
7C0000
7C07F8
7C0154
7C4004
7C06A0
7C0690
7C0001
7C0001
7C0000
7FFFF8
7FFFE0
ENDCHAR
STARTCHAR edieresis
ENCODING 235
SWIDTH 754 0
DWIDTH 12 0
BBX 12 18 0 -2
BITMAP
000404
060200
1E0200
2E0300
2EAAA9
2C0001
2C0001
7C0000
7C07F8
7C0154
7C4004
7C06A0
7C0690
7C0001
7C0001
7C0000
7FFFF8
7FFFE0
ENDCHAR
STARTCHAR igrave
ENCODING 236
SWIDTH 705 0
DWIDTH 11 0
BBX 11 18 0 -2
BITMAP
025540
1D1050
3D0000
3FA500
395554
280000
780404
BF8064
7FC050
07C000
07C000
07C000
064000
180000
780400
B80000
BFFFE0
7FFF80
ENDCHAR
STARTCHAR iacute
ENCODING 237
SWIDTH 705 0
DWIDTH 11 0
BBX 11 18 0 -2
BITMAP
005550
064100
1D0000
3D1580
395554
380000
780404
BF8064
7FC050
07C000
07C000
07C000
064000
180000
780400
B80000
BFFFE0
7FFF80
ENDCHAR
STARTCHAR icircumflex
ENCODING 238
SWIDTH 705 0
DWIDTH 11 0
BBX 11 17 0 -2
BITMAP
001100
090000
2EBF90
395554
380000
780404
BF8064
7FC050
07C000
07C000
07C000
064000
180000
780400
B80000
BFFFE0
7FFF80
ENDCHAR
STARTCHAR idieresis
ENCODING 239
SWIDTH 705 0
DWIDTH 11 0
BBX 11 18 0 -2
BITMAP
010100
080800
3C0800
7C0C00
7EAAA8
780000
780400
BF8064
7FC050
07C000
07C000
07C000
064000
180000
780400
B80000
BFFFE0
7FFF80
ENDCHAR
STARTCHAR eth
ENCODING 240
SWIDTH 856 0
DWIDTH 14 0
BBX 13 14 0 -2
BITMAP
05555100
1C000040
3C000000
3C000000
3C07D000
3401D000
7050D000
F400D000
FC07D000
BC014000
3C000040
3C000100
3FFFF800
3FFFD000
ENDCHAR
STARTCHAR ntilde
ENCODING 241
SWIDTH 853 0
DWIDTH 14 0
BBX 13 18 0 -2
BITMAP
00015400
01400000
07854000
0B950000
095FD540
1C07D000
7C51D000
7C009000
7C000000
7C000000
7C040000
7C0A1000
7C0B4400
7C0BC000
7C0BD000
7C07D000
7FE3FE40
7F83FC00
ENDCHAR
STARTCHAR ograve
ENCODING 242
SWIDTH 837 0
DWIDTH 13 0
BBX 13 18 0 -2
BITMAP
00555000
02401400
0B400000
0FE95000
0B900400
05000000
1C000440
38068000
780BC000
7807C000
7807C000
7807C000
7807C000
7C000440
7D001040
7F400500
2FFFF400
06FF9000
ENDCHAR
STARTCHAR oacute
ENCODING 243
SWIDTH 837 0
DWIDTH 13 0
BBX 13 18 0 -2
BITMAP
00055400
01900000
07400000
0F456400
0F900500
09000000
1C000440
78068000
780BC000
7807C000
7807C000
7807C000
7807C000
7C000440
7D001040
7F400500
2FFFF400
06FF9000
ENDCHAR
STARTCHAR ocircumflex
ENCODING 244
SWIDTH 837 0
DWIDTH 13 0
BBX 13 18 0 -2
BITMAP
00014000
00454000
02400000
0B9B9400
0F941400
09000000
1C000440
78068000
780BC000
7807C000
7807C000
7807C000
7807C000
7C000440
7D001040
7F400500
2FFFF400
06FF9000
ENDCHAR
STARTCHAR otilde
ENCODING 245
SWIDTH 837 0
DWIDTH 13 0
BBX 13 18 0 -2
BITMAP
00011400
01400000
07454000
0F550400
0F955400
09000000
1C000440
78068000
780BC000
7807C000
7807C000
7807C000
7807C000
7C000440
7D001040
7F400500
2FFFF400
06FF9000
ENDCHAR
STARTCHAR odieresis
ENCODING 246
SWIDTH 837 0
DWIDTH 13 0
BBX 13 18 0 -2
BITMAP
00404000
07020000
0F020000
1F024000
1FE56800
0A000000
1C000440
78068000
780BC000
7807C000
7807C000
7807C000
7807C000
7C000440
7D001040
7F400500
2FFFF400
06FF9000
ENDCHAR
STARTCHAR divide
ENCODING 247
SWIDTH 834 0
DWIDTH 13 0
BBX 13 13 0 -1
BITMAP
00054000
00601000
01F01000
01F01000
01AA9000
1C000000
3C000040
7FAAAA40
7FF01C00
05F01000
01F01000
01FF8000
01FE0000
ENDCHAR
STARTCHAR oslash
ENCODING 248
SWIDTH 837 0
DWIDTH 13 0
BBX 13 16 0 -3
BITMAP
00001100
00550100
01001000
1C001400
380A4000
780D4000
78081000
78055000
78009000
7845D000
7C440440
7D140040
7F000500
2E0BF400
1FFF9000
2F800000
ENDCHAR
STARTCHAR ugrave
ENCODING 249
SWIDTH 846 0
DWIDTH 14 0
BBX 13 18 0 -2
BITMAP
00955000
07441400
0F400000
0FE94000
095BD540
2C06D000
7C07D000
7C07D000
7C07D000
7C07D000
7C07D000
7C07D000
7C038000
7C000400
7D001040
3F400500
2FFFF400
06FF9000
ENDCHAR
STARTCHAR uacute
ENCODING 250
SWIDTH 846 0
DWIDTH 14 0
BBX 13 18 0 -2
BITMAP
00155500
00900000
07800000
0B856400
095BD540
2C05D000
7C07D000
7C07D000
7C07D000
7C07D000
7C07D000
7C07D000
7C038000
7C000400
7D001040
3F400500
2FFFF400
06FF9000
ENDCHAR
STARTCHAR ucircumflex
ENCODING 251
SWIDTH 846 0
DWIDTH 14 0
BBX 13 18 0 -2
BITMAP
00014000
00414400
02400000
0B9BE400
095BD540
2C06D000
7C07D000
7C07D000
7C07D000
7C07D000
7C07D000
7C07D000
7C07C000
7C000400
7D001040
3F400500
2FFFF400
06FF9000
ENDCHAR
STARTCHAR udieresis
ENCODING 252
SWIDTH 846 0
DWIDTH 14 0
BBX 13 18 0 -2
BITMAP
00404000
03024000
0F024000
0F024000
0EAFEA80
2C07D000
7C07D000
7C07D000
7C07D000
7C07D000
7C07D000
7C07D000
7C07C000
7C000400
7D001040
3F400500
2FFFF400
06FF9000
ENDCHAR
STARTCHAR yacute
ENCODING 253
SWIDTH 805 0
DWIDTH 13 0
BBX 13 18 0 -2
BITMAP
00155400
01904000
07400000
0F456000
095FD540
2806C000
B84BC000
B84BC000
B8474400
BC010000
BE000100
7F410000
2FC00000
0BE00000
07E00000
02E00000
02FF8000
01FE0000
ENDCHAR
STARTCHAR thorn
ENCODING 254
SWIDTH 792 0
DWIDTH 13 0
BBX 13 14 0 -2
BITMAP
05540000
2C000000
7C000000
7C400100
7C000040
7C078040
7C078040
7C054040
7C000000
7C554500
7C07F400
7C078000
7FE00000
7F800000
ENDCHAR
STARTCHAR ydieresis
ENCODING 255
SWIDTH 805 0
DWIDTH 13 0
BBX 13 18 0 -2
BITMAP
00040000
06020000
1E030000
2E030000
1EAFEA40
280BC000
B847C000
B84BC000
B8478400
B8020000
BD000000
7F410000
2FC00000
0FE00000
07E00000
02E00000
02FF8000
01FE0000
ENDCHAR
STARTCHAR Amacron
ENCODING 256
SWIDTH 830 0
DWIDTH 13 0
BBX 13 17 0 -2
BITMAP
00400000
02400000
0B400000
0FEAA800
0F800000
07444000
0A020000
0D074000
1C078000
28000000
78555400
78000000
B80BC000
B80BC000
B807C040
BFD7FE40
7F43F800
ENDCHAR
STARTCHAR amacron
ENCODING 257
SWIDTH 830 0
DWIDTH 13 0
BBX 13 17 0 -2
BITMAP
00400000
02400000
0B400000
0FEAA800
0F800000
07444000
0A020000
0D074000
1C078000
28000000
78555400
78000000
B80BC000
B80BC000
B807C040
BFD7FE40
7F43F800
ENDCHAR
STARTCHAR Abreve
ENCODING 258
SWIDTH 830 0
DWIDTH 13 0
BBX 13 18 0 -2
BITMAP
00545400
02404000
0B400000
0FD00000
0FEAA400
07800400
03444100
0A020100
0D074040
1C078040
28000040
78555400
78000000
B80BC000
B80BC000
B807C000
BFD7FE00
7F43F800
ENDCHAR
STARTCHAR abreve
ENCODING 259
SWIDTH 830 0
DWIDTH 13 0
BBX 13 18 0 -2
BITMAP
00545400
02404000
0B400000
0FD00000
0FEAA400
07800400
03444100
0A020100
0D074040
1C078040
28000040
78555400
78000000
B80BC000
B80BC000
B807C000
BFD7FE00
7F43F800
ENDCHAR
STARTCHAR Aogonek
ENCODING 260
SWIDTH 830 0
DWIDTH 13 0
BBX 13 17 0 -5
BITMAP
00555400
01400000
03044100
0A020100
0D074000
1C078040
28000000
78555400
78000000
B80BC000
B80BC400
B807C400
BFD78140
7F478400
0007C000
0007FE40
0002F800
ENDCHAR
STARTCHAR aogonek
ENCODING 261
SWIDTH 830 0
DWIDTH 13 0
BBX 13 17 0 -5
BITMAP
00555400
01400000
03044100
0A020100
0D074000
1C078040
28000000
78555400
78000000
B80BC000
B80BC400
B807C400
BFD78140
7F478400
0007C000
0007FE40
0002F800
ENDCHAR
STARTCHAR Cacute
ENCODING 262
SWIDTH 728 0
DWIDTH 12 0
BBX 12 18 0 -2
BITMAP
001555
009000
074000
0B8564
0B9554
090000
081400
284000
7807F4
780BD0
780000
780000
780000
7C0000
7D1400
7F4000
2FFFF4
0BFFD0
ENDCHAR
STARTCHAR cacute
ENCODING 263
SWIDTH 728 0
DWIDTH 12 0
BBX 12 18 0 -2
BITMAP
001555
009000
074000
0B8564
0B9554
090000
081400
284000
7807F4
780BD0
780000
780000
780000
7C0000
7D1400
7F4000
2FFFF4
0BFFD0
ENDCHAR
STARTCHAR Ccircumflex
ENCODING 264
SWIDTH 728 0
DWIDTH 12 0
BBX 11 18 0 -2
BITMAP
000100
000440
030000
0F6FE4
1F9554
1D0000
081400
284000
7807F4
780BD0
780000
780000
780000
7C0000
7D1400
7F4000
2FFFF4
0BFFD0
ENDCHAR
STARTCHAR ccircumflex
ENCODING 265
SWIDTH 728 0
DWIDTH 12 0
BBX 11 18 0 -2
BITMAP
000100
000440
030000
0F6FE4
1F9554
1D0000
081400
284000
7807F4
780BD0
780000
780000
780000
7C0000
7D1400
7F4000
2FFFF4
0BFFD0
ENDCHAR
STARTCHAR Cdotaccent
ENCODING 266
SWIDTH 728 0
DWIDTH 12 0
BBX 11 17 0 -2
BITMAP
006000
01E000
02E000
029554
010000
081400
384000
7807F4
780BD0
780000
780000
780000
7C0000
7D1400
7F4000
2FFFF4
0BFFD0
ENDCHAR
STARTCHAR cdotaccent
ENCODING 267
SWIDTH 728 0
DWIDTH 12 0
BBX 11 17 0 -2
BITMAP
006000
01E000
02E000
029554
010000
081400
384000
7807F4
780BD0
780000
780000
780000
7C0000
7D1400
7F4000
2FFFF4
0BFFD0
ENDCHAR
STARTCHAR Ccaron
ENCODING 268
SWIDTH 728 0
DWIDTH 12 0
BBX 11 18 0 -2
BITMAP
019000
0B0540
1F0000
1F9450
0F9554
010000
081400
284000
7807F4
780BD0
780000
780000
780000
7C0000
7D1400
7F4000
2FFFF4
0BFFD0
ENDCHAR
STARTCHAR ccaron
ENCODING 269
SWIDTH 728 0
DWIDTH 12 0
BBX 11 18 0 -2
BITMAP
019000
0B0540
1F0000
1F9450
0F9554
010000
081400
284000
7807F4
780BD0
780000
780000
780000
7C0000
7D1400
7F4000
2FFFF4
0BFFD0
ENDCHAR
STARTCHAR Dcaron
ENCODING 270
SWIDTH 846 0
DWIDTH 14 0
BBX 13 18 0 -2
BITMAP
01A00400
07454000
0B400000
0BE41000
08000100
1C000040
7C000040
7C010440
7C07D000
7C07D000
7C03D000
7C03D000
7C028000
7C000440
7C000000
7C000100
7FFFF800
7FFF9000
ENDCHAR
STARTCHAR dcaron
ENCODING 271
SWIDTH 846 0
DWIDTH 14 0
BBX 13 18 0 -2
BITMAP
01A00400
07454000
0B400000
0BE41000
08000100
1C000040
7C000040
7C010440
7C07D000
7C07D000
7C03D000
7C03D000
7C028000
7C000440
7C000000
7C000100
7FFFF800
7FFF9000
ENDCHAR
STARTCHAR Dcroat
ENCODING 272
SWIDTH 856 0
DWIDTH 14 0
BBX 13 14 0 -2
BITMAP
05555100
1C000040
3C000000
3C000000
3C07D000
3401D000
7050D000
F400D000
FC07D000
BC014000
3C000040
3C000100
3FFFF800
3FFFD000
ENDCHAR
STARTCHAR dcroat
ENCODING 273
SWIDTH 856 0
DWIDTH 14 0
BBX 13 14 0 -2
BITMAP
05555100
1C000040
3C000000
3C000000
3C07D000
3401D000
7050D000
F400D000
FC07D000
BC014000
3C000040
3C000100
3FFFF800
3FFFD000
ENDCHAR
STARTCHAR Emacron
ENCODING 274
SWIDTH 754 0
DWIDTH 12 0
BBX 12 16 0 -2
BITMAP
060000
1F0000
1D5555
1C0001
3C0001
7C0000
7C07F8
7C0154
7C4004
7C06A0
7C0690
7C0001
7C0001
7C0000
7FFFF8
7FFFE0
ENDCHAR
STARTCHAR emacron
ENCODING 275
SWIDTH 754 0
DWIDTH 12 0
BBX 12 16 0 -2
BITMAP
060000
1F0000
1D5555
1C0001
3C0001
7C0000
7C07F8
7C0154
7C4004
7C06A0
7C0690
7C0001
7C0001
7C0000
7FFFF8
7FFFE0
ENDCHAR
STARTCHAR Ebreve
ENCODING 276
SWIDTH 754 0
DWIDTH 12 0
BBX 12 18 0 -2
BITMAP
005054
070100
1F0000
1F9000
0D5555
1C0001
7C0001
7C0000
7C07F8
7C0154
7C4004
7C06A0
7C0690
7C0001
7C0001
7C0000
7FFFF8
7FFFE0
ENDCHAR
STARTCHAR ebreve
ENCODING 277
SWIDTH 754 0
DWIDTH 12 0
BBX 12 18 0 -2
BITMAP
005054
070100
1F0000
1F9000
0D5555
1C0001
7C0001
7C0000
7C07F8
7C0154
7C4004
7C06A0
7C0690
7C0001
7C0001
7C0000
7FFFF8
7FFFE0
ENDCHAR
STARTCHAR Edotaccent
ENCODING 278
SWIDTH 754 0
DWIDTH 12 0
BBX 12 18 0 -2
BITMAP
001040
009000
03D000
03D000
055555
2C0001
7C0001
7C0000
7C07F8
7C0154
7C4004
7C06A0
7C0690
7C0001
7C0001
7C0000
7FFFF8
7FFFE0
ENDCHAR
STARTCHAR edotaccent
ENCODING 279
SWIDTH 754 0
DWIDTH 12 0
BBX 12 18 0 -2
BITMAP
001040
009000
03D000
03D000
055555
2C0001
7C0001
7C0000
7C07F8
7C0154
7C4004
7C06A0
7C0690
7C0001
7C0001
7C0000
7FFFF8
7FFFE0
ENDCHAR
STARTCHAR Eogonek
ENCODING 280
SWIDTH 754 0
DWIDTH 12 0
BBX 12 17 0 -5
BITMAP
055555
2C0001
7C0001
7C0000
7C07F8
7C0154
7C4004
7C06A0
7C0690
7C0001
7C0011
7C0000
7FFE05
7FFE11
002E00
002FF8
001FE0
ENDCHAR
STARTCHAR eogonek
ENCODING 281
SWIDTH 754 0
DWIDTH 12 0
BBX 12 17 0 -5
BITMAP
055555
2C0001
7C0001
7C0000
7C07F8
7C0154
7C4004
7C06A0
7C0690
7C0001
7C0011
7C0000
7FFE05
7FFE11
002E00
002FF8
001FE0
ENDCHAR
STARTCHAR Ecaron
ENCODING 282
SWIDTH 754 0
DWIDTH 12 0
BBX 12 18 0 -2
BITMAP
019000
0B0540
1F0000
1F9450
0D5555
1C0001
7C0001
7C0000
7C07F8
7C0154
7C4004
7C06A0
7C0690
7C0001
7C0001
7C0000
7FFFF8
7FFFE0
ENDCHAR
STARTCHAR ecaron
ENCODING 283
SWIDTH 754 0
DWIDTH 12 0
BBX 12 18 0 -2
BITMAP
019000
0B0540
1F0000
1F9450
0D5555
1C0001
7C0001
7C0000
7C07F8
7C0154
7C4004
7C06A0
7C0690
7C0001
7C0001
7C0000
7FFFF8
7FFFE0
ENDCHAR
STARTCHAR Gcircumflex
ENCODING 284
SWIDTH 808 0
DWIDTH 13 0
BBX 13 17 0 -2
BITMAP
00014000
01800000
079BE500
0B955400
09000000
08140000
28000000
7807F000
78059000
78018040
78078040
78078040
7C400040
7D000040
7F400000
2FFFFE00
0BFFF800
ENDCHAR
STARTCHAR gcircumflex
ENCODING 285
SWIDTH 808 0
DWIDTH 13 0
BBX 13 17 0 -2
BITMAP
00014000
01800000
079BE500
0B955400
09000000
08140000
28000000
7807F000
78059000
78018040
78078040
78078040
7C400040
7D000040
7F400000
2FFFFE00
0BFFF800
ENDCHAR
STARTCHAR Gbreve
ENCODING 286
SWIDTH 808 0
DWIDTH 13 0
BBX 13 18 0 -2
BITMAP
00545400
02404000
0B400000
0FD00000
0B955400
01000000
08140000
28000000
7807F000
78059000
78018040
78078040
78078040
7C400040
7D000040
7F400000
2FFFFE00
0BFFF800
ENDCHAR
STARTCHAR gbreve
ENCODING 287
SWIDTH 808 0
DWIDTH 13 0
BBX 13 18 0 -2
BITMAP
00545400
02404000
0B400000
0FD00000
0B955400
01000000
08140000
28000000
7807F000
78059000
78018040
78078040
78078040
7C400040
7D000040
7F400000
2FFFFE00
0BFFF800
ENDCHAR
STARTCHAR Gdotaccent
ENCODING 288
SWIDTH 808 0
DWIDTH 13 0
BBX 13 18 0 -2
BITMAP
00040000
00300000
00F00000
01F00000
01955400
00000000
08140000
28000000
7807F000
78059000
78018040
78078040
78078040
7C400040
7D000040
7F400000
2FFFFE00
0BFFF800
ENDCHAR
STARTCHAR gdotaccent
ENCODING 289
SWIDTH 808 0
DWIDTH 13 0
BBX 13 18 0 -2
BITMAP
00040000
00300000
00F00000
01F00000
01955400
00000000
08140000
28000000
7807F000
78059000
78018040
78078040
78078040
7C400040
7D000040
7F400000
2FFFFE00
0BFFF800
ENDCHAR
STARTCHAR Gcommaaccent
ENCODING 290
SWIDTH 808 0
DWIDTH 13 0
BBX 13 20 0 -8
BITMAP
00555400
05140000
1C000100
3807F800
780BE000
78000000
78018040
78078040
78078040
7C400040
7D000040
7F400000
2FFAAE00
0BF01800
00F00000
01FA0000
01F51000
00BA8000
00FE0000
00540000
ENDCHAR
STARTCHAR gcommaaccent
ENCODING 291
SWIDTH 808 0
DWIDTH 13 0
BBX 13 20 0 -8
BITMAP
00555400
05140000
1C000100
3807F800
780BE000
78000000
78018040
78078040
78078040
7C400040
7D000040
7F400000
2FFAAE00
0BF01800
00F00000
01FA0000
01F51000
00BA8000
00FE0000
00540000
ENDCHAR
STARTCHAR Hcircumflex
ENCODING 292
SWIDTH 859 0
DWIDTH 14 0
BBX 13 17 0 -2
BITMAP
00404000
02800000
0BABE400
095BD540
1C06D000
7C03D000
7C03D000
7C028000
7C000000
7C400400
7C000000
7C07D000
7C07D000
7C03D000
7C07D000
7FE3FF40
7F83FD00
ENDCHAR
STARTCHAR hcircumflex
ENCODING 293
SWIDTH 859 0
DWIDTH 14 0
BBX 13 17 0 -2
BITMAP
00404000
02800000
0BABE400
095BD540
1C06D000
7C03D000
7C03D000
7C028000
7C000000
7C400400
7C000000
7C07D000
7C07D000
7C03D000
7C07D000
7FE3FF40
7F83FD00
ENDCHAR
STARTCHAR Hbar
ENCODING 294
SWIDTH 879 0
DWIDTH 14 0
BBX 14 14 0 -2
BITMAP
05541540
1C009000
38019010
74400100
F4000010
FC07D010
FC014000
7C000000
3C155500
3C000000
3C07D000
3C07D000
3FF6FF40
3FD2FD00
ENDCHAR
STARTCHAR hbar
ENCODING 295
SWIDTH 879 0
DWIDTH 14 0
BBX 14 14 0 -2
BITMAP
05541540
1C009000
38019010
74400100
F4000010
FC07D010
FC014000
7C000000
3C155500
3C000000
3C07D000
3C07D000
3FF6FF40
3FD2FD00
ENDCHAR
STARTCHAR Itilde
ENCODING 296
SWIDTH 705 0
DWIDTH 11 0
BBX 11 18 0 -2
BITMAP
000550
050000
1D1500
3D5400
395554
380000
780404
BF8064
7FC050
07C000
07C000
07C000
064000
180000
780400
B80000
BFFFE0
7FFF80
ENDCHAR
STARTCHAR itilde
ENCODING 297
SWIDTH 705 0
DWIDTH 11 0
BBX 11 18 0 -2
BITMAP
000550
050000
1D1500
3D5400
395554
380000
780404
BF8064
7FC050
07C000
07C000
07C000
064000
180000
780400
B80000
BFFFE0
7FFF80
ENDCHAR
STARTCHAR Imacron
ENCODING 298
SWIDTH 705 0
DWIDTH 11 0
BBX 11 17 0 -2
BITMAP
010010
090000
2D0000
3EAAA8
380000
780400
BF8064
7FC050
07C000
07C000
07C000
064000
180000
780400
B80000
BFFFE0
7FFF80
ENDCHAR
STARTCHAR imacron
ENCODING 299
SWIDTH 705 0
DWIDTH 11 0
BBX 11 17 0 -2
BITMAP
010010
090000
2D0000
3EAAA8
380000
780400
BF8064
7FC050
07C000
07C000
07C000
064000
180000
780400
B80000
BFFFE0
7FFF80
ENDCHAR
STARTCHAR Ibreve
ENCODING 300
SWIDTH 705 0
DWIDTH 11 0
BBX 11 18 0 -2
BITMAP
015150
090100
3D0000
3F4000
395554
280000
780404
BF8064
7FC050
07C000
07C000
07C000
064000
180000
780400
B80000
BFFFE0
7FFF80
ENDCHAR
STARTCHAR ibreve
ENCODING 301
SWIDTH 705 0
DWIDTH 11 0
BBX 11 18 0 -2
BITMAP
015150
090100
3D0000
3F4000
395554
280000
780404
BF8064
7FC050
07C000
07C000
07C000
064000
180000
780400
B80000
BFFFE0
7FFF80
ENDCHAR
STARTCHAR Iogonek
ENCODING 302
SWIDTH 705 0
DWIDTH 11 0
BBX 11 17 0 -5
BITMAP
055554
280000
B80400
BF8064
7FC050
07C000
07C000
07C000
064000
180000
780440
B80040
BFF814
7FF840
007C00
007FE0
003F80
ENDCHAR
STARTCHAR iogonek
ENCODING 303
SWIDTH 705 0
DWIDTH 11 0
BBX 11 17 0 -5
BITMAP
055554
280000
B80400
BF8064
7FC050
07C000
07C000
07C000
064000
180000
780440
B80040
BFF814
7FF840
007C00
007FE0
003F80
ENDCHAR
STARTCHAR Idotaccent
ENCODING 304
SWIDTH 705 0
DWIDTH 11 0
BBX 11 18 0 -2
BITMAP
001000
018000
07C000
07C000
055554
280000
B80404
BF8064
7FC050
07C000
07C000
07C000
064000
180000
780400
B80000
BFFFE0
7FFF80
ENDCHAR
STARTCHAR dotlessi
ENCODING 305
SWIDTH 705 0
DWIDTH 11 0
BBX 11 14 0 -2
BITMAP
055554
280000
B80404
BF8064
7FC050
07C000
07C000
07C000
064000
180000
780400
B80000
BFFFE0
7FFF80
ENDCHAR
STARTCHAR IJ
ENCODING 306
SWIDTH 844 0
DWIDTH 14 0
BBX 13 14 0 -2
BITMAP
05545540
2C01C000
7C07C000
7C07C000
7C07C000
7C07C000
7C0BC000
7FEBC000
2A464000
08000440
3C001000
7C000100
7FFFF400
7FFF9000
ENDCHAR
STARTCHAR ij
ENCODING 307
SWIDTH 844 0
DWIDTH 14 0
BBX 13 14 0 -2
BITMAP
05545540
2C01C000
7C07C000
7C07C000
7C07C000
7C07C000
7C0BC000
7FEBC000
2A464000
08000440
3C001000
7C000100
7FFFF400
7FFF9000
ENDCHAR
STARTCHAR Jcircumflex
ENCODING 308
SWIDTH 788 0
DWIDTH 13 0
BBX 14 18 0 -2
BITMAP
00001000
00041400
00280000
00B9BE50
00BF5540
00570000
000F0000
000F0000
000F0000
055F0000
280F0000
B80F0000
B80B0000
B8401000
BC014100
BE401400
3FFFE000
0BFE4000
ENDCHAR
STARTCHAR jcircumflex
ENCODING 309
SWIDTH 788 0
DWIDTH 13 0
BBX 14 18 0 -2
BITMAP
00001000
00041400
00280000
00B9BE50
00BF5540
00570000
000F0000
000F0000
000F0000
055F0000
280F0000
B80F0000
B80B0000
B8401000
BC014100
BE401400
3FFFE000
0BFE4000
ENDCHAR
STARTCHAR Kcommaaccent
ENCODING 310
SWIDTH 846 0
DWIDTH 14 0
BBX 13 20 0 -8
BITMAP
05545540
2C064000
7C071000
7C051100
7C004000
7C555000
7C000000
7C07C000
7C07D000
7C07D000
7C07D000
7C03D000
7FE6AE00
7FF01C00
01F01000
01FA1000
01F11000
00BA8000
00FE0000
00540000
ENDCHAR
STARTCHAR kcommaaccent
ENCODING 311
SWIDTH 846 0
DWIDTH 14 0
BBX 13 20 0 -8
BITMAP
05545540
2C064000
7C071000
7C051100
7C004000
7C555000
7C000000
7C07C000
7C07D000
7C07D000
7C07D000
7C03D000
7FE6AE00
7FF01C00
01F01000
01FA1000
01F11000
00BA8000
00FE0000
00540000
ENDCHAR
STARTCHAR kgreenlandic
ENCODING 312
SWIDTH 846 0
DWIDTH 14 0
BBX 13 14 0 -2
BITMAP
05545540
2C018040
7C074000
7C061100
7C051100
7C004000
7C555000
7C000000
7C07C000
7C07D000
7C07D000
7C07D040
7FE7FF40
7F83FD00
ENDCHAR
STARTCHAR Lacute
ENCODING 313
SWIDTH 795 0
DWIDTH 13 0
BBX 13 17 0 -2
BITMAP
04000000
1C011000
7C569000
7EAB4000
7C040000
3C000000
7C000000
7C000000
7C001500
7C018040
7C078040
7C078040
7C000040
7C000040
7C000040
7FFFFE00
7FFFF400
ENDCHAR
STARTCHAR lacute
ENCODING 314
SWIDTH 795 0
DWIDTH 13 0
BBX 13 17 0 -2
BITMAP
04000000
1C011000
7C569000
7EAB4000
7C040000
3C000000
7C000000
7C000000
7C001500
7C018040
7C078040
7C078040
7C000040
7C000040
7C000040
7FFFFE00
7FFFF400
ENDCHAR
STARTCHAR Lcommaaccent
ENCODING 315
SWIDTH 795 0
DWIDTH 13 0
BBX 13 20 0 -8
BITMAP
05540000
2C000000
7C000000
7C000000
7C000000
7C001500
7C018040
7C078040
7C078040
7C000040
7C000040
7C000000
7FFAAD00
7FE01400
01E01000
01F91000
01F11000
00FA8000
01FE0000
00540000
ENDCHAR
STARTCHAR lcommaaccent
ENCODING 316
SWIDTH 795 0
DWIDTH 13 0
BBX 13 20 0 -8
BITMAP
05540000
2C000000
7C000000
7C000000
7C000000
7C001500
7C018040
7C078040
7C078040
7C000040
7C000040
7C000000
7FFAAD00
7FE01400
01E01000
01F91000
01F11000
00FA8000
01FE0000
00540000
ENDCHAR
STARTCHAR Lcaron
ENCODING 317
SWIDTH 795 0
DWIDTH 13 0
BBX 13 14 0 -2
BITMAP
05545500
2C068000
7C074000
7C074000
7C079400
7C07E500
7C068040
7C078040
7C078040
7C000040
7C000040
7C000040
7FFFFE00
7FFFF400
ENDCHAR
STARTCHAR lcaron
ENCODING 318
SWIDTH 795 0
DWIDTH 13 0
BBX 13 14 0 -2
BITMAP
05545500
2C068000
7C074000
7C074000
7C079400
7C07E500
7C068040
7C078040
7C078040
7C000040
7C000040
7C000040
7FFFFE00
7FFFF400
ENDCHAR
STARTCHAR Ldot
ENCODING 319
SWIDTH 795 0
DWIDTH 13 0
BBX 13 14 0 -2
BITMAP
05540000
2C000000
7C000000
7C018000
7C078000
7C078000
7C07D500
7C07E900
7C068040
7C010040
7C000040
7C000040
7FFFFE00
7FFFF800
ENDCHAR
STARTCHAR ldot
ENCODING 320
SWIDTH 795 0
DWIDTH 13 0
BBX 13 14 0 -2
BITMAP
05540000
2C000000
7C000000
7C018000
7C078000
7C078000
7C07D500
7C07E900
7C068040
7C010040
7C000040
7C000040
7FFFFE00
7FFFF800
ENDCHAR
STARTCHAR Lslash
ENCODING 321
SWIDTH 805 0
DWIDTH 13 0
BBX 12 14 0 -2
BITMAP
055400
1C0000
3C0000
3C0100
380040
705055
F002C0
F807C0
FC07C0
7C0000
3C0004
3C0000
3FFFFE
3FFFF8
ENDCHAR
STARTCHAR lslash
ENCODING 322
SWIDTH 805 0
DWIDTH 13 0
BBX 12 14 0 -2
BITMAP
055400
1C0000
3C0000
3C0100
380040
705055
F002C0
F807C0
FC07C0
7C0000
3C0004
3C0000
3FFFFE
3FFFF8
ENDCHAR
STARTCHAR Nacute
ENCODING 323
SWIDTH 853 0
DWIDTH 14 0
BBX 13 18 0 -2
BITMAP
00155500
00900000
03800000
0B856400
095FD540
1C05D000
7C51D000
7C009000
7C000000
7C000000
7C040000
7C0A1000
7C0B4400
7C0BC000
7C0BD000
7C07D000
7FE3FE40
7F83FC00
ENDCHAR
STARTCHAR nacute
ENCODING 324
SWIDTH 853 0
DWIDTH 14 0
BBX 13 18 0 -2
BITMAP
00155500
00900000
03800000
0B856400
095FD540
1C05D000
7C51D000
7C009000
7C000000
7C000000
7C040000
7C0A1000
7C0B4400
7C0BC000
7C0BD000
7C07D000
7FE3FE40
7F83FC00
ENDCHAR
STARTCHAR Ncommaaccent
ENCODING 325
SWIDTH 853 0
DWIDTH 14 0
BBX 13 20 0 -8
BITMAP
05545540
2C02D000
7C00D000
7C005000
7C010000
7C004000
7C051000
7C0B0400
7C0BC000
7C0BD000
7C07D000
7C03D000
7FE6AE40
7FF01C00
00F00000
01FA1000
01F51000
00BA8000
00FE0000
00540000
ENDCHAR
STARTCHAR ncommaaccent
ENCODING 326
SWIDTH 853 0
DWIDTH 14 0
BBX 13 20 0 -8
BITMAP
05545540
2C02D000
7C00D000
7C005000
7C010000
7C004000
7C051000
7C0B0400
7C0BC000
7C0BD000
7C07D000
7C03D000
7FE6AE40
7FF01C00
00F00000
01FA1000
01F51000
00BA8000
00FE0000
00540000
ENDCHAR
STARTCHAR Ncaron
ENCODING 327
SWIDTH 853 0
DWIDTH 14 0
BBX 13 18 0 -2
BITMAP
01E00400
07454000
0F400000
0FE45400
095FE540
1C05D000
7C51D000
7C009000
7C000000
7C000000
7C040000
7C0A1000
7C0B4400
7C0BC000
7C0BD000
7C07D000
7FE3FE40
7F83FC00
ENDCHAR
STARTCHAR ncaron
ENCODING 328
SWIDTH 853 0
DWIDTH 14 0
BBX 13 18 0 -2
BITMAP
01E00400
07454000
0F400000
0FE45400
095FE540
1C05D000
7C51D000
7C009000
7C000000
7C000000
7C040000
7C0A1000
7C0B4400
7C0BC000
7C0BD000
7C07D000
7FE3FE40
7F83FC00
ENDCHAR
STARTCHAR napostrophe
ENCODING 329
SWIDTH 853 0
DWIDTH 14 0
BBX 13 19 0 -2
BITMAP
18000000
78400000
78000000
7E400000
7C400000
7EA42A80
7C04D000
3C52D000
7C009000
7C000000
7C000000
7C040000
7C0A1000
7C0B4400
7C0BC000
7C0BD000
7C07D000
7FE3FE40
7F83FC00
ENDCHAR
STARTCHAR Eng
ENCODING 330
SWIDTH 846 0
DWIDTH 14 0
BBX 13 16 0 -4
BITMAP
00555400
01001040
1C000400
3C07C400
7C0BC000
7C07C000
7C07C000
7C07C000
7C07C000
7C07C000
7C060000
7C0A0040
7FFE1040
7FAE6900
002FE000
00154000
ENDCHAR
STARTCHAR eng
ENCODING 331
SWIDTH 846 0
DWIDTH 14 0
BBX 13 16 0 -4
BITMAP
00555400
01001040
1C000400
3C07C400
7C0BC000
7C07C000
7C07C000
7C07C000
7C07C000
7C07C000
7C060000
7C0A0040
7FFE1040
7FAE6900
002FE000
00154000
ENDCHAR
STARTCHAR Omacron
ENCODING 332
SWIDTH 837 0
DWIDTH 13 0
BBX 13 18 0 -2
BITMAP
00400000
02400000
0B400000
0F400000
0FE56800
0A000000
1C000440
78068000
780BC000
7807C000
7807C000
7807C000
7807C000
7C000440
7D001040
7F400500
2FFFF400
06FF9000
ENDCHAR
STARTCHAR omacron
ENCODING 333
SWIDTH 837 0
DWIDTH 13 0
BBX 13 18 0 -2
BITMAP
00400000
02400000
0B400000
0F400000
0FE56800
0A000000
1C000440
78068000
780BC000
7807C000
7807C000
7807C000
7807C000
7C000440
7D001040
7F400500
2FFFF400
06FF9000
ENDCHAR
STARTCHAR Obreve
ENCODING 334
SWIDTH 837 0
DWIDTH 13 0
BBX 13 18 0 -2
BITMAP
00545400
02404000
0F400000
0FD01400
0BA55400
05000000
1C000440
38068000
780BC000
7807C000
7807C000
7807C000
7807C000
7C000440
7D001040
7F400500
2FFFF400
06FF9000
ENDCHAR
STARTCHAR obreve
ENCODING 335
SWIDTH 837 0
DWIDTH 13 0
BBX 13 18 0 -2
BITMAP
00545400
02404000
0F400000
0FD01400
0BA55400
05000000
1C000440
38068000
780BC000
7807C000
7807C000
7807C000
7807C000
7C000440
7D001040
7F400500
2FFFF400
06FF9000
ENDCHAR
STARTCHAR Ohungarumlaut
ENCODING 336
SWIDTH 837 0
DWIDTH 13 0
BBX 13 19 0 -2
BITMAP
00111000
01818000
0381C400
07428000
0B434000
0FE56800
0A000000
1C000440
78068000
780BC000
7807C000
7807C000
7807C000
7807C000
7C000440
7D001040
7F400500
2FFFF400
06FF9000
ENDCHAR
STARTCHAR ohungarumlaut
ENCODING 337
SWIDTH 837 0
DWIDTH 13 0
BBX 13 19 0 -2
BITMAP
00111000
01818000
0381C400
07428000
0B434000
0FE56800
0A000000
1C000440
78068000
780BC000
7807C000
7807C000
7807C000
7807C000
7C000440
7D001040
7F400500
2FFFF400
06FF9000
ENDCHAR
STARTCHAR OE
ENCODING 338
SWIDTH 1115 0
DWIDTH 18 0
BBX 17 14 0 -2
BITMAP
0055555540
0500000000
1C00040000
3807800000
780BC07F40
780BC01500
780BC40000
780BC06A00
7806806400
7C40000000
7D00040000
7F40000000
2FFFFFFF80
0BFFFFFE00
ENDCHAR
STARTCHAR oe
ENCODING 339
SWIDTH 1115 0
DWIDTH 18 0
BBX 17 14 0 -2
BITMAP
0055555540
0500000000
1C00040000
3807800000
780BC07F40
780BC01500
780BC40000
780BC06A00
7806806400
7C40000000
7D00040000
7F40000000
2FFFFFFF80
0BFFFFFE00
ENDCHAR
STARTCHAR Racute
ENCODING 340
SWIDTH 843 0
DWIDTH 13 0
BBX 13 18 0 -2
BITMAP
00000400
00400000
07404000
0F45A400
0EAA9000
0C000100
3C000000
7C074000
7C074000
7C000100
7C401040
7C000000
7C07D000
7C07D000
7C07D000
7C02D000
7FE2FF40
7F82FD00
ENDCHAR
STARTCHAR racute
ENCODING 341
SWIDTH 843 0
DWIDTH 13 0
BBX 13 18 0 -2
BITMAP
00000400
00400000
07404000
0F45A400
0EAA9000
0C000100
3C000000
7C074000
7C074000
7C000100
7C401040
7C000000
7C07D000
7C07D000
7C07D000
7C02D000
7FE2FF40
7F82FD00
ENDCHAR
STARTCHAR Rcommaaccent
ENCODING 342
SWIDTH 843 0
DWIDTH 13 0
BBX 13 20 0 -8
BITMAP
05555400
2C000100
7C000000
7C074000
7C074000
7C000100
7C405040
7C000000
7C07D000
7C07D000
7C03D000
7C02D000
7FE5AF40
7FF01D00
00F00000
00FA5000
00F51000
00BA9000
00FE0000
00540000
ENDCHAR
STARTCHAR rcommaaccent
ENCODING 343
SWIDTH 843 0
DWIDTH 13 0
BBX 13 20 0 -8
BITMAP
05555400
2C000100
7C000000
7C074000
7C074000
7C000100
7C405040
7C000000
7C07D000
7C07D000
7C03D000
7C02D000
7FE5AF40
7FF01D00
00F00000
00FA5000
00F51000
00BA9000
00FE0000
00540000
ENDCHAR
STARTCHAR Rcaron
ENCODING 344
SWIDTH 843 0
DWIDTH 13 0
BBX 13 18 0 -2
BITMAP
00A00400
07454000
0B400000
0BE41400
0AAAA400
08000100
3C000000
7C074000
7C074000
7C000100
7C401040
7C000000
7C07D000
7C07D000
7C07D000
7C02D000
7FE2FF40
7F82FD00
ENDCHAR
STARTCHAR rcaron
ENCODING 345
SWIDTH 843 0
DWIDTH 13 0
BBX 13 18 0 -2
BITMAP
00A00400
07454000
0B400000
0BE41400
0AAAA400
08000100
3C000000
7C074000
7C074000
7C000100
7C401040
7C000000
7C07D000
7C07D000
7C07D000
7C02D000
7FE2FF40
7F82FD00
ENDCHAR
STARTCHAR Sacute
ENCODING 346
SWIDTH 750 0
DWIDTH 12 0
BBX 12 18 0 -2
BITMAP
001554
025040
0B0000
1F1590
1F5554
1C0000
080000
280554
7806A0
B84004
BC0001
7F9411
3FFF01
180010
380001
B80004
BFFFE0
7FFE40
ENDCHAR
STARTCHAR sacute
ENCODING 347
SWIDTH 750 0
DWIDTH 12 0
BBX 12 18 0 -2
BITMAP
001554
025040
0B0000
1F1590
1F5554
1C0000
080000
280554
7806A0
B84004
BC0001
7F9411
3FFF01
180010
380001
B80004
BFFFE0
7FFE40
ENDCHAR
STARTCHAR Scircumflex
ENCODING 348
SWIDTH 750 0
DWIDTH 12 0
BBX 12 18 0 -2
BITMAP
000100
000400
060000
1E6FA4
2F5554
2C0000
180000
380554
7806A0
B84004
BC0001
7F9411
3FFF01
180010
380001
B80004
BFFFE0
7FFE40
ENDCHAR
STARTCHAR scircumflex
ENCODING 349
SWIDTH 750 0
DWIDTH 12 0
BBX 12 18 0 -2
BITMAP
000100
000400
060000
1E6FA4
2F5554
2C0000
180000
380554
7806A0
B84004
BC0001
7F9411
3FFF01
180010
380001
B80004
BFFFE0
7FFE40
ENDCHAR
STARTCHAR Scedilla
ENCODING 350
SWIDTH 750 0
DWIDTH 12 0
BBX 12 16 0 -4
BITMAP
000554
040000
180000
780554
7806A0
B84004
BC0001
7F9411
3FFF01
180010
380100
B80004
BFC0A0
7F8040
07FD00
07F400
ENDCHAR
STARTCHAR scedilla
ENCODING 351
SWIDTH 750 0
DWIDTH 12 0
BBX 12 16 0 -4
BITMAP
000554
040000
180000
780554
7806A0
B84004
BC0001
7F9411
3FFF01
180010
380100
B80004
BFC0A0
7F8040
07FD00
07F400
ENDCHAR
STARTCHAR Scaron
ENCODING 352
SWIDTH 750 0
DWIDTH 12 0
BBX 12 18 0 -2
BITMAP
029000
0B0540
1F0000
1F9050
1F5554
040000
180000
380554
7806A0
B84004
BC0001
7F9411
3FFF01
180010
380001
B80004
BFFFE0
7FFE40
ENDCHAR
STARTCHAR scaron
ENCODING 353
SWIDTH 750 0
DWIDTH 12 0
BBX 12 18 0 -2
BITMAP
029000
0B0540
1F0000
1F9050
1F5554
040000
180000
380554
7806A0
B84004
BC0001
7F9411
3FFF01
180010
380001
B80004
BFFFE0
7FFE40
ENDCHAR
STARTCHAR Tcommaaccent
ENCODING 354
SWIDTH 756 0
DWIDTH 12 0
BBX 12 20 0 -8
BITMAP
155555
740100
F40000
FFD03D
BFD034
03D000
03D000
03D000
03D000
03D000
03D000
03D000
03FA40
03D000
02D000
03E900
03D040
02EA40
02FD00
015000
ENDCHAR
STARTCHAR tcommaaccent
ENCODING 355
SWIDTH 756 0
DWIDTH 12 0
BBX 12 20 0 -8
BITMAP
155555
740100
F40000
FFD03D
BFD034
03D000
03D000
03D000
03D000
03D000
03D000
03D000
03FA40
03D000
02D000
03E900
03D040
02EA40
02FD00
015000
ENDCHAR
STARTCHAR Tcaron
ENCODING 356
SWIDTH 756 0
DWIDTH 12 0
BBX 12 18 0 -2
BITMAP
029000
0A1540
1E0000
1F9050
195555
240000
B40100
F40000
FFD03C
BFD020
03D000
03D000
03D000
03D000
03D000
03D000
03FF40
03FD00
ENDCHAR
STARTCHAR tcaron
ENCODING 357
SWIDTH 756 0
DWIDTH 12 0
BBX 12 18 0 -2
BITMAP
029000
0A1540
1E0000
1F9050
195555
240000
B40100
F40000
FFD03C
BFD020
03D000
03D000
03D000
03D000
03D000
03D000
03FF40
03FD00
ENDCHAR
STARTCHAR Tbar
ENCODING 358
SWIDTH 756 0
DWIDTH 12 0
BBX 12 14 0 -2
BITMAP
055555
740000
F40100
F94015
FFD038
568020
050000
2D1540
2E4014
2FD020
1BD000
03D000
03FF40
03FD00
ENDCHAR
STARTCHAR tbar
ENCODING 359
SWIDTH 756 0
DWIDTH 12 0
BBX 12 14 0 -2
BITMAP
055555
740000
F40100
F94015
FFD038
568020
050000
2D1540
2E4014
2FD020
1BD000
03D000
03FF40
03FD00
ENDCHAR
STARTCHAR Utilde
ENCODING 360
SWIDTH 846 0
DWIDTH 14 0
BBX 13 18 0 -2
BITMAP
00015400
01400000
07454000
0B950000
095BD540
2C07D000
7C07D000
7C07D000
7C07D000
7C07D000
7C07D000
7C07D000
7C038000
7C000400
7D001040
3F400500
2FFFF400
06FF9000
ENDCHAR
STARTCHAR utilde
ENCODING 361
SWIDTH 846 0
DWIDTH 14 0
BBX 13 18 0 -2
BITMAP
00015400
01400000
07454000
0B950000
095BD540
2C07D000
7C07D000
7C07D000
7C07D000
7C07D000
7C07D000
7C07D000
7C038000
7C000400
7D001040
3F400500
2FFFF400
06FF9000
ENDCHAR
STARTCHAR Umacron
ENCODING 362
SWIDTH 846 0
DWIDTH 14 0
BBX 13 18 0 -2
BITMAP
00400000
01400000
07400000
0B800000
0AAFEA80
1807D000
7C07D000
7C07D000
7C07D000
7C07D000
7C07D000
7C07D000
7C07C000
7C000400
7D001040
3F400500
2FFFF400
06FF9000
ENDCHAR
STARTCHAR umacron
ENCODING 363
SWIDTH 846 0
DWIDTH 14 0
BBX 13 18 0 -2
BITMAP
00400000
01400000
07400000
0B800000
0AAFEA80
1807D000
7C07D000
7C07D000
7C07D000
7C07D000
7C07D000
7C07D000
7C07C000
7C000400
7D001040
3F400500
2FFFF400
06FF9000
ENDCHAR
STARTCHAR Ubreve
ENCODING 364
SWIDTH 846 0
DWIDTH 14 0
BBX 13 18 0 -2
BITMAP
00545400
02404000
0B400000
0FD00000
095BD540
2C07D000
7C07D000
7C07D000
7C07D000
7C07D000
7C07D000
7C07D000
7C03C000
7C000400
7D001040
3F400500
2FFFF400
06FF9000
ENDCHAR
STARTCHAR ubreve
ENCODING 365
SWIDTH 846 0
DWIDTH 14 0
BBX 13 18 0 -2
BITMAP
00545400
02404000
0B400000
0FD00000
095BD540
2C07D000
7C07D000
7C07D000
7C07D000
7C07D000
7C07D000
7C07D000
7C03C000
7C000400
7D001040
3F400500
2FFFF400
06FF9000
ENDCHAR
STARTCHAR Uring
ENCODING 366
SWIDTH 846 0
DWIDTH 14 0
BBX 13 21 0 -2
BITMAP
00055000
00400400
02500100
0B538000
0F538000
0F840000
0FD00000
095BD540
2C06D000
7C07D000
7C07D000
7C07D000
7C07D000
7C07D000
7C07D000
7C07C000
7C010400
7D001040
3F400500
2FFFF400
06FF9000
ENDCHAR
STARTCHAR uring
ENCODING 367
SWIDTH 846 0
DWIDTH 14 0
BBX 13 21 0 -2
BITMAP
00055000
00400400
02500100
0B538000
0F538000
0F840000
0FD00000
095BD540
2C06D000
7C07D000
7C07D000
7C07D000
7C07D000
7C07D000
7C07D000
7C07C000
7C010400
7D001040
3F400500
2FFFF400
06FF9000
ENDCHAR
STARTCHAR Uhungarumlaut
ENCODING 368
SWIDTH 846 0
DWIDTH 14 0
BBX 13 19 0 -2
BITMAP
00111000
00809000
03C5C400
07828000
07438000
0AAFEA80
1807D000
7C07D000
7C07D000
7C07D000
7C07D000
7C07D000
7C07D000
7C07C000
7C000400
7D001040
3F400500
2FFFF400
06FF9000
ENDCHAR
STARTCHAR uhungarumlaut
ENCODING 369
SWIDTH 846 0
DWIDTH 14 0
BBX 13 19 0 -2
BITMAP
00111000
00809000
03C5C400
07828000
07438000
0AAFEA80
1807D000
7C07D000
7C07D000
7C07D000
7C07D000
7C07D000
7C07D000
7C07C000
7C000400
7D001040
3F400500
2FFFF400
06FF9000
ENDCHAR
STARTCHAR Uogonek
ENCODING 370
SWIDTH 846 0
DWIDTH 14 0
BBX 13 17 0 -5
BITMAP
05545540
2C01D000
7C07D000
7C07D000
7C07D000
7C07D000
7C07D000
7C07D000
7C038000
7C000400
7D015000
3F400100
2FF52800
0BF50400
00F80000
00FFE000
00BF8000
ENDCHAR
STARTCHAR uogonek
ENCODING 371
SWIDTH 846 0
DWIDTH 14 0
BBX 13 17 0 -5
BITMAP
05545540
2C01D000
7C07D000
7C07D000
7C07D000
7C07D000
7C07D000
7C07D000
7C038000
7C000400
7D015000
3F400100
2FF52800
0BF50400
00F80000
00FFE000
00BF8000
ENDCHAR
STARTCHAR Wcircumflex
ENCODING 372
SWIDTH 931 0
DWIDTH 15 0
BBX 15 18 0 -2
BITMAP
00014000
00111100
01C00000
03DBF900
095BF950
28007804
78007844
7800B844
78016844
78080844
78040444
78000044
7C004040
7D04C400
7E11D100
3F02E000
2FFBFF40
1FE2FD00
ENDCHAR
STARTCHAR wcircumflex
ENCODING 373
SWIDTH 931 0
DWIDTH 15 0
BBX 15 18 0 -2
BITMAP
00014000
00111100
01C00000
03DBF900
095BF950
28007804
78007844
7800B844
78016844
78080844
78040444
78000044
7C004040
7D04C400
7E11D100
3F02E000
2FFBFF40
1FE2FD00
ENDCHAR
STARTCHAR Ycircumflex
ENCODING 374
SWIDTH 805 0
DWIDTH 13 0
BBX 13 18 0 -2
BITMAP
00054000
00545400
07000000
0F064000
091FD140
2806C000
B847C000
B84BC000
B84B8400
BC030000
BE000100
7F410000
2FC00000
0FE00000
07E00000
02E00000
02FF8000
01FE0000
ENDCHAR
STARTCHAR ycircumflex
ENCODING 375
SWIDTH 805 0
DWIDTH 13 0
BBX 13 18 0 -2
BITMAP
00054000
00545400
07000000
0F064000
091FD140
2806C000
B847C000
B84BC000
B84B8400
BC030000
BE000100
7F410000
2FC00000
0FE00000
07E00000
02E00000
02FF8000
01FE0000
ENDCHAR
STARTCHAR Ydieresis
ENCODING 376
SWIDTH 805 0
DWIDTH 13 0
BBX 13 18 0 -2
BITMAP
00040000
06020000
1E030000
2E030000
1EAFEA40
280BC000
B847C000
B84BC000
B8478400
B8020000
BD000000
7F410000
2FC00000
0FE00000
07E00000
02E00000
02FF8000
01FE0000
ENDCHAR
STARTCHAR Zacute
ENCODING 377
SWIDTH 760 0
DWIDTH 12 0
BBX 12 18 0 -2
BITMAP
001554
025040
0B0000
1F1590
1D5555
2C0000
7C0000
7C0010
7FF444
7FE000
008000
020000
081100
284001
780001
B80000
BFFFF8
BFFFE0
ENDCHAR
STARTCHAR zacute
ENCODING 378
SWIDTH 760 0
DWIDTH 12 0
BBX 12 18 0 -2
BITMAP
001554
025040
0B0000
1F1590
1D5555
2C0000
7C0000
7C0010
7FF444
7FE000
008000
020000
081100
284001
780001
B80000
BFFFF8
BFFFE0
ENDCHAR
STARTCHAR Zdotaccent
ENCODING 379
SWIDTH 760 0
DWIDTH 12 0
BBX 12 18 0 -2
BITMAP
001040
009000
02D000
03D000
055555
1C0000
7C0000
7C0010
7FF444
7FE000
008000
020000
081100
284001
780001
B80000
BFFFF8
BFFFE0
ENDCHAR
STARTCHAR zdotaccent
ENCODING 380
SWIDTH 760 0
DWIDTH 12 0
BBX 12 18 0 -2
BITMAP
001040
009000
02D000
03D000
055555
1C0000
7C0000
7C0010
7FF444
7FE000
008000
020000
081100
284001
780001
B80000
BFFFF8
BFFFE0
ENDCHAR
STARTCHAR Zcaron
ENCODING 381
SWIDTH 760 0
DWIDTH 12 0
BBX 12 18 0 -2
BITMAP
029000
0A1540
1E0000
1F9050
1D5555
180000
7C0000
7C0010
7FF444
7FE000
008000
020000
081100
284001
780001
B80000
BFFFF8
BFFFE0
ENDCHAR
STARTCHAR zcaron
ENCODING 382
SWIDTH 760 0
DWIDTH 12 0
BBX 12 18 0 -2
BITMAP
029000
0A1540
1E0000
1F9050
1D5555
180000
7C0000
7C0010
7FF444
7FE000
008000
020000
081100
284001
780001
B80000
BFFFF8
BFFFE0
ENDCHAR
STARTCHAR Schwa
ENCODING 399
SWIDTH 815 0
DWIDTH 13 0
BBX 13 14 0 -2
BITMAP
01555000
0B005000
1F000440
1FFFC400
1D554000
18000000
78555400
B8000000
B80BC000
B8410000
BD100000
7F400500
3FFFF400
0AFF8000
ENDCHAR
STARTCHAR florin
ENCODING 402
SWIDTH 674 0
DWIDTH 11 0
BBX 11 14 0 -2
BITMAP
000150
005004
018104
078460
064050
180004
785504
B80000
BF8090
690440
781000
B80400
BFF400
BF8000
ENDCHAR
STARTCHAR Ohorn
ENCODING 416
SWIDTH 847 0
DWIDTH 14 0
BBX 14 15 0 -2
BITMAP
00000810
00000010
01001400
1C000400
38068400
780BC000
7807C000
7807C000
7807C000
7807C000
7C000400
7D000040
7F400500
3FFFF400
0AFF9000
ENDCHAR
STARTCHAR ohorn
ENCODING 417
SWIDTH 847 0
DWIDTH 14 0
BBX 14 15 0 -2
BITMAP
00000810
00000010
01001400
1C000400
38068400
780BC000
7807C000
7807C000
7807C000
7807C000
7C000400
7D000040
7F400500
3FFFF400
0AFF9000
ENDCHAR
STARTCHAR Uhorn
ENCODING 431
SWIDTH 856 0
DWIDTH 14 0
BBX 14 16 0 -2
BITMAP
00000100
00001800
05545050
2C01D110
7C07D040
7C07D000
7C07D000
7C07D000
7C07D000
7C07D000
7C038000
7C000440
7D001040
7F400500
2FFFF400
06FF9000
ENDCHAR
STARTCHAR uhorn
ENCODING 432
SWIDTH 856 0
DWIDTH 14 0
BBX 14 16 0 -2
BITMAP
00000100
00001800
05545050
2C01D110
7C07D040
7C07D000
7C07D000
7C07D000
7C07D000
7C07D000
7C038000
7C000440
7D001040
7F400500
2FFFF400
06FF9000
ENDCHAR
STARTCHAR Acaron
ENCODING 461
SWIDTH 830 0
DWIDTH 13 0
BBX 13 18 0 -2
BITMAP
01A00400
07454000
0F400000
0FE45000
0BD55400
02400000
03044100
0A020100
0D074000
1C078040
28000000
78555400
78000000
B80BC000
B80BC000
B807C000
BFD7FE00
7F43F800
ENDCHAR
STARTCHAR acaron
ENCODING 462
SWIDTH 830 0
DWIDTH 13 0
BBX 13 18 0 -2
BITMAP
01A00400
07454000
0F400000
0FE45000
0BD55400
02400000
03044100
0A020100
0D074000
1C078040
28000000
78555400
78000000
B80BC000
B80BC000
B807C000
BFD7FE00
7F43F800
ENDCHAR
STARTCHAR Icaron
ENCODING 463
SWIDTH 705 0
DWIDTH 11 0
BBX 11 18 0 -2
BITMAP
068010
1D1500
3D0000
3F9140
295554
280000
780404
BF8064
7FC050
07C000
07C000
07C000
064000
180000
780400
B80000
BFFFE0
7FFF80
ENDCHAR
STARTCHAR icaron
ENCODING 464
SWIDTH 705 0
DWIDTH 11 0
BBX 11 18 0 -2
BITMAP
068010
1D1500
3D0000
3F9140
295554
280000
780404
BF8064
7FC050
07C000
07C000
07C000
064000
180000
780400
B80000
BFFFE0
7FFF80
ENDCHAR
STARTCHAR Ocaron
ENCODING 465
SWIDTH 837 0
DWIDTH 13 0
BBX 13 19 0 -2
BITMAP
00000400
01404000
07400000
0F814000
0FF46400
0B955000
05000000
1C000440
38068000
780BC000
7807C000
7807C000
7807C000
7807C000
7C000440
7D001040
7F400500
2FFFF400
06FF9000
ENDCHAR
STARTCHAR ocaron
ENCODING 466
SWIDTH 837 0
DWIDTH 13 0
BBX 13 19 0 -2
BITMAP
00000400
01404000
07400000
0F814000
0FF46400
0B955000
05000000
1C000440
38068000
780BC000
7807C000
7807C000
7807C000
7807C000
7C000440
7D001040
7F400500
2FFFF400
06FF9000
ENDCHAR
STARTCHAR Ucaron
ENCODING 467
SWIDTH 846 0
DWIDTH 14 0
BBX 13 19 0 -2
BITMAP
00000400
01404000
07400000
0B814000
0BF45000
095BD540
2C05D000
7C07D000
7C07D000
7C07D000
7C07D000
7C07D000
7C07D000
7C038000
7C000400
7D001040
3F400500
2FFFF400
06FF9000
ENDCHAR
STARTCHAR ucaron
ENCODING 468
SWIDTH 846 0
DWIDTH 14 0
BBX 13 19 0 -2
BITMAP
00000400
01404000
07400000
0B814000
0BF45000
095BD540
2C05D000
7C07D000
7C07D000
7C07D000
7C07D000
7C07D000
7C07D000
7C038000
7C000400
7D001040
3F400500
2FFFF400
06FF9000
ENDCHAR
STARTCHAR Udieresismacron
ENCODING 469
SWIDTH 846 0
DWIDTH 14 0
BBX 13 21 0 -2
BITMAP
00555400
02454000
0B400000
0BAAA800
0B024000
0B024000
0F024000
0EAFEA80
1C07D000
7C07D000
7C07D000
7C07D000
7C07D000
7C07D000
7C07D000
7C07C000
7C000400
7D001040
3F400500
2FFFF400
06FF9000
ENDCHAR
STARTCHAR udieresismacron
ENCODING 470
SWIDTH 846 0
DWIDTH 14 0
BBX 13 21 0 -2
BITMAP
00555400
02454000
0B400000
0BAAA800
0B024000
0B024000
0F024000
0EAFEA80
1C07D000
7C07D000
7C07D000
7C07D000
7C07D000
7C07D000
7C07D000
7C07C000
7C000400
7D001040
3F400500
2FFFF400
06FF9000
ENDCHAR
STARTCHAR Udieresisacute
ENCODING 471
SWIDTH 846 0
DWIDTH 14 0
BBX 13 22 0 -2
BITMAP
00005000
00055000
00280000
00B80000
006A9000
03024000
0F024000
0F024000
0EAFEA80
2C07D000
7C07D000
7C07D000
7C07D000
7C07D000
7C07D000
7C07D000
7C07C000
7C000400
7D001040
3F400500
2FFFF400
06FF9000
ENDCHAR
STARTCHAR udieresisacute
ENCODING 472
SWIDTH 846 0
DWIDTH 14 0
BBX 13 22 0 -2
BITMAP
00005000
00055000
00280000
00B80000
006A9000
03024000
0F024000
0F024000
0EAFEA80
2C07D000
7C07D000
7C07D000
7C07D000
7C07D000
7C07D000
7C07D000
7C07C000
7C000400
7D001040
3F400500
2FFFF400
06FF9000
ENDCHAR
STARTCHAR Udieresiscaron
ENCODING 473
SWIDTH 846 0
DWIDTH 14 0
BBX 13 22 0 -2
BITMAP
00500400
02450000
0B410000
0BE41400
0BAAA000
07024000
0B024000
0F024000
0EAFEA80
1C07D000
7C07D000
7C07D000
7C07D000
7C07D000
7C07D000
7C07D000
7C07C000
7C000400
7D001040
3F400500
2FFFF400
06FF9000
ENDCHAR
STARTCHAR udieresiscaron
ENCODING 474
SWIDTH 846 0
DWIDTH 14 0
BBX 13 22 0 -2
BITMAP
00500400
02450000
0B410000
0BE41400
0BAAA000
07024000
0B024000
0F024000
0EAFEA80
1C07D000
7C07D000
7C07D000
7C07D000
7C07D000
7C07D000
7C07D000
7C07C000
7C000400
7D001040
3F400500
2FFFF400
06FF9000
ENDCHAR
STARTCHAR Udieresisgrave
ENCODING 475
SWIDTH 846 0
DWIDTH 14 0
BBX 13 22 0 -2
BITMAP
00050000
00215000
00F00000
01F40000
01AB4000
03024000
0F024000
0F024000
0EAFEA80
2C07D000
7C07D000
7C07D000
7C07D000
7C07D000
7C07D000
7C07D000
7C07C000
7C000400
7D001040
3F400500
2FFFF400
06FF9000
ENDCHAR
STARTCHAR udieresisgrave
ENCODING 476
SWIDTH 846 0
DWIDTH 14 0
BBX 13 22 0 -2
BITMAP
00050000
00215000
00F00000
01F40000
01AB4000
03024000
0F024000
0F024000
0EAFEA80
2C07D000
7C07D000
7C07D000
7C07D000
7C07D000
7C07D000
7C07D000
7C07C000
7C000400
7D001040
3F400500
2FFFF400
06FF9000
ENDCHAR
STARTCHAR Gcaron
ENCODING 486
SWIDTH 808 0
DWIDTH 13 0
BBX 13 18 0 -2
BITMAP
01A00400
07054000
0F400000
0FE45000
0F955400
01000000
08140000
28000000
7807F000
78059000
78018040
78078040
78078040
7C400040
7D000040
7F400000
2FFFFE00
0BFFF800
ENDCHAR
STARTCHAR gcaron
ENCODING 487
SWIDTH 808 0
DWIDTH 13 0
BBX 13 18 0 -2
BITMAP
01A00400
07054000
0F400000
0FE45000
0F955400
01000000
08140000
28000000
7807F000
78059000
78018040
78078040
78078040
7C400040
7D000040
7F400000
2FFFFE00
0BFFF800
ENDCHAR
STARTCHAR Scommaaccent
ENCODING 536
SWIDTH 750 0
DWIDTH 12 0
BBX 12 20 0 -8
BITMAP
005554
040000
280000
780BF4
B80154
B81401
BD0041
7FE901
2D5500
180000
780000
B80000
BFEA90
7FD010
02D000
03F900
03E100
01FA40
02FD00
015000
ENDCHAR
STARTCHAR scommaaccent
ENCODING 537
SWIDTH 750 0
DWIDTH 12 0
BBX 12 20 0 -8
BITMAP
005554
040000
280000
780BF4
B80154
B81401
BD0041
7FE901
2D5500
180000
780000
B80000
BFEA90
7FD010
02D000
03F900
03E100
01FA40
02FD00
015000
ENDCHAR
STARTCHAR uni021A
ENCODING 538
SWIDTH 756 0
DWIDTH 12 0
BBX 12 20 0 -8
BITMAP
155555
740100
F40000
FFD03D
BFD034
03D000
03D000
03D000
03D000
03D000
03D000
03D000
03FA40
03D000
02D000
03E900
03D040
02EA40
02FD00
015000
ENDCHAR
STARTCHAR uni021B
ENCODING 539
SWIDTH 756 0
DWIDTH 12 0
BBX 12 20 0 -8
BITMAP
155555
740100
F40000
FFD03D
BFD034
03D000
03D000
03D000
03D000
03D000
03D000
03D000
03FA40
03D000
02D000
03E900
03D040
02EA40
02FD00
015000
ENDCHAR
STARTCHAR dotlessj
ENCODING 567
SWIDTH 788 0
DWIDTH 13 0
BBX 12 14 0 -2
BITMAP
000155
000700
000F00
000F00
000F00
055F00
280F00
B80F00
B80B00
B84010
BC0141
BE4014
3FFFE0
0BFE40
ENDCHAR
STARTCHAR ascript
ENCODING 593
SWIDTH 846 0
DWIDTH 14 0
BBX 13 14 0 -2
BITMAP
00555400
01000000
1C000440
38064000
780BC000
7807C000
7807C000
7807C000
7807C000
7C000000
7D000400
7F400000
3FFFFE40
0BFFF800
ENDCHAR
STARTCHAR schwa
ENCODING 601
SWIDTH 815 0
DWIDTH 13 0
BBX 13 14 0 -2
BITMAP
01555000
0B005000
1F000440
1FFFC400
1D554000
18000000
78555400
B8000000
B80BC000
B8410000
BD100000
7F400500
3FFFF400
0AFF8000
ENDCHAR
STARTCHAR gscript
ENCODING 609
SWIDTH 815 0
DWIDTH 13 0
BBX 13 15 0 -3
BITMAP
00555400
05001000
18000400
780B8000
780BC000
B8014000
B8400000
BD100400
7F400000
3FFF8000
07550000
0B000040
1F000500
1FFFF400
0FFF8000
ENDCHAR
STARTCHAR commaturnedmod
ENCODING 699
SWIDTH 600 0
DWIDTH 10 0
BBX 7 7 1 5
BITMAP
0154
0864
2C04
7C40
7C00
7FE0
7F80
ENDCHAR
STARTCHAR apostrophemod
ENCODING 700
SWIDTH 600 0
DWIDTH 10 0
BBX 7 8 1 4
BITMAP
0100
1C00
3C00
7E80
7D44
2EA0
3F80
1500
ENDCHAR
STARTCHAR ringhalfright
ENCODING 702
SWIDTH 412 0
DWIDTH 7 0
BBX 7 8 0 4
BITMAP
1550
7444
FF04
B904
2440
B400
FFC0
BE00
ENDCHAR
STARTCHAR ringhalfleft
ENCODING 703
SWIDTH 412 0
DWIDTH 7 0
BBX 7 8 0 4
BITMAP
0554
1400
7510
B510
F404
F800
BFE0
6F80
ENDCHAR
STARTCHAR circumflex
ENCODING 710
SWIDTH 600 0
DWIDTH 10 0
BBX 10 6 0 10
BITMAP
001000
040400
240000
BABE50
BFFF40
501500
ENDCHAR
STARTCHAR caron
ENCODING 711
SWIDTH 600 0
DWIDTH 10 0
BBX 9 6 0 10
BITMAP
0A4040
745400
B80000
BE4140
BFFD00
1B9000
ENDCHAR
STARTCHAR verticallinemod
ENCODING 712
SWIDTH 456 0
DWIDTH 7 0
BBX 7 8 0 4
BITMAP
0554
2800
7800
7800
7800
7C00
7FE0
7F80
ENDCHAR
STARTCHAR firsttonechinese
ENCODING 713
SWIDTH 600 0
DWIDTH 10 0
BBX 10 5 0 10
BITMAP
040000
240000
B80010
BFFF80
BFFD00
ENDCHAR
STARTCHAR secondtonechinese
ENCODING 714
SWIDTH 600 0
DWIDTH 10 0
BBX 9 5 0 10
BITMAP
040000
240000
B85640
BFFE00
AA5000
ENDCHAR
STARTCHAR fourthtonechinese
ENCODING 715
SWIDTH 600 0
DWIDTH 10 0
BBX 10 6 0 10
BITMAP
040000
240000
B40000
BE9510
BFFF80
15A900
ENDCHAR
STARTCHAR verticallinelowmod
ENCODING 716
SWIDTH 456 0
DWIDTH 7 0
BBX 7 8 0 -4
BITMAP
0554
2800
7800
7800
7800
7C00
7FE0
7F80
ENDCHAR
STARTCHAR breve
ENCODING 728
SWIDTH 600 0
DWIDTH 10 0
BBX 10 6 0 10
BITMAP
054540
240400
B80010
FD0040
BFFE00
2FE400
ENDCHAR
STARTCHAR dotaccent
ENCODING 729
SWIDTH 600 0
DWIDTH 10 0
BBX 7 6 1 10
BITMAP
0100
0C00
3C00
7C04
7FF0
3F80
ENDCHAR
STARTCHAR ring
ENCODING 730
SWIDTH 600 0
DWIDTH 10 0
BBX 9 9 0 10
BITMAP
005500
040000
250000
B53800
B53800
F84000
FD0140
BFFE00
2FE400
ENDCHAR
STARTCHAR ogonek
ENCODING 731
SWIDTH 600 0
DWIDTH 10 0
BBX 6 7 2 -5
BITMAP
0500
2500
B110
F100
F400
FFD0
BF40
ENDCHAR
STARTCHAR tilde
ENCODING 732
SWIDTH 600 0
DWIDTH 10 0
BBX 9 6 0 10
BITMAP
001140
040000
745400
B95040
BFFF40
AAF800
ENDCHAR
STARTCHAR hungarumlaut
ENCODING 733
SWIDTH 600 0
DWIDTH 10 0
BBX 11 7 -1 10
BITMAP
000040
060604
1D4D04
2C0D00
3C1C10
7FFFD0
7E7E00
ENDCHAR
STARTCHAR gravecmb
ENCODING 768
SWIDTH 100 0
DWIDTH 2 0
BBX 10 6 -4 10
BITMAP
040000
240000
B40000
BE9510
BFFF80
15A900
ENDCHAR
STARTCHAR acutecmb
ENCODING 769
SWIDTH 100 0
DWIDTH 2 0
BBX 9 5 -4 10
BITMAP
040000
240000
B85640
BFFE00
AA5000
ENDCHAR
STARTCHAR circumflexcmb
ENCODING 770
SWIDTH 100 0
DWIDTH 2 0
BBX 10 6 -4 10
BITMAP
001000
040400
240000
BABE50
BFFF40
501500
ENDCHAR
STARTCHAR tildecmb
ENCODING 771
SWIDTH 100 0
DWIDTH 2 0
BBX 9 6 -4 10
BITMAP
001140
040000
785400
B95040
BFFF40
AAF800
ENDCHAR
STARTCHAR uni0304
ENCODING 772
SWIDTH 600 0
DWIDTH 10 0
BBX 10 5 0 10
BITMAP
040000
240000
B80010
BFFF80
BFFD00
ENDCHAR
STARTCHAR brevecmb
ENCODING 774
SWIDTH 100 0
DWIDTH 2 0
BBX 10 6 -4 10
BITMAP
054540
240400
B80010
FD0040
BFFE00
2FE400
ENDCHAR
STARTCHAR dotaccentcmb
ENCODING 775
SWIDTH 100 0
DWIDTH 2 0
BBX 7 6 -3 10
BITMAP
0100
0C00
3C00
7C04
7FF0
3F80
ENDCHAR
STARTCHAR dieresiscmb
ENCODING 776
SWIDTH 100 0
DWIDTH 2 0
BBX 9 6 -4 10
BITMAP
040400
201400
B02400
F42400
FFFF80
FEBE00
ENDCHAR
STARTCHAR hookcmb
ENCODING 777
SWIDTH 100 0
DWIDTH 2 0
BBX 8 7 -3 10
BITMAP
0154
1C01
7E94
7E00
1F14
1FE0
1940
ENDCHAR
STARTCHAR ringcmb
ENCODING 778
SWIDTH 100 0
DWIDTH 2 0
BBX 9 9 -4 10
BITMAP
005500
040000
250000
B53800
B53800
F84000
FD0140
BFFE00
2FE400
ENDCHAR
STARTCHAR hungarumlautcmb
ENCODING 779
SWIDTH 100 0
DWIDTH 2 0
BBX 11 7 -4 10
BITMAP
010100
090904
2C5C40
382C10
782810
BFFF80
BD7E00
ENDCHAR
STARTCHAR caroncmb
ENCODING 780
SWIDTH 100 0
DWIDTH 2 0
BBX 9 6 -4 10
BITMAP
0A4040
745400
B80000
BE4140
BFFD00
1B9000
ENDCHAR
STARTCHAR horncmb
ENCODING 795
SWIDTH 100 0
DWIDTH 2 0
BBX 5 7 -3 7
BITMAP
0100
0500
1C40
3C00
7E80
7E00
5400
ENDCHAR
STARTCHAR dotbelowcmb
ENCODING 803
SWIDTH 100 0
DWIDTH 2 0
BBX 7 6 -3 -6
BITMAP
0100
0C00
3C00
7C04
7FF0
3F80
ENDCHAR
STARTCHAR dieresisbelowcmb
ENCODING 804
SWIDTH 100 0
DWIDTH 2 0
BBX 9 6 -4 -6
BITMAP
040400
201400
B02400
F42400
FFFF80
FEBE00
ENDCHAR
STARTCHAR commaaccent
ENCODING 806
SWIDTH 600 0
DWIDTH 10 0
BBX 7 8 1 -8
BITMAP
0100
1C00
3C00
7E80
7D44
2EA0
3F80
1500
ENDCHAR
STARTCHAR cedillacmb
ENCODING 807
SWIDTH 100 0
DWIDTH 2 0
BBX 7 7 -3 -4
BITMAP
0140
0604
1D04
2C04
3800
7FD0
BF40
ENDCHAR
STARTCHAR ogonekcmb
ENCODING 808
SWIDTH 100 0
DWIDTH 2 0
BBX 6 7 -2 -5
BITMAP
0540
1810
7510
B400
B800
BFE0
7F80
ENDCHAR
STARTCHAR brevebelowcmb
ENCODING 814
SWIDTH 100 0
DWIDTH 2 0
BBX 10 6 -4 -6
BITMAP
054540
240400
B80010
FD0040
BFFE00
2FE400
ENDCHAR
STARTCHAR macronbelowcmb
ENCODING 817
SWIDTH 100 0
DWIDTH 2 0
BBX 10 5 -4 -5
BITMAP
040000
280000
B80010
BFFF80
BFFD00
ENDCHAR
STARTCHAR uni0394
ENCODING 916
SWIDTH 830 0
DWIDTH 13 0
BBX 13 14 0 -2
BITMAP
00555000
01400000
07440100
0F111100
0E134100
1D034000
2D078440
3C0BC000
380BC000
78000000
78000400
B8000040
BFFFFF00
7FFFF800
ENDCHAR
STARTCHAR uni03A9
ENCODING 937
SWIDTH 877 0
DWIDTH 14 0
BBX 14 14 0 -2
BITMAP
00100100
01000040
09100400
2C028000
3C07D000
3C07D000
3C02D000
3C02D000
3D03D040
34118410
74018000
B4018010
BFFFFFD0
BFEBFE00
ENDCHAR
STARTCHAR uni03BC
ENCODING 956
SWIDTH 813 0
DWIDTH 13 0
BBX 12 14 0 -4
BITMAP
010000
180180
780780
780B80
780B80
780B80
784780
784000
780000
780005
780BF4
7EAF80
7F8000
150000
ENDCHAR
STARTCHAR pi
ENCODING 960
SWIDTH 821 0
DWIDTH 13 0
BBX 13 11 0 -2
BITMAP
08000000
38155400
78000000
780B8000
780B8000
780B8000
780B8000
780B8000
7C0B8040
7FEBFE00
7F87F800
ENDCHAR
STARTCHAR Ddotbelow
ENCODING 7692
SWIDTH 846 0
DWIDTH 14 0
BBX 13 18 0 -6
BITMAP
05555500
2C000040
7C000040
7C010400
7C07D000
7C07D000
7C03D000
7C03D000
7C028000
7C000440
7C000040
7C000100
7FAAA800
7FF01000
00F01000
01F01000
01FFC000
00FE0000
ENDCHAR
STARTCHAR ddotbelow
ENCODING 7693
SWIDTH 846 0
DWIDTH 14 0
BBX 13 18 0 -6
BITMAP
05555500
2C000040
7C000040
7C010400
7C07D000
7C07D000
7C03D000
7C03D000
7C028000
7C000440
7C000040
7C000100
7FAAA800
7FF01000
00F01000
01F01000
01FFC000
00FE0000
ENDCHAR
STARTCHAR Dlinebelow
ENCODING 7694
SWIDTH 846 0
DWIDTH 14 0
BBX 13 18 0 -6
BITMAP
05555500
2C000040
7C000040
7C010400
7C07D000
7C07D000
7C03D000
7C03D000
7C028000
7C000440
7C000040
7C000100
7FFFF800
7F400000
07400000
0F400000
0FFFF400
0BFFD000
ENDCHAR
STARTCHAR dlinebelow
ENCODING 7695
SWIDTH 846 0
DWIDTH 14 0
BBX 13 18 0 -6
BITMAP
05555500
2C000040
7C000040
7C010400
7C07D000
7C07D000
7C03D000
7C03D000
7C028000
7C000440
7C000040
7C000100
7FFFF800
7F400000
07400000
0F400000
0FFFF400
0BFFD000
ENDCHAR
STARTCHAR Gmacron
ENCODING 7712
SWIDTH 808 0
DWIDTH 13 0
BBX 13 17 0 -2
BITMAP
00400000
01800000
07800000
0BEAA900
0A000100
04140000
2C000000
7807F000
78059000
78018040
78078040
78078040
7C400040
7D000040
7F400000
2FFFFE00
0BFFF800
ENDCHAR
STARTCHAR gmacron
ENCODING 7713
SWIDTH 808 0
DWIDTH 13 0
BBX 13 17 0 -2
BITMAP
00400000
01800000
07800000
0BEAA900
0A000100
04140000
2C000000
7807F000
78059000
78018040
78078040
78078040
7C400040
7D000040
7F400000
2FFFFE00
0BFFF800
ENDCHAR
STARTCHAR Hdotbelow
ENCODING 7716
SWIDTH 859 0
DWIDTH 14 0
BBX 13 18 0 -6
BITMAP
05541540
2C01D000
7C03D000
7C03D000
7C028000
7C000000
7C400400
7C000000
7C07D000
7C07D000
7C03D000
7C07D000
7FE6AF40
7FF01D00
00F00000
00F01000
00FFD000
00FE0000
ENDCHAR
STARTCHAR hdotbelow
ENCODING 7717
SWIDTH 859 0
DWIDTH 14 0
BBX 13 18 0 -6
BITMAP
05541540
2C01D000
7C03D000
7C03D000
7C028000
7C000000
7C400400
7C000000
7C07D000
7C07D000
7C03D000
7C07D000
7FE6AF40
7FF01D00
00F00000
00F01000
00FFD000
00FE0000
ENDCHAR
STARTCHAR Hbrevebelow
ENCODING 7722
SWIDTH 859 0
DWIDTH 14 0
BBX 13 18 0 -6
BITMAP
05541540
2C01D000
7C03D000
7C03D000
7C028000
7C000000
7C400400
7C000000
7C07D000
7C07D000
7C03D000
7C07D040
7FE7EA00
7F438000
07900000
0BC14000
0BFA9000
02FE4000
ENDCHAR
STARTCHAR hbrevebelow
ENCODING 7723
SWIDTH 859 0
DWIDTH 14 0
BBX 13 18 0 -6
BITMAP
05541540
2C01D000
7C03D000
7C03D000
7C028000
7C000000
7C400400
7C000000
7C07D000
7C07D000
7C03D000
7C07D040
7FE7EA00
7F438000
07900000
0BC14000
0BFA9000
02FE4000
ENDCHAR
STARTCHAR Ldotbelow
ENCODING 7734
SWIDTH 795 0
DWIDTH 13 0
BBX 13 18 0 -6
BITMAP
05540000
2C000000
7C000000
7C000000
7C000000
7C001500
7C018040
7C078040
7C078040
7C000040
7C000040
7C000000
7FAAA900
7FF02400
01E00000
01F01000
01FF8000
01FE0000
ENDCHAR
STARTCHAR ldotbelow
ENCODING 7735
SWIDTH 795 0
DWIDTH 13 0
BBX 13 18 0 -6
BITMAP
05540000
2C000000
7C000000
7C000000
7C000000
7C001500
7C018040
7C078040
7C078040
7C000040
7C000040
7C000000
7FAAA900
7FF02400
01E00000
01F01000
01FF8000
01FE0000
ENDCHAR
STARTCHAR Ldotbelowmacron
ENCODING 7736
SWIDTH 795 0
DWIDTH 13 0
BBX 13 21 0 -6
BITMAP
00400000
03000000
0F000400
0EAFF400
1C068000
3C000000
7C000000
7C000000
7C001500
7C018040
7C078040
7C078040
7C000040
7C000040
7C000000
7FAAA900
7FF02400
01E00000
01F01000
01FF8000
01FE0000
ENDCHAR
STARTCHAR ldotbelowmacron
ENCODING 7737
SWIDTH 795 0
DWIDTH 13 0
BBX 13 21 0 -6
BITMAP
00400000
03000000
0F000400
0EAFF400
1C068000
3C000000
7C000000
7C000000
7C001500
7C018040
7C078040
7C078040
7C000040
7C000040
7C000000
7FAAA900
7FF02400
01E00000
01F01000
01FF8000
01FE0000
ENDCHAR
STARTCHAR Llinebelow
ENCODING 7738
SWIDTH 795 0
DWIDTH 13 0
BBX 13 17 0 -5
BITMAP
05540000
2C000000
7C000000
7C000000
7C000000
7C001500
7C018040
7C078040
7C078040
7C000040
7C000040
7C000000
7FAAA900
7F054400
0F000400
1FFFF400
0FFFD000
ENDCHAR
STARTCHAR llinebelow
ENCODING 7739
SWIDTH 795 0
DWIDTH 13 0
BBX 13 17 0 -5
BITMAP
05540000
2C000000
7C000000
7C000000
7C000000
7C001500
7C018040
7C078040
7C078040
7C000040
7C000040
7C000000
7FAAA900
7F054400
0F000400
1FFFF400
0FFFD000
ENDCHAR
STARTCHAR Mdotbelow
ENCODING 7746
SWIDTH 949 0
DWIDTH 15 0
BBX 15 18 0 -6
BITMAP
05540550
2C002004
7C10A104
7C048404
7C010004
7C000004
7C040804
7C0A5804
7C0BF804
7C06B804
7C00B804
7C00B804
7FE56FE0
7F980B80
00780000
007C0400
007FE000
007F8000
ENDCHAR
STARTCHAR mdotbelow
ENCODING 7747
SWIDTH 949 0
DWIDTH 15 0
BBX 15 18 0 -6
BITMAP
05540550
2C002004
7C10A104
7C048404
7C010004
7C000004
7C040804
7C0A5804
7C0BF804
7C06B804
7C00B804
7C00B804
7FE56FE0
7F980B80
00780000
007C0400
007FE000
007F8000
ENDCHAR
STARTCHAR Ndotaccent
ENCODING 7748
SWIDTH 853 0
DWIDTH 14 0
BBX 13 18 0 -2
BITMAP
00040000
00700000
00F00000
01F01000
055FD540
2C07D000
7C51D000
7C009000
7C000000
7C000000
7C040000
7C0A1000
7C0B4400
7C0BC000
7C0BD000
7C07D000
7FE3FE40
7F83FC00
ENDCHAR
STARTCHAR ndotaccent
ENCODING 7749
SWIDTH 853 0
DWIDTH 14 0
BBX 13 18 0 -2
BITMAP
00040000
00700000
00F00000
01F01000
055FD540
2C07D000
7C51D000
7C009000
7C000000
7C000000
7C040000
7C0A1000
7C0B4400
7C0BC000
7C0BD000
7C07D000
7FE3FE40
7F83FC00
ENDCHAR
STARTCHAR Ndotbelow
ENCODING 7750
SWIDTH 853 0
DWIDTH 14 0
BBX 13 18 0 -6
BITMAP
05501540
2C00D000
7C51D000
7C009000
7C000000
7C000000
7C040000
7C0A1000
7C0B4400
7C0BC000
7C0BD000
7C07D000
7FE6AE40
7FB01C00
00F00000
01F01000
01FFD000
00FE0000
ENDCHAR
STARTCHAR ndotbelow
ENCODING 7751
SWIDTH 853 0
DWIDTH 14 0
BBX 13 18 0 -6
BITMAP
05501540
2C00D000
7C51D000
7C009000
7C000000
7C000000
7C040000
7C0A1000
7C0B4400
7C0BC000
7C0BD000
7C07D000
7FE6AE40
7FB01C00
00F00000
01F01000
01FFD000
00FE0000
ENDCHAR
STARTCHAR Nlinebelow
ENCODING 7752
SWIDTH 853 0
DWIDTH 14 0
BBX 13 17 0 -5
BITMAP
05501540
2C00D000
7C51D000
7C009000
7C000000
7C000000
7C040000
7C0A1000
7C0B4400
7C0BC000
7C07D000
7C07D040
7FE6AB40
7F854000
07800100
0BFFF800
0BFFE000
ENDCHAR
STARTCHAR nlinebelow
ENCODING 7753
SWIDTH 853 0
DWIDTH 14 0
BBX 13 17 0 -5
BITMAP
05501540
2C00D000
7C51D000
7C009000
7C000000
7C000000
7C040000
7C0A1000
7C0B4400
7C0BC000
7C07D000
7C07D040
7FE6AB40
7F854000
07800100
0BFFF800
0BFFE000
ENDCHAR
STARTCHAR Rdotbelow
ENCODING 7770
SWIDTH 843 0
DWIDTH 13 0
BBX 13 18 0 -6
BITMAP
05555400
2C000100
7C000000
7C074000
7C074000
7C000100
7C401040
7C000000
7C07D000
7C07D000
7C07D000
7C02D000
7FE5AF40
7FA40D00
00B40000
00F41000
00FFD000
00BE4000
ENDCHAR
STARTCHAR rdotbelow
ENCODING 7771
SWIDTH 843 0
DWIDTH 13 0
BBX 13 18 0 -6
BITMAP
05555400
2C000100
7C000000
7C074000
7C074000
7C000100
7C401040
7C000000
7C07D000
7C07D000
7C07D000
7C02D000
7FE5AF40
7FA40D00
00B40000
00F41000
00FFD000
00BE4000
ENDCHAR
STARTCHAR Rdotbelowmacron
ENCODING 7772
SWIDTH 843 0
DWIDTH 13 0
BBX 13 20 0 -6
BITMAP
06000000
1E000400
1EAAA400
1C000100
2C000000
7C074000
7C074000
7C000100
7C401040
7C000000
7C07D000
7C07D000
7C07D000
7C02D000
7FE5AF40
7FA40D00
00B40000
00F41000
00FFD000
00BE4000
ENDCHAR
STARTCHAR rdotbelowmacron
ENCODING 7773
SWIDTH 843 0
DWIDTH 13 0
BBX 13 20 0 -6
BITMAP
06000000
1E000400
1EAAA400
1C000100
2C000000
7C074000
7C074000
7C000100
7C401040
7C000000
7C07D000
7C07D000
7C07D000
7C02D000
7FE5AF40
7FA40D00
00B40000
00F41000
00FFD000
00BE4000
ENDCHAR
STARTCHAR Rlinebelow
ENCODING 7774
SWIDTH 843 0
DWIDTH 13 0
BBX 13 17 0 -5
BITMAP
05555400
2C000100
7C000000
7C074000
7C074000
7C000100
7C405040
7C000000
7C07D000
7C07D000
7C07D000
7C06E000
7FA5AB40
7F454100
0B400100
0BFFF800
0BFFD000
ENDCHAR
STARTCHAR rlinebelow
ENCODING 7775
SWIDTH 843 0
DWIDTH 13 0
BBX 13 17 0 -5
BITMAP
05555400
2C000100
7C000000
7C074000
7C074000
7C000100
7C405040
7C000000
7C07D000
7C07D000
7C07D000
7C06E000
7FA5AB40
7F454100
0B400100
0BFFF800
0BFFD000
ENDCHAR
STARTCHAR Sdotaccent
ENCODING 7776
SWIDTH 750 0
DWIDTH 12 0
BBX 12 18 0 -2
BITMAP
001040
009000
02D000
03D000
025554
040000
180000
380554
7806A0
B84004
BC0001
7F9411
3FFF01
180010
380001
B80004
BFFFE0
7FFE40
ENDCHAR
STARTCHAR sdotaccent
ENCODING 7777
SWIDTH 750 0
DWIDTH 12 0
BBX 12 18 0 -2
BITMAP
001040
009000
02D000
03D000
025554
040000
180000
380554
7806A0
B84004
BC0001
7F9411
3FFF01
180010
380001
B80004
BFFFE0
7FFE40
ENDCHAR
STARTCHAR Sdotbelow
ENCODING 7778
SWIDTH 750 0
DWIDTH 12 0
BBX 12 18 0 -6
BITMAP
004554
040000
180000
780554
7806A0
B84004
BC0001
7F9411
3FFF01
180010
380000
B80004
BFAAA0
7FD000
02D000
03D000
03FF40
02FD00
ENDCHAR
STARTCHAR sdotbelow
ENCODING 7779
SWIDTH 750 0
DWIDTH 12 0
BBX 12 18 0 -6
BITMAP
004554
040000
180000
780554
7806A0
B84004
BC0001
7F9411
3FFF01
180010
380000
B80004
BFAAA0
7FD000
02D000
03D000
03FF40
02FD00
ENDCHAR
STARTCHAR Tdotbelow
ENCODING 7788
SWIDTH 756 0
DWIDTH 12 0
BBX 12 18 0 -6
BITMAP
055555
340000
F40100
F40000
FFD03C
BFD020
03D000
03D000
03D000
03D000
03D000
03D000
03EA80
03D000
02D000
03D000
03FF40
02FD00
ENDCHAR
STARTCHAR tdotbelow
ENCODING 7789
SWIDTH 756 0
DWIDTH 12 0
BBX 12 18 0 -6
BITMAP
055555
340000
F40100
F40000
FFD03C
BFD020
03D000
03D000
03D000
03D000
03D000
03D000
03EA80
03D000
02D000
03D000
03FF40
02FD00
ENDCHAR
STARTCHAR Tlinebelow
ENCODING 7790
SWIDTH 756 0
DWIDTH 12 0
BBX 12 17 0 -5
BITMAP
155555
740100
F40000
FFD03D
BFD034
03D000
03D000
03D000
03D000
03D000
03D000
03D000
03AA40
060540
1E0004
1FFFE0
1FFF80
ENDCHAR
STARTCHAR tlinebelow
ENCODING 7791
SWIDTH 756 0
DWIDTH 12 0
BBX 12 17 0 -5
BITMAP
155555
740100
F40000
FFD03D
BFD034
03D000
03D000
03D000
03D000
03D000
03D000
03D000
03AA40
060540
1E0004
1FFFE0
1FFF80
ENDCHAR
STARTCHAR Wgrave
ENCODING 7808
SWIDTH 931 0
DWIDTH 15 0
BBX 15 18 0 -2
BITMAP
00555400
01C10500
07C00100
07E95000
055BF950
2805B804
78007844
7800B844
78016844
78080844
78040444
78000044
7C004040
7D04C400
7E11D100
3F02E000
2FFBFF40
1FE2FD00
ENDCHAR
STARTCHAR wgrave
ENCODING 7809
SWIDTH 931 0
DWIDTH 15 0
BBX 15 18 0 -2
BITMAP
00555400
01C10500
07C00100
07E95000
055BF950
2805B804
78007844
7800B844
78016844
78080844
78040444
78000044
7C004040
7D04C400
7E11D100
3F02E000
2FFBFF40
1FE2FD00
ENDCHAR
STARTCHAR Wacute
ENCODING 7810
SWIDTH 931 0
DWIDTH 15 0
BBX 15 18 0 -2
BITMAP
00055500
00641000
01D00000
03D15800
055BF950
28052804
78007844
7800B844
78016844
78080844
78040444
78000044
7C004040
7D04C400
7E11D100
3F02E000
2FFBFF40
1FE2FD00
ENDCHAR
STARTCHAR wacute
ENCODING 7811
SWIDTH 931 0
DWIDTH 15 0
BBX 15 18 0 -2
BITMAP
00055500
00641000
01D00000
03D15800
055BF950
28052804
78007844
7800B844
78016844
78080844
78040444
78000044
7C004040
7D04C400
7E11D100
3F02E000
2FFBFF40
1FE2FD00
ENDCHAR
STARTCHAR Wdieresis
ENCODING 7812
SWIDTH 931 0
DWIDTH 15 0
BBX 15 18 0 -2
BITMAP
00010000
01808000
0780C000
0780C000
06AFFEA4
1807F804
78007804
7800B844
78016844
78080844
78040444
78000040
7C004040
7C04C400
7E11D100
3F02E000
2FFBFF40
1FE2FD00
ENDCHAR
STARTCHAR wdieresis
ENCODING 7813
SWIDTH 931 0
DWIDTH 15 0
BBX 15 18 0 -2
BITMAP
00010000
01808000
0780C000
0780C000
06AFFEA4
1807F804
78007804
7800B844
78016844
78080844
78040444
78000040
7C004040
7C04C400
7E11D100
3F02E000
2FFBFF40
1FE2FD00
ENDCHAR
STARTCHAR Ydotaccent
ENCODING 7822
SWIDTH 805 0
DWIDTH 13 0
BBX 13 18 0 -2
BITMAP
00100000
00600000
01E00000
02E01000
055FD540
280BC000
B807C000
B84BC000
B8478400
BC020000
BE000100
7F410000
2FC00000
0BE00000
07E00000
02E00000
02FF8000
01FE0000
ENDCHAR
STARTCHAR ydotaccent
ENCODING 7823
SWIDTH 805 0
DWIDTH 13 0
BBX 13 18 0 -2
BITMAP
00100000
00600000
01E00000
02E01000
055FD540
280BC000
B807C000
B84BC000
B8478400
BC020000
BE000100
7F410000
2FC00000
0BE00000
07E00000
02E00000
02FF8000
01FE0000
ENDCHAR
STARTCHAR Zdotbelow
ENCODING 7826
SWIDTH 760 0
DWIDTH 12 0
BBX 12 18 0 -6
BITMAP
055555
1C0000
7C0000
7C0010
7FF444
7FE000
008000
020000
081100
284001
780001
B80000
BEAAA8
BFD020
01D000
02E000
02FF40
02FD00
ENDCHAR
STARTCHAR zdotbelow
ENCODING 7827
SWIDTH 760 0
DWIDTH 12 0
BBX 12 18 0 -6
BITMAP
055555
1C0000
7C0000
7C0010
7FF444
7FE000
008000
020000
081100
284001
780001
B80000
BEAAA8
BFD020
01D000
02E000
02FF40
02FD00
ENDCHAR
STARTCHAR tdieresis
ENCODING 7831
SWIDTH 756 0
DWIDTH 12 0
BBX 12 18 0 -2
BITMAP
010004
090600
2D0600
2D0600
295555
340000
B40100
F40000
FFD03C
BFD020
03D000
03D000
03D000
03D000
03D000
03D000
03FF40
03FD00
ENDCHAR
STARTCHAR Germandbls
ENCODING 7838
SWIDTH 859 0
DWIDTH 14 0
BBX 14 14 0 -2
BITMAP
05555400
2C000100
7C000000
7C000100
7C070100
7C071000
7C061400
7C079100
7C07E100
7C060100
7C060010
7C060040
7FFFFE00
7FAFE400
ENDCHAR
STARTCHAR Adotbelow
ENCODING 7840
SWIDTH 830 0
DWIDTH 13 0
BBX 13 18 0 -6
BITMAP
00555400
01400000
03044100
0A020100
0D074000
1C078040
28000000
78555400
78000000
B80BC000
B80BC000
B807C000
BFE6AE00
7FA01800
01F01000
01F01000
01FF8000
01FE0000
ENDCHAR
STARTCHAR adotbelow
ENCODING 7841
SWIDTH 830 0
DWIDTH 13 0
BBX 13 18 0 -6
BITMAP
00555400
01400000
03044100
0A020100
0D074000
1C078040
28000000
78555400
78000000
B80BC000
B80BC000
B807C000
BFE6AE00
7FA01800
01F01000
01F01000
01FF8000
01FE0000
ENDCHAR
STARTCHAR Ahookabove
ENCODING 7842
SWIDTH 830 0
DWIDTH 13 0
BBX 13 19 0 -2
BITMAP
00154000
00904000
02FA0000
02F40000
00B55000
00D55400
01400000
03044100
0A020100
0D074000
1C078040
28000000
78555400
78000000
B80BC000
B80BC000
B807C000
BFD7FE00
7F43F800
ENDCHAR
STARTCHAR ahookabove
ENCODING 7843
SWIDTH 830 0
DWIDTH 13 0
BBX 13 19 0 -2
BITMAP
00154000
00904000
02FA0000
02F40000
00B55000
00D55400
01400000
03044100
0A020100
0D074000
1C078040
28000000
78555400
78000000
B80BC000
B80BC000
B807C000
BFD7FE00
7F43F800
ENDCHAR
STARTCHAR Acircumflexacute
ENCODING 7844
SWIDTH 830 0
DWIDTH 13 0
BBX 12 21 0 -2
BITMAP
000040
000241
000B45
000AB4
004444
024000
0BABE4
0FD554
0F4000
070440
0A0200
0D0740
1C0780
280000
785554
780000
B80BC0
B80BC0
B807C0
BFD7FE
7F43F8
ENDCHAR
STARTCHAR acircumflexacute
ENCODING 7845
SWIDTH 830 0
DWIDTH 13 0
BBX 12 21 0 -2
BITMAP
000040
000241
000B45
000AB4
004444
024000
0BABE4
0FD554
0F4000
070440
0A0200
0D0740
1C0780
280000
785554
780000
B80BC0
B80BC0
B807C0
BFD7FE
7F43F8
ENDCHAR
STARTCHAR Acircumflexgrave
ENCODING 7846
SWIDTH 830 0
DWIDTH 13 0
BBX 12 21 0 -2
BITMAP
000154
000B00
001F00
001AA8
004444
024000
0BABE4
0FD554
0F4000
070440
0A0200
0D0740
1C0780
280000
785554
780000
B80BC0
B80BC0
B807C0
BFD7FE
7F43F8
ENDCHAR
STARTCHAR acircumflexgrave
ENCODING 7847
SWIDTH 830 0
DWIDTH 13 0
BBX 12 21 0 -2
BITMAP
000154
000B00
001F00
001AA8
004444
024000
0BABE4
0FD554
0F4000
070440
0A0200
0D0740
1C0780
280000
785554
780000
B80BC0
B80BC0
B807C0
BFD7FE
7F43F8
ENDCHAR
STARTCHAR Acircumflexhookabove
ENCODING 7848
SWIDTH 830 0
DWIDTH 13 0
BBX 13 23 0 -2
BITMAP
00004000
00024500
000BA400
000FC100
0007C540
00006E00
00444000
03400000
0BABE400
0FD55400
0F400000
07044000
0A020000
0D074000
1C078000
28000000
78555400
78000000
B80BC000
B80BC000
B807C000
BFD7FE00
7F43F800
ENDCHAR
STARTCHAR acircumflexhookabove
ENCODING 7849
SWIDTH 830 0
DWIDTH 13 0
BBX 13 23 0 -2
BITMAP
00004000
00024500
000BA400
000FC100
0007C540
00006E00
00444000
03400000
0BABE400
0FD55400
0F400000
07044000
0A020000
0D074000
1C078000
28000000
78555400
78000000
B80BC000
B80BC000
B807C000
BFD7FE00
7F43F800
ENDCHAR
STARTCHAR Acircumflextilde
ENCODING 7850
SWIDTH 830 0
DWIDTH 13 0
BBX 12 22 0 -2
BITMAP
000014
014000
074000
0FAA54
0FE460
054440
074000
0FABE4
0FD554
0F4000
070440
0A0200
0D0740
1C0780
280000
785554
780000
B80BC0
B80BC0
B807C0
BFD7FE
7F43F8
ENDCHAR
STARTCHAR acircumflextilde
ENCODING 7851
SWIDTH 830 0
DWIDTH 13 0
BBX 12 22 0 -2
BITMAP
000014
014000
074000
0FAA54
0FE460
054440
074000
0FABE4
0FD554
0F4000
070440
0A0200
0D0740
1C0780
280000
785554
780000
B80BC0
B80BC0
B807C0
BFD7FE
7F43F8
ENDCHAR
STARTCHAR Acircumflexdotbelow
ENCODING 7852
SWIDTH 830 0
DWIDTH 13 0
BBX 12 21 0 -6
BITMAP
000440
024000
0BABE4
0FD554
0F4000
070440
0A0200
0D0740
1C0780
280000
785554
780000
B80BC0
B80BC0
B807C0
BFE6AE
7FA018
01F010
01F010
01FF80
01FE00
ENDCHAR
STARTCHAR acircumflexdotbelow
ENCODING 7853
SWIDTH 830 0
DWIDTH 13 0
BBX 12 21 0 -6
BITMAP
000440
024000
0BABE4
0FD554
0F4000
070440
0A0200
0D0740
1C0780
280000
785554
780000
B80BC0
B80BC0
B807C0
BFE6AE
7FA018
01F010
01F010
01FF80
01FE00
ENDCHAR
STARTCHAR Abreveacute
ENCODING 7854
SWIDTH 830 0
DWIDTH 13 0
BBX 13 20 0 -2
BITMAP
00180400
007C5400
006BD400
02424000
0B400000
0FD00000
0FEAA400
07800400
03444100
0A020100
0D074040
1C078040
28000040
78555400
78000000
B80BC000
B80BC000
B807C000
BFD7FE00
7F43F800
ENDCHAR
STARTCHAR abreveacute
ENCODING 7855
SWIDTH 830 0
DWIDTH 13 0
BBX 13 20 0 -2
BITMAP
00180400
007C5400
006BD400
02424000
0B400000
0FD00000
0FEAA400
07800400
03444100
0A020100
0D074040
1C078040
28000040
78555400
78000000
B80BC000
B80BC000
B807C000
BFD7FE00
7F43F800
ENDCHAR
STARTCHAR Abrevegrave
ENCODING 7856
SWIDTH 830 0
DWIDTH 13 0
BBX 13 21 0 -2
BITMAP
00500000
02D00000
03E44000
03AB9400
07414000
0F400000
0FD00000
0FEAA400
07800400
03444100
0A020100
0D074040
1C078040
28000040
78555400
78000000
B80BC000
B80BC000
B807C000
BFD7FE00
7F43F800
ENDCHAR
STARTCHAR abrevegrave
ENCODING 7857
SWIDTH 830 0
DWIDTH 13 0
BBX 13 21 0 -2
BITMAP
00500000
02D00000
03E44000
03AB9400
07414000
0F400000
0FD00000
0FEAA400
07800400
03444100
0A020100
0D074040
1C078040
28000040
78555400
78000000
B80BC000
B80BC000
B807C000
BFD7FE00
7F43F800
ENDCHAR
STARTCHAR Abrevehookabove
ENCODING 7858
SWIDTH 830 0
DWIDTH 13 0
BBX 13 23 0 -2
BITMAP
00055000
00700400
01F55000
01F91000
00B81400
006BD400
02424000
0B400000
0FD00000
0FEAA400
07800400
03444100
0A020100
0D074040
1C078040
28000040
78555400
78000000
B80BC000
B80BC000
B807C000
BFD7FE00
7F43F800
ENDCHAR
STARTCHAR abrevehookabove
ENCODING 7859
SWIDTH 830 0
DWIDTH 13 0
BBX 13 23 0 -2
BITMAP
00055000
00700400
01F55000
01F91000
00B81400
006BD400
02424000
0B400000
0FD00000
0FEAA400
07800400
03444100
0A020100
0D074040
1C078040
28000040
78555400
78000000
B80BC000
B80BC000
B807C000
BFD7FE00
7F43F800
ENDCHAR
STARTCHAR Abrevetilde
ENCODING 7860
SWIDTH 830 0
DWIDTH 13 0
BBX 13 22 0 -2
BITMAP
00001400
01400000
07454000
0F550400
0FABE400
0B424000
0F400000
0FD00000
0FEAA400
07800400
03444100
0A020100
0D074040
1C078040
28000040
78555400
78000000
B80BC000
B80BC000
B807C000
BFD7FE00
7F43F800
ENDCHAR
STARTCHAR abrevetilde
ENCODING 7861
SWIDTH 830 0
DWIDTH 13 0
BBX 13 22 0 -2
BITMAP
00001400
01400000
07454000
0F550400
0FABE400
0B424000
0F400000
0FD00000
0FEAA400
07800400
03444100
0A020100
0D074040
1C078040
28000040
78555400
78000000
B80BC000
B80BC000
B807C000
BFD7FE00
7F43F800
ENDCHAR
STARTCHAR Abrevedotbelow
ENCODING 7862
SWIDTH 830 0
DWIDTH 13 0
BBX 13 22 0 -6
BITMAP
00545400
02404000
0B400000
0FD00000
0FEAA400
07800400
03444100
0A020100
0D074040
1C078040
28000040
78555400
78000000
B80BC000
B80BC000
B807C000
BFE6AE00
7FA01800
01F01000
01F01000
01FF8000
01FE0000
ENDCHAR
STARTCHAR abrevedotbelow
ENCODING 7863
SWIDTH 830 0
DWIDTH 13 0
BBX 13 22 0 -6
BITMAP
00545400
02404000
0B400000
0FD00000
0FEAA400
07800400
03444100
0A020100
0D074040
1C078040
28000040
78555400
78000000
B80BC000
B80BC000
B807C000
BFE6AE00
7FA01800
01F01000
01F01000
01FF8000
01FE0000
ENDCHAR
STARTCHAR Edotbelow
ENCODING 7864
SWIDTH 754 0
DWIDTH 12 0
BBX 12 18 0 -6
BITMAP
055555
2C0001
7C0001
7C0000
7C07F8
7C0154
7C4004
7C06A0
7C0690
7C0001
7C0001
7C0000
7FAAA8
7FD020
01D000
02E010
02FF80
02FD00
ENDCHAR
STARTCHAR edotbelow
ENCODING 7865
SWIDTH 754 0
DWIDTH 12 0
BBX 12 18 0 -6
BITMAP
055555
2C0001
7C0001
7C0000
7C07F8
7C0154
7C4004
7C06A0
7C0690
7C0001
7C0001
7C0000
7FAAA8
7FD020
01D000
02E010
02FF80
02FD00
ENDCHAR
STARTCHAR Ehookabove
ENCODING 7866
SWIDTH 754 0
DWIDTH 12 0
BBX 12 19 0 -2
BITMAP
005540
01C010
07E900
07E000
01E140
055555
2C0001
7C0001
7C0000
7C07F8
7C0154
7C4004
7C06A0
7C0690
7C0001
7C0001
7C0000
7FFFF8
7FFFE0
ENDCHAR
STARTCHAR ehookabove
ENCODING 7867
SWIDTH 754 0
DWIDTH 12 0
BBX 12 19 0 -2
BITMAP
005540
01C010
07E900
07E000
01E140
055555
2C0001
7C0001
7C0000
7C07F8
7C0154
7C4004
7C06A0
7C0690
7C0001
7C0001
7C0000
7FFFF8
7FFFE0
ENDCHAR
STARTCHAR Etilde
ENCODING 7868
SWIDTH 754 0
DWIDTH 12 0
BBX 12 18 0 -2
BITMAP
000554
020000
0B0540
1F1400
1D5555
2C0001
7C0001
7C0000
7C07F8
7C0154
7C4004
7C06A0
7C0690
7C0001
7C0001
7C0000
7FFFF8
7FFFE0
ENDCHAR
STARTCHAR etilde
ENCODING 7869
SWIDTH 754 0
DWIDTH 12 0
BBX 12 18 0 -2
BITMAP
000554
020000
0B0540
1F1400
1D5555
2C0001
7C0001
7C0000
7C07F8
7C0154
7C4004
7C06A0
7C0690
7C0001
7C0001
7C0000
7FFFF8
7FFFE0
ENDCHAR
STARTCHAR Ecircumflexacute
ENCODING 7870
SWIDTH 754 0
DWIDTH 12 0
BBX 12 21 0 -2
BITMAP
000100
000700
001F04
001AB0
010404
070000
1F6FE4
1D5555
1C0001
3C0001
7C0000
7C07F8
7C0154
7C4004
7C06A0
7C0690
7C0001
7C0001
7C0000
7FFFF8
7FFFE0
ENDCHAR
STARTCHAR ecircumflexacute
ENCODING 7871
SWIDTH 754 0
DWIDTH 12 0
BBX 12 21 0 -2
BITMAP
000100
000700
001F04
001AB0
010404
070000
1F6FE4
1D5555
1C0001
3C0001
7C0000
7C07F8
7C0154
7C4004
7C06A0
7C0690
7C0001
7C0001
7C0000
7FFFF8
7FFFE0
ENDCHAR
STARTCHAR Ecircumflexgrave
ENCODING 7872
SWIDTH 754 0
DWIDTH 12 0
BBX 12 21 0 -2
BITMAP
000114
000E00
002E00
002AA4
010404
070000
1F6FE4
1D5555
1C0001
7C0001
7C0000
7C07F8
7C0154
7C4004
7C06A0
7C0690
7C0001
7C0001
7C0000
7FFFF8
7FFFE0
ENDCHAR
STARTCHAR ecircumflexgrave
ENCODING 7873
SWIDTH 754 0
DWIDTH 12 0
BBX 12 21 0 -2
BITMAP
000114
000E00
002E00
002AA4
010404
070000
1F6FE4
1D5555
1C0001
7C0001
7C0000
7C07F8
7C0154
7C4004
7C06A0
7C0690
7C0001
7C0001
7C0000
7FFFF8
7FFFE0
ENDCHAR
STARTCHAR Ecircumflexhookabove
ENCODING 7874
SWIDTH 754 0
DWIDTH 12 0
BBX 13 23 0 -2
BITMAP
00010100
00061440
001FA400
001F8100
000B8540
00146D00
01040400
0B000000
1F6FE400
1D555500
2C000100
7C000100
7C000000
7C07F800
7C015400
7C400400
7C06A000
7C069000
7C000100
7C000100
7C000000
7FFFF800
7FFFE000
ENDCHAR
STARTCHAR ecircumflexhookabove
ENCODING 7875
SWIDTH 754 0
DWIDTH 12 0
BBX 13 23 0 -2
BITMAP
00010100
00061440
001FA400
001F8100
000B8540
00146D00
01040400
0B000000
1F6FE400
1D555500
2C000100
7C000100
7C000000
7C07F800
7C015400
7C400400
7C06A000
7C069000
7C000100
7C000100
7C000000
7FFFF800
7FFFE000
ENDCHAR
STARTCHAR Ecircumflextilde
ENCODING 7876
SWIDTH 754 0
DWIDTH 12 0
BBX 12 22 0 -2
BITMAP
000014
020000
0B0000
1F6954
1FE450
060404
0B0000
1F6FE4
1D5555
2C0001
7C0001
7C0000
7C07F8
7C0154
7C4004
7C06A0
7C0690
7C0001
7C0001
7C0000
7FFFF8
7FFFE0
ENDCHAR
STARTCHAR ecircumflextilde
ENCODING 7877
SWIDTH 754 0
DWIDTH 12 0
BBX 12 22 0 -2
BITMAP
000014
020000
0B0000
1F6954
1FE450
060404
0B0000
1F6FE4
1D5555
2C0001
7C0001
7C0000
7C07F8
7C0154
7C4004
7C06A0
7C0690
7C0001
7C0001
7C0000
7FFFF8
7FFFE0
ENDCHAR
STARTCHAR Ecircumflexdotbelow
ENCODING 7878
SWIDTH 754 0
DWIDTH 12 0
BBX 12 22 0 -6
BITMAP
000100
000400
060000
1F6FE4
1D5555
1C0001
3C0001
7C0000
7C07F8
7C0154
7C4004
7C06A0
7C0690
7C0001
7C0001
7C0000
7FAAA8
7FD020
02D000
03D000
03FF40
02FD00
ENDCHAR
STARTCHAR ecircumflexdotbelow
ENCODING 7879
SWIDTH 754 0
DWIDTH 12 0
BBX 12 22 0 -6
BITMAP
000100
000400
060000
1F6FE4
1D5555
1C0001
3C0001
7C0000
7C07F8
7C0154
7C4004
7C06A0
7C0690
7C0001
7C0001
7C0000
7FAAA8
7FD020
02D000
03D000
03FF40
02FD00
ENDCHAR
STARTCHAR Ihookabove
ENCODING 7880
SWIDTH 705 0
DWIDTH 11 0
BBX 11 19 0 -2
BITMAP
005500
024100
0FA400
0FC100
03D500
095554
380000
B80404
BF8064
7FC050
07C000
07C000
07C000
064000
180000
780400
B80000
BFFFE0
7FFF80
ENDCHAR
STARTCHAR ihookabove
ENCODING 7881
SWIDTH 705 0
DWIDTH 11 0
BBX 11 19 0 -2
BITMAP
005500
024100
0FA400
0FC100
03D500
095554
380000
B80404
BF8064
7FC050
07C000
07C000
07C000
064000
180000
780400
B80000
BFFFE0
7FFF80
ENDCHAR
STARTCHAR Idotbelow
ENCODING 7882
SWIDTH 705 0
DWIDTH 11 0
BBX 11 18 0 -6
BITMAP
055554
280000
B80404
BF8064
7FC050
07C000
07C000
07C000
064000
180000
780400
B80000
BFAAA0
7FC040
03C000
07C040
07FE00
07F800
ENDCHAR
STARTCHAR idotbelow
ENCODING 7883
SWIDTH 705 0
DWIDTH 11 0
BBX 11 18 0 -6
BITMAP
055554
280000
B80404
BF8064
7FC050
07C000
07C000
07C000
064000
180000
780400
B80000
BFAAA0
7FC040
03C000
07C040
07FE00
07F800
ENDCHAR
STARTCHAR Odotbelow
ENCODING 7884
SWIDTH 837 0
DWIDTH 13 0
BBX 13 18 0 -6
BITMAP
00555400
01000040
1C000440
38068000
780BC000
7807C000
7807C000
7807C000
7807C000
7C000440
7C001040
7E400100
3FF96800
1FF01000
01F01000
01F01000
01FF8000
01FE0000
ENDCHAR
STARTCHAR odotbelow
ENCODING 7885
SWIDTH 837 0
DWIDTH 13 0
BBX 13 18 0 -6
BITMAP
00555400
01000040
1C000440
38068000
780BC000
7807C000
7807C000
7807C000
7807C000
7C000440
7C001040
7E400100
3FF96800
1FF01000
01F01000
01F01000
01FF8000
01FE0000
ENDCHAR
STARTCHAR Ohookabove
ENCODING 7886
SWIDTH 837 0
DWIDTH 13 0
BBX 13 19 0 -2
BITMAP
00154000
00904000
02FA0000
02F00000
00F55000
00900500
05000040
1C000440
38068000
780BC000
7807C000
7807C000
7807C000
7807C000
7C000440
7D001040
7F400500
2FFFF400
06FF9000
ENDCHAR
STARTCHAR ohookabove
ENCODING 7887
SWIDTH 837 0
DWIDTH 13 0
BBX 13 19 0 -2
BITMAP
00154000
00904000
02FA0000
02F00000
00F55000
00900500
05000040
1C000440
38068000
780BC000
7807C000
7807C000
7807C000
7807C000
7C000440
7D001040
7F400500
2FFFF400
06FF9000
ENDCHAR
STARTCHAR Ocircumflexacute
ENCODING 7888
SWIDTH 837 0
DWIDTH 13 0
BBX 13 22 0 -2
BITMAP
00001900
00019100
00074000
000B4400
00146400
01414000
07400000
0F9B9400
0F941400
09000000
1C000440
78068000
780BC000
7807C000
7807C000
7807C000
7807C000
7C000440
7D001040
7F400500
2FFFF400
06FF9000
ENDCHAR
STARTCHAR ocircumflexacute
ENCODING 7889
SWIDTH 837 0
DWIDTH 13 0
BBX 13 22 0 -2
BITMAP
00001900
00019100
00074000
000B4400
00146400
01414000
07400000
0F9B9400
0F941400
09000000
1C000440
78068000
780BC000
7807C000
7807C000
7807C000
7807C000
7C000440
7D001040
7F400500
2FFFF400
06FF9000
ENDCHAR
STARTCHAR Ocircumflexgrave
ENCODING 7890
SWIDTH 837 0
DWIDTH 13 0
BBX 13 22 0 -2
BITMAP
00004000
00025900
000B0000
000F4000
00145400
01414000
07400000
0F9B9400
0F941400
09000000
1C000440
78068000
780BC000
7807C000
7807C000
7807C000
7807C000
7C000440
7D001040
7F400500
2FFFF400
06FF9000
ENDCHAR
STARTCHAR ocircumflexgrave
ENCODING 7891
SWIDTH 837 0
DWIDTH 13 0
BBX 13 22 0 -2
BITMAP
00004000
00025900
000B0000
000F4000
00145400
01414000
07400000
0F9B9400
0F941400
09000000
1C000440
78068000
780BC000
7807C000
7807C000
7807C000
7807C000
7C000440
7D001040
7F400500
2FFFF400
06FF9000
ENDCHAR
STARTCHAR Ocircumflexhookabove
ENCODING 7892
SWIDTH 837 0
DWIDTH 13 0
BBX 13 23 0 -2
BITMAP
00004000
00024500
000BA800
000FD100
0007D540
00146E00
01414000
07400000
0F9B9400
0F941400
09000000
1C000440
78068000
780BC000
7807C000
7807C000
7807C000
7807C000
7C000440
7D001040
7F400500
2FFFF400
06FF9000
ENDCHAR
STARTCHAR ocircumflexhookabove
ENCODING 7893
SWIDTH 837 0
DWIDTH 13 0
BBX 13 23 0 -2
BITMAP
00004000
00024500
000BA800
000FD100
0007D540
00146E00
01414000
07400000
0F9B9400
0F941400
09000000
1C000440
78068000
780BC000
7807C000
7807C000
7807C000
7807C000
7C000440
7D001040
7F400500
2FFFF400
06FF9000
ENDCHAR
STARTCHAR Ocircumflextilde
ENCODING 7894
SWIDTH 837 0
DWIDTH 13 0
BBX 13 22 0 -2
BITMAP
00001400
01400000
07400000
0FAA5400
0FF46000
06814000
07400000
0F9B9400
0F941400
09000000
1C000440
78068000
780BC000
7807C000
7807C000
7807C000
7807C000
7C000440
7D001040
7F400500
2FFFF400
06FF9000
ENDCHAR
STARTCHAR ocircumflextilde
ENCODING 7895
SWIDTH 837 0
DWIDTH 13 0
BBX 13 22 0 -2
BITMAP
00001400
01400000
07400000
0FAA5400
0FF46000
06814000
07400000
0F9B9400
0F941400
09000000
1C000440
78068000
780BC000
7807C000
7807C000
7807C000
7807C000
7C000440
7D001040
7F400500
2FFFF400
06FF9000
ENDCHAR
STARTCHAR Ocircumflexdotbelow
ENCODING 7896
SWIDTH 837 0
DWIDTH 13 0
BBX 13 22 0 -6
BITMAP
00014000
00454000
02400000
0B9B9400
0F941400
09000000
1C000440
38068000
780BC000
7807C000
7807C000
7807C000
7807C000
7C000440
7C001040
7E400100
3FF96800
1FF01000
01F01000
01F01000
01FF8000
01FE0000
ENDCHAR
STARTCHAR ocircumflexdotbelow
ENCODING 7897
SWIDTH 837 0
DWIDTH 13 0
BBX 13 22 0 -6
BITMAP
00014000
00454000
02400000
0B9B9400
0F941400
09000000
1C000440
38068000
780BC000
7807C000
7807C000
7807C000
7807C000
7C000440
7C001040
7E400100
3FF96800
1FF01000
01F01000
01F01000
01FF8000
01FE0000
ENDCHAR
STARTCHAR Ohornacute
ENCODING 7898
SWIDTH 847 0
DWIDTH 14 0
BBX 14 18 0 -2
BITMAP
00055400
01544000
0A000400
1E15A810
1F900010
09001400
2C000400
78068400
780BC000
7807C000
7807C000
7807C000
7807C000
7C000400
7D000040
7F400500
3FFFF400
0AFF9000
ENDCHAR
STARTCHAR ohornacute
ENCODING 7899
SWIDTH 847 0
DWIDTH 14 0
BBX 14 18 0 -2
BITMAP
00055400
01544000
0A000400
1E15A810
1F900010
09001400
2C000400
78068400
780BC000
7807C000
7807C000
7807C000
7807C000
7C000400
7D000040
7F400500
3FFFF400
0AFF9000
ENDCHAR
STARTCHAR Ohorngrave
ENCODING 7900
SWIDTH 847 0
DWIDTH 14 0
BBX 14 19 0 -2
BITMAP
00400000
06AAA000
1E000400
2E000400
2FE95810
1B500010
05001400
1C000400
38068400
780BC000
7807C000
7807C000
7807C000
7807C000
7C000400
7D000040
7F400500
3FFFF400
0AFF9000
ENDCHAR
STARTCHAR ohorngrave
ENCODING 7901
SWIDTH 847 0
DWIDTH 14 0
BBX 14 19 0 -2
BITMAP
00400000
06AAA000
1E000400
2E000400
2FE95810
1B500010
05001400
1C000400
38068400
780BC000
7807C000
7807C000
7807C000
7807C000
7C000400
7D000040
7F400500
3FFFF400
0AFF9000
ENDCHAR
STARTCHAR Ohornhookabove
ENCODING 7902
SWIDTH 847 0
DWIDTH 14 0
BBX 14 19 0 -2
BITMAP
00154000
00904000
02FA0000
02F00400
00F56810
00900010
05001400
1C000400
38068400
780BC000
7807C000
7807C000
7807C000
7807C000
7C000400
7D000040
7F400500
3FFFF400
0AFF9000
ENDCHAR
STARTCHAR ohornhookabove
ENCODING 7903
SWIDTH 847 0
DWIDTH 14 0
BBX 14 19 0 -2
BITMAP
00154000
00904000
02FA0000
02F00400
00F56810
00900010
05001400
1C000400
38068400
780BC000
7807C000
7807C000
7807C000
7807C000
7C000400
7D000040
7F400500
3FFFF400
0AFF9000
ENDCHAR
STARTCHAR Ohorntilde
ENCODING 7904
SWIDTH 847 0
DWIDTH 14 0
BBX 14 18 0 -2
BITMAP
00400000
02000000
0F000400
1F140810
1F900010
09001400
1C000400
78068400
780BC000
7807C000
7807C000
7807C000
7807C000
7C000400
7D000040
7F400500
3FFFF400
0AFF9000
ENDCHAR
STARTCHAR ohorntilde
ENCODING 7905
SWIDTH 847 0
DWIDTH 14 0
BBX 14 18 0 -2
BITMAP
00400000
02000000
0F000400
1F140810
1F900010
09001400
1C000400
78068400
780BC000
7807C000
7807C000
7807C000
7807C000
7C000400
7D000040
7F400500
3FFFF400
0AFF9000
ENDCHAR
STARTCHAR Ohorndotbelow
ENCODING 7906
SWIDTH 847 0
DWIDTH 14 0
BBX 14 19 0 -6
BITMAP
00000810
00000010
01001400
1C000400
38068400
780BC000
7807C000
7807C000
7807C000
7807C000
7C000440
7C000040
7E400100
3FF96800
1FF01000
01F01000
01F01000
01FF8000
01FE0000
ENDCHAR
STARTCHAR ohorndotbelow
ENCODING 7907
SWIDTH 847 0
DWIDTH 14 0
BBX 14 19 0 -6
BITMAP
00000810
00000010
01001400
1C000400
38068400
780BC000
7807C000
7807C000
7807C000
7807C000
7C000440
7C000040
7E400100
3FF96800
1FF01000
01F01000
01F01000
01FF8000
01FE0000
ENDCHAR
STARTCHAR Udotbelow
ENCODING 7908
SWIDTH 846 0
DWIDTH 14 0
BBX 13 18 0 -6
BITMAP
05545540
2C01D000
7C07D000
7C07D000
7C07D000
7C07D000
7C07D000
7C07D000
7C038000
7C000440
7D001040
7F400100
3FF96800
1FF01000
01F01000
01F01000
01FFC000
00FE0000
ENDCHAR
STARTCHAR udotbelow
ENCODING 7909
SWIDTH 846 0
DWIDTH 14 0
BBX 13 18 0 -6
BITMAP
05545540
2C01D000
7C07D000
7C07D000
7C07D000
7C07D000
7C07D000
7C07D000
7C038000
7C000440
7D001040
7F400100
3FF96800
1FF01000
01F01000
01F01000
01FFC000
00FE0000
ENDCHAR
STARTCHAR Uhookabove
ENCODING 7910
SWIDTH 846 0
DWIDTH 14 0
BBX 13 19 0 -2
BITMAP
00155000
00700400
01FA5000
01F80000
00785000
055BD540
2C06D000
7C07D000
7C07D000
7C07D000
7C07D000
7C07D000
7C07D000
7C038000
7C000400
7D001040
3F400500
2FFFF400
06FF9000
ENDCHAR
STARTCHAR uhookabove
ENCODING 7911
SWIDTH 846 0
DWIDTH 14 0
BBX 13 19 0 -2
BITMAP
00155000
00700400
01FA5000
01F80000
00785000
055BD540
2C06D000
7C07D000
7C07D000
7C07D000
7C07D000
7C07D000
7C07D000
7C038000
7C000400
7D001040
3F400500
2FFFF400
06FF9000
ENDCHAR
STARTCHAR Uhornacute
ENCODING 7912
SWIDTH 856 0
DWIDTH 14 0
BBX 14 18 0 -2
BITMAP
00155400
02544000
0A000500
1E15A800
1D5BD050
2C05D110
7C07D040
7C07D000
7C07D000
7C07D000
7C07D000
7C07D000
7C038000
7C000440
7D001040
7F400500
2FFFF400
06FF9000
ENDCHAR
STARTCHAR uhornacute
ENCODING 7913
SWIDTH 856 0
DWIDTH 14 0
BBX 14 18 0 -2
BITMAP
00155400
02544000
0A000500
1E15A800
1D5BD050
2C05D110
7C07D040
7C07D000
7C07D000
7C07D000
7C07D000
7C07D000
7C038000
7C000440
7D001040
7F400500
2FFFF400
06FF9000
ENDCHAR
STARTCHAR Uhorngrave
ENCODING 7914
SWIDTH 856 0
DWIDTH 14 0
BBX 14 18 0 -2
BITMAP
02AA5000
0E015400
2E000500
2FA54800
1D5BD050
2C07D110
7C07D040
7C07D000
7C07D000
7C07D000
7C07D000
7C07D000
7C038000
7C000440
7D001040
7F400500
2FFFF400
06FF9000
ENDCHAR
STARTCHAR uhorngrave
ENCODING 7915
SWIDTH 856 0
DWIDTH 14 0
BBX 14 18 0 -2
BITMAP
02AA5000
0E015400
2E000500
2FA54800
1D5BD050
2C07D110
7C07D040
7C07D000
7C07D000
7C07D000
7C07D000
7C07D000
7C038000
7C000440
7D001040
7F400500
2FFFF400
06FF9000
ENDCHAR
STARTCHAR Uhornhookabove
ENCODING 7916
SWIDTH 856 0
DWIDTH 14 0
BBX 14 19 0 -2
BITMAP
00155000
00A00000
01FA4000
01F40500
00B96C00
055BD050
2C06D110
7C07D040
7C07D000
7C07D000
7C07D000
7C07D000
7C07D000
7C038000
7C000440
7D001040
7F400500
2FFFF400
06FF9000
ENDCHAR
STARTCHAR uhornhookabove
ENCODING 7917
SWIDTH 856 0
DWIDTH 14 0
BBX 14 19 0 -2
BITMAP
00155000
00A00000
01FA4000
01F40500
00B96C00
055BD050
2C06D110
7C07D040
7C07D000
7C07D000
7C07D000
7C07D000
7C07D000
7C038000
7C000440
7D001040
7F400500
2FFFF400
06FF9000
ENDCHAR
STARTCHAR Uhorntilde
ENCODING 7918
SWIDTH 856 0
DWIDTH 14 0
BBX 14 18 0 -2
BITMAP
00400000
02000000
0E000500
1E541800
1D5BD050
2C06D110
7C07D040
7C07D000
7C07D000
7C07D000
7C07D000
7C07D000
7C038000
7C000440
7D001040
7F400500
2FFFF400
06FF9000
ENDCHAR
STARTCHAR uhorntilde
ENCODING 7919
SWIDTH 856 0
DWIDTH 14 0
BBX 14 18 0 -2
BITMAP
00400000
02000000
0E000500
1E541800
1D5BD050
2C06D110
7C07D040
7C07D000
7C07D000
7C07D000
7C07D000
7C07D000
7C038000
7C000440
7D001040
7F400500
2FFFF400
06FF9000
ENDCHAR
STARTCHAR Uhorndotbelow
ENCODING 7920
SWIDTH 856 0
DWIDTH 14 0
BBX 14 20 0 -6
BITMAP
00000100
00001800
05545050
2C01D110
7C07D040
7C07D000
7C07D000
7C07D000
7C07D000
7C07D000
7C038000
7C000440
7D001040
7F400100
3FF96800
1FF01000
01F01000
01F01000
01FFC000
00FE0000
ENDCHAR
STARTCHAR uhorndotbelow
ENCODING 7921
SWIDTH 856 0
DWIDTH 14 0
BBX 14 20 0 -6
BITMAP
00000100
00001800
05545050
2C01D110
7C07D040
7C07D000
7C07D000
7C07D000
7C07D000
7C07D000
7C038000
7C000440
7D001040
7F400100
3FF96800
1FF01000
01F01000
01F01000
01FFC000
00FE0000
ENDCHAR
STARTCHAR Ygrave
ENCODING 7922
SWIDTH 805 0
DWIDTH 13 0
BBX 13 18 0 -2
BITMAP
01555000
07001400
1F000000
1FA54000
195FD540
2807C000
B84BC000
B84BC000
B8474400
BC010000
BE000100
7F410000
2FC00000
0BE00000
07E00000
02E00000
02FF8000
01FE0000
ENDCHAR
STARTCHAR ygrave
ENCODING 7923
SWIDTH 805 0
DWIDTH 13 0
BBX 13 18 0 -2
BITMAP
01555000
07001400
1F000000
1FA54000
195FD540
2807C000
B84BC000
B84BC000
B8474400
BC010000
BE000100
7F410000
2FC00000
0BE00000
07E00000
02E00000
02FF8000
01FE0000
ENDCHAR
STARTCHAR Ydotbelow
ENCODING 7924
SWIDTH 805 0
DWIDTH 13 0
BBX 13 18 0 -6
BITMAP
05505540
2806C000
B84BC000
B84BC000
B8474400
BC010000
BE000100
7F410000
2FC00000
0FE00000
07E00000
02E00000
02FA8000
01E00000
01E00000
02E01000
02FF8000
01FD0000
ENDCHAR
STARTCHAR ydotbelow
ENCODING 7925
SWIDTH 805 0
DWIDTH 13 0
BBX 13 18 0 -6
BITMAP
05505540
2806C000
B84BC000
B84BC000
B8474400
BC010000
BE000100
7F410000
2FC00000
0FE00000
07E00000
02E00000
02FA8000
01E00000
01E00000
02E01000
02FF8000
01FD0000
ENDCHAR
STARTCHAR Yhookabove
ENCODING 7926
SWIDTH 805 0
DWIDTH 13 0
BBX 13 19 0 -2
BITMAP
00154000
00904000
03E90000
03F04000
01F55000
055F9540
2806C000
B84BC000
B84BC000
B8474400
BC010000
BE000100
7F410000
2FC00000
0BE00000
07E00000
02E00000
02FF8000
01FE0000
ENDCHAR
STARTCHAR yhookabove
ENCODING 7927
SWIDTH 805 0
DWIDTH 13 0
BBX 13 19 0 -2
BITMAP
00154000
00904000
03E90000
03F04000
01F55000
055F9540
2806C000
B84BC000
B84BC000
B8474400
BC010000
BE000100
7F410000
2FC00000
0BE00000
07E00000
02E00000
02FF8000
01FE0000
ENDCHAR
STARTCHAR Ytilde
ENCODING 7928
SWIDTH 805 0
DWIDTH 13 0
BBX 13 18 0 -2
BITMAP
00015400
01000000
0B054000
0F550000
095FD540
280BC000
B84BC000
B84BC000
B8474400
BC010000
BE000100
7F410000
2FC00000
0BE00000
07E00000
02E00000
02FF8000
01FE0000
ENDCHAR
STARTCHAR ytilde
ENCODING 7929
SWIDTH 805 0
DWIDTH 13 0
BBX 13 18 0 -2
BITMAP
00015400
01000000
0B054000
0F550000
095FD540
280BC000
B84BC000
B84BC000
B8474400
BC010000
BE000100
7F410000
2FC00000
0BE00000
07E00000
02E00000
02FF8000
01FE0000
ENDCHAR
STARTCHAR enspace
ENCODING 8192
SWIDTH 500 0
DWIDTH 8 0
BBX 1 1 0 0
BITMAP
00
ENDCHAR
STARTCHAR emspace
ENCODING 8193
SWIDTH 1000 0
DWIDTH 16 0
BBX 1 1 0 0
BITMAP
00
ENDCHAR
STARTCHAR uni2002
ENCODING 8194
SWIDTH 500 0
DWIDTH 8 0
BBX 1 1 0 0
BITMAP
00
ENDCHAR
STARTCHAR uni2003
ENCODING 8195
SWIDTH 1000 0
DWIDTH 16 0
BBX 1 1 0 0
BITMAP
00
ENDCHAR
STARTCHAR space.tab_en
ENCODING 8199
SWIDTH 1100 0
DWIDTH 18 0
BBX 1 1 0 0
BITMAP
00
ENDCHAR
STARTCHAR uni2010
ENCODING 8208
SWIDTH 520 0
DWIDTH 8 0
BBX 8 6 0 2
BITMAP
0401
2400
B400
B800
BFFD
BFF4
ENDCHAR
STARTCHAR figuredash
ENCODING 8210
SWIDTH 834 0
DWIDTH 13 0
BBX 12 6 0 2
BITMAP
010000
080000
3C0000
7C0000
7FFFFE
7FFFF8
ENDCHAR
STARTCHAR endash
ENCODING 8211
SWIDTH 834 0
DWIDTH 13 0
BBX 12 6 0 2
BITMAP
010000
080000
3C0000
7C0000
7FFFFE
7FFFF8
ENDCHAR
STARTCHAR emdash
ENCODING 8212
SWIDTH 1234 0
DWIDTH 20 0
BBX 19 6 0 2
BITMAP
0100000004
0800000000
3C00000000
7C00000000
7FFFFFFFF4
7FFFFFFFD0
ENDCHAR
STARTCHAR horizontalbar
ENCODING 8213
SWIDTH 1234 0
DWIDTH 20 0
BBX 19 6 0 2
BITMAP
0100000004
0800000000
3C00000000
7C00000000
7FFFFFFFF4
7FFFFFFFD0
ENDCHAR
STARTCHAR quoteleft
ENCODING 8216
SWIDTH 484 0
DWIDTH 8 0
BBX 8 8 0 4
BITMAP
0154
0800
2864
7800
7800
B801
BFF8
7FD0
ENDCHAR
STARTCHAR quoteright
ENCODING 8217
SWIDTH 484 0
DWIDTH 8 0
BBX 7 8 0 4
BITMAP
0554
2810
7800
B800
BE90
7C00
3E90
7F40
ENDCHAR
STARTCHAR quotesinglbase
ENCODING 8218
SWIDTH 484 0
DWIDTH 8 0
BBX 7 8 0 -4
BITMAP
1800
7810
B800
BE90
7C00
3D54
7FC0
2900
ENDCHAR
STARTCHAR quotedblleft
ENCODING 8220
SWIDTH 784 0
DWIDTH 13 0
BBX 12 8 0 4
BITMAP
015455
084600
386E09
B80200
B80200
B80200
BFFFFE
BFEFF4
ENDCHAR
STARTCHAR quotedblright
ENCODING 8221
SWIDTH 784 0
DWIDTH 13 0
BBX 12 8 0 4
BITMAP
055655
281204
B81200
B81200
BE93A0
780B00
7EAFA4
7F5FD0
ENDCHAR
STARTCHAR quotedblbase
ENCODING 8222
SWIDTH 784 0
DWIDTH 13 0
BBX 12 9 0 -4
BITMAP
040400
180200
781204
B81200
BE93A0
B80701
7D6F54
7F9FE0
290A40
ENDCHAR
STARTCHAR dagger
ENCODING 8224
SWIDTH 818 0
DWIDTH 13 0
BBX 13 14 0 -2
BITMAP
00155000
00B00000
01F00000
08000000
78010000
B8000000
BEB02A40
BFF03D00
55F01400
01F00000
01F00000
01F00000
01FF8000
01FE0000
ENDCHAR
STARTCHAR daggerdbl
ENCODING 8225
SWIDTH 818 0
DWIDTH 13 0
BBX 13 14 0 -2
BITMAP
00155000
01B01100
18000000
78155400
B8000000
BFF02E00
7BF02900
08000000
78010000
B8000000
BEA02A40
BFF02D00
11FF9000
01FE0000
ENDCHAR
STARTCHAR bullet
ENCODING 8226
SWIDTH 543 0
DWIDTH 9 0
BBX 9 8 0 1
BITMAP
040000
284440
B80040
B80040
B84440
B80040
BFFE00
BFF400
ENDCHAR
STARTCHAR ellipsis
ENCODING 8230
SWIDTH 1210 0
DWIDTH 19 0
BBX 19 7 0 -2
BITMAP
0000404400
1802802400
7803803400
B803803400
B803803400
BFFFFFFFE4
7FDBFDBF80
ENDCHAR
STARTCHAR perthousand
ENCODING 8240
SWIDTH 1517 0
DWIDTH 24 0
BBX 24 14 0 -2
BITMAP
001515400000
184060400000
7920A0400000
B97090400000
B93080400000
B90081004004
BD4581451850
7FFF42055510
2FEB43091560
000F07091560
000E07005500
001E0B956D55
002FEFFFFFF8
002F47F96FD0
ENDCHAR
STARTCHAR minute
ENCODING 8242
SWIDTH 456 0
DWIDTH 7 0
BBX 7 8 0 4
BITMAP
0554
2C00
7C40
7840
7800
7800
7FE0
7F80
ENDCHAR
STARTCHAR second
ENCODING 8243
SWIDTH 766 0
DWIDTH 12 0
BBX 12 8 0 4
BITMAP
055555
2C0700
7C4610
784610
780A00
780A00
7FFFF8
7F9FE0
ENDCHAR
STARTCHAR guilsinglleft
ENCODING 8249
SWIDTH 663 0
DWIDTH 11 0
BBX 10 9 0 0
BITMAP
004010
040010
2C4050
780B80
7C0010
7D0010
7F9010
2FFF90
06BF40
ENDCHAR
STARTCHAR guilsinglright
ENCODING 8250
SWIDTH 663 0
DWIDTH 11 0
BBX 9 11 1 -1
BITMAP
040000
700100
F00040
F50000
FFD100
B40000
700040
F01500
FAF800
FE5000
400000
ENDCHAR
STARTCHAR fraction
ENCODING 8260
SWIDTH 417 0
DWIDTH 7 0
BBX 7 14 0 -2
BITMAP
0154
0604
1E04
1D04
2D04
3C00
3C00
7810
7810
B510
B010
F000
FF40
FD00
ENDCHAR
STARTCHAR zero.sups
ENCODING 8304
SWIDTH 656 0
DWIDTH 11 0
BBX 9 10 0 1
BITMAP
140000
343800
743800
743800
743800
740000
740000
3D4140
1FFD00
015000
ENDCHAR
STARTCHAR foursuperior
ENCODING 8308
SWIDTH 608 0
DWIDTH 10 0
BBX 9 11 0 1
BITMAP
055540
383800
B83800
B83800
B80000
B84100
BD0000
BFF800
2AF940
00BF40
006900
ENDCHAR
STARTCHAR five.sups
ENCODING 8309
SWIDTH 593 0
DWIDTH 9 0
BBX 9 10 0 2
BITMAP
055540
284000
781A40
780040
7C4000
7FF400
780000
380040
7FFE00
7FF400
ENDCHAR
STARTCHAR six.sups
ENCODING 8310
SWIDTH 628 0
DWIDTH 10 0
BBX 10 11 0 1
BITMAP
011540
080000
281B40
780000
784010
782C10
781410
7C0010
7F9540
3FFD00
06A400
ENDCHAR
STARTCHAR seven.sups
ENCODING 8311
SWIDTH 577 0
DWIDTH 9 0
BBX 9 10 0 2
BITMAP
155540
740000
BFF000
BF9000
010000
1D0500
2D0400
3D0000
3FD000
3F4000
ENDCHAR
STARTCHAR eight.sups
ENCODING 8312
SWIDTH 638 0
DWIDTH 10 0
BBX 10 11 0 1
BITMAP
010040
090000
2C2800
3D0440
3C5510
382C00
B81400
BC0010
BF9580
7FFE00
06A400
ENDCHAR
STARTCHAR nine.sups
ENCODING 8313
SWIDTH 628 0
DWIDTH 10 0
BBX 9 11 0 1
BITMAP
014140
080000
381400
B82800
B80100
BD0000
7FE800
1D0000
2E0040
2FFE00
2FE400
ENDCHAR
STARTCHAR parenleft.sups
ENCODING 8317
SWIDTH 434 0
DWIDTH 7 0
BBX 6 12 0 1
BITMAP
0400
2000
7050
B000
B000
B000
B000
B000
B400
7D40
2FD0
0500
ENDCHAR
STARTCHAR parenright.sups
ENCODING 8318
SWIDTH 435 0
DWIDTH 7 0
BBX 5 12 0 1
BITMAP
2000
7000
B900
6D00
1D00
1D00
1D00
1D00
1000
7540
7F40
1400
ENDCHAR
STARTCHAR n.sups
ENCODING 8319
SWIDTH 673 0
DWIDTH 11 0
BBX 9 10 0 1
BITMAP
040000
341400
743800
743800
742800
742800
742800
746C00
7F6F80
140500
ENDCHAR
STARTCHAR zero.sinf
ENCODING 8320
SWIDTH 656 0
DWIDTH 11 0
BBX 9 10 0 -2
BITMAP
140000
343800
743800
743800
743800
740000
740000
3D4140
1FFD00
015000
ENDCHAR
STARTCHAR one.sinf
ENCODING 8321
SWIDTH 557 0
DWIDTH 9 0
BBX 9 10 0 -1
BITMAP
055400
281000
7D0000
7F4000
6F4000
0F4000
0A4100
281000
BFFF40
BFF900
ENDCHAR
STARTCHAR two.sinf
ENCODING 8322
SWIDTH 585 0
DWIDTH 9 0
BBX 9 10 0 -1
BITMAP
055500
2C0040
7D5000
7F9000
280040
280500
742840
B40000
BFFF80
BFFD00
ENDCHAR
STARTCHAR three.sinf
ENCODING 8323
SWIDTH 584 0
DWIDTH 9 0
BBX 9 10 0 -1
BITMAP
055500
280000
BFD000
BE0000
6E0440
2FF400
280000
280040
BFFE00
BFF400
ENDCHAR
STARTCHAR four.sinf
ENCODING 8324
SWIDTH 620 0
DWIDTH 10 0
BBX 9 11 0 -2
BITMAP
055540
743400
B43400
B43400
B41000
B44100
BD0000
BFF400
2AF940
00BF40
006800
ENDCHAR
STARTCHAR five.sinf
ENCODING 8325
SWIDTH 593 0
DWIDTH 9 0
BBX 9 10 0 -1
BITMAP
055540
284000
781A40
780040
7C4000
7FF400
780000
380040
7FFE00
7FF400
ENDCHAR
STARTCHAR six.sinf
ENCODING 8326
SWIDTH 628 0
DWIDTH 10 0
BBX 10 11 0 -2
BITMAP
011540
080000
281B40
780000
784010
782C10
781410
7C0010
7F9540
3FFD00
06A400
ENDCHAR
STARTCHAR seven.sinf
ENCODING 8327
SWIDTH 577 0
DWIDTH 9 0
BBX 9 10 0 -1
BITMAP
155540
740000
BFF000
BF9000
010000
1D0500
2D0400
3D0000
3FD000
3F4000
ENDCHAR
STARTCHAR eight.sinf
ENCODING 8328
SWIDTH 638 0
DWIDTH 10 0
BBX 10 11 0 -2
BITMAP
010040
090000
2C2800
3D0440
3C5510
382C00
B81400
BC0010
BF9580
7FFE00
06A400
ENDCHAR
STARTCHAR nine.sinf
ENCODING 8329
SWIDTH 628 0
DWIDTH 10 0
BBX 9 11 0 -2
BITMAP
014140
080000
381400
B82800
B80100
BD0000
7FE800
1D0000
2E0040
2FFE00
2FE400
ENDCHAR
STARTCHAR parenleft.sinf
ENCODING 8333
SWIDTH 434 0
DWIDTH 7 0
BBX 6 12 0 -2
BITMAP
0400
2000
7050
B000
B000
B000
B000
B000
B400
7D40
2FD0
0500
ENDCHAR
STARTCHAR parenright.sinf
ENCODING 8334
SWIDTH 435 0
DWIDTH 7 0
BBX 5 12 0 -2
BITMAP
2000
7000
B900
6D00
1D00
1D00
1D00
1D00
1000
7540
7F40
1400
ENDCHAR
STARTCHAR colonsign
ENCODING 8353
SWIDTH 728 0
DWIDTH 12 0
BBX 12 16 0 -3
BITMAP
000450
006140
019000
051410
1C4001
3807F8
780BE0
780000
780000
780000
7C4000
7D1410
3F5000
1FF244
06FFD0
01EB40
ENDCHAR
STARTCHAR lira
ENCODING 8356
SWIDTH 795 0
DWIDTH 13 0
BBX 13 14 0 -2
BITMAP
00555400
01000000
09000000
2C000000
3C07D000
74400000
F8050000
B4408040
FC068040
FC000040
7C000040
7C000040
7FFFFE00
7FFFF400
ENDCHAR
STARTCHAR naira
ENCODING 8358
SWIDTH 853 0
DWIDTH 14 0
BBX 14 14 0 -2
BITMAP
05501540
1C00D000
7C51D000
7C009000
78000000
74400110
F8040010
F4491110
B80B4410
FC0BC000
7C0BD000
7C07D040
7FE3FF40
7F83FD00
ENDCHAR
STARTCHAR peseta
ENCODING 8359
SWIDTH 812 0
DWIDTH 13 0
BBX 13 14 0 -2
BITMAP
05555400
2C000100
7C001000
78054440
70478400
F4078000
FC000040
BC400100
7C000400
7C07F000
7C068000
7C040000
7FE40000
7F800000
ENDCHAR
STARTCHAR dong
ENCODING 8363
SWIDTH 782 0
DWIDTH 13 0
BBX 13 17 0 -5
BITMAP
00015400
00060100
00201040
00F00000
01FF0100
01501000
18400000
381F0000
B41F0000
B8491000
B8000000
BE505000
7EAA9000
1D000400
2D000000
3FFFE000
2FFF4000
ENDCHAR
STARTCHAR Euro
ENCODING 8364
SWIDTH 748 0
DWIDTH 12 0
BBX 12 14 0 -2
BITMAP
000555
010000
090401
2C02A9
340004
345500
BC06A0
B44000
B80010
BC0294
7D0400
3F4001
2FFFF9
0BFFE0
ENDCHAR
STARTCHAR peso
ENCODING 8369
SWIDTH 812 0
DWIDTH 13 0
BBX 13 14 0 -2
BITMAP
05555400
2C000100
78000040
74454400
B8078040
F4078000
B4400400
FC401000
FC000400
7C07E000
7C068000
7C040000
7FE40000
7F800000
ENDCHAR
STARTCHAR guarani
ENCODING 8370
SWIDTH 788 0
DWIDTH 13 0
BBX 12 17 0 -4
BITMAP
000540
006000
015004
051500
1C4001
3806A9
780BF4
780455
780780
780B44
7C4004
7D0550
3F9001
2FF02D
06FAA0
01FE00
005400
ENDCHAR
STARTCHAR cedi
ENCODING 8373
SWIDTH 728 0
DWIDTH 12 0
BBX 12 16 0 -3
BITMAP
000540
006000
004004
051500
1C0001
3807F8
780BE0
780000
780000
780000
7C0000
7D1500
3F9000
1FF024
06FF80
01FE00
ENDCHAR
STARTCHAR indianrupee
ENCODING 8377
SWIDTH 713 0
DWIDTH 11 0
BBX 11 14 0 -2
BITMAP
055554
285540
B95004
BEA014
780100
780000
BFA024
780510
B80004
BFFD00
7FFD00
003D00
003FF4
002FD0
ENDCHAR
STARTCHAR turkishlira
ENCODING 8378
SWIDTH 795 0
DWIDTH 13 0
BBX 12 14 0 -2
BITMAP
055400
280000
780400
744100
B00500
F84015
F046C0
F807C0
F80640
780000
780000
780004
7FFFE0
7FFE40
ENDCHAR
STARTCHAR ruble
ENCODING 8381
SWIDTH 782 0
DWIDTH 13 0
BBX 13 14 0 -2
BITMAP
05555400
2C000100
7C000040
7C078440
7C078000
7C000400
7C400000
7C000000
7C06A000
74504000
F8010000
FC040000
BFE00000
7F800000
ENDCHAR
STARTCHAR liter
ENCODING 8467
SWIDTH 749 0
DWIDTH 12 0
BBX 12 14 0 -2
BITMAP
004050
050504
1C0001
380A00
780A00
780500
784040
780014
780BD0
7C0000
7D0000
7F4000
3FFFD0
0AFF40
ENDCHAR
STARTCHAR uni2117
ENCODING 8471
SWIDTH 967 0
DWIDTH 15 0
BBX 15 17 0 -4
BITMAP
00055540
01555550
097FFF90
2DA002D0
79A004D4
79A0A094
79A0A094
79A004D4
79A006D4
79A0BBD4
79A093D4
7D7A03D0
7D590654
3F500150
2FFAAA40
07FFF900
00154000
ENDCHAR
STARTCHAR uni2120
ENCODING 8480
SWIDTH 1003 0
DWIDTH 16 0
BBX 16 10 0 2
BITMAP
01545414
04018180
742B8044
B8028144
BD058104
BA9583C4
340183C0
BAABE7E9
BFEBE3F4
55414140
ENDCHAR
STARTCHAR trademark
ENCODING 8482
SWIDTH 1003 0
DWIDTH 16 0
BBX 16 10 0 2
BITMAP
05555414
70508180
F9068044
FE0B8144
6E0B8104
1E0B83C4
1E0B83C0
1F9BE7E9
1F8BE3F4
05014140
ENDCHAR
STARTCHAR Omega
ENCODING 8486
SWIDTH 877 0
DWIDTH 14 0
BBX 14 14 0 -2
BITMAP
00100100
01000040
09100400
2C028000
3C07D000
3C07D000
3C02D000
3C02D000
3D03D040
34118410
74018000
B4018010
BFFFFFD0
BFEBFE00
ENDCHAR
STARTCHAR estimated
ENCODING 8494
SWIDTH 815 0
DWIDTH 13 0
BBX 13 14 0 -2
BITMAP
00400400
01000000
18001000
38464000
780A8000
B8000000
B8400000
B8055540
B80BFD00
B8400100
7D140000
7F400100
2FFFF800
0AFFD000
ENDCHAR
STARTCHAR onethird
ENCODING 8531
SWIDTH 1269 0
DWIDTH 20 0
BBX 20 14 0 -2
BITMAP
0554055000
2810241000
7D00B41000
7F40B01550
1F40F02000
0F41E06000
0A41A07F40
1810507814
780094B800
BFFFC4FFD0
7FFB81A000
000781E001
0007FAFFF4
0007E2FFD0
ENDCHAR
STARTCHAR twothirds
ENCODING 8532
SWIDTH 1269 0
DWIDTH 20 0
BBX 20 14 0 -2
BITMAP
0555055000
2C00641000
7D50741000
7F91701550
1954B02000
2806E06000
7429A07F40
B400507814
B80054B800
BFFFC4FFD0
BFFF81A000
000781E001
0007FAFFF4
0007E2FFD0
ENDCHAR
STARTCHAR oneeighth
ENCODING 8539
SWIDTH 1283 0
DWIDTH 21 0
BBX 20 14 0 -2
BITMAP
0554055000
2810241000
7D00B41000
7F40B01400
1F41F02001
0F41E05000
0A41A061C1
181050A151
7800948000
BFFFC4C2D0
7FFB81C040
000781D000
0007FFFEA4
0007E1FF90
ENDCHAR
STARTCHAR threeeighths
ENCODING 8540
SWIDTH 1293 0
DWIDTH 21 0
BBX 21 14 0 -2
BITMAP
055505500000
280028000000
B940B4000000
BF90B4040000
6E04B0200100
2FF430200100
28002060D100
280060615100
780090900000
BFFFC0C1E040
7FE7C0C04040
0003C1E00000
0007FFFEA800
0007F5BF9000
ENDCHAR
STARTCHAR fiveeighths
ENCODING 8541
SWIDTH 1303 0
DWIDTH 21 0
BBX 21 14 0 -2
BITMAP
055545500000
284068000000
781AB8000000
780074010000
7C4034200100
7FF430200000
78002030D100
380020715500
780090900040
BFFFD091E000
7FE6C0D05000
0003C0E00000
0003FFFEA800
0007F5BF9000
ENDCHAR
STARTCHAR seveneighths
ENCODING 8542
SWIDTH 1241 0
DWIDTH 20 0
BBX 20 14 0 -2
BITMAP
0555554000
7400604000
B800604000
BFF0504400
6A40508004
0500808000
1D07C0C344
3D0781C554
3D07824001
3FDB424780
2F4B034140
000F038000
000FFFFAA0
000FD6FF40
ENDCHAR
STARTCHAR arrowleft
ENCODING 8592
SWIDTH 1100 0
DWIDTH 18 0
BBX 13 11 2 -1
BITMAP
00010000
00000000
00411040
04000000
18105400
7E050540
7FD02F40
1FF81800
02FF5000
007F8000
00090000
ENDCHAR
STARTCHAR arrowup
ENCODING 8593
SWIDTH 1100 0
DWIDTH 18 0
BBX 12 13 3 -2
BITMAP
000500
006040
00C000
024010
061044
1C1540
240001
BFE0B8
BFD0A0
02D040
02EA40
02FD00
005000
ENDCHAR
STARTCHAR arrowright
ENCODING 8594
SWIDTH 1100 0
DWIDTH 18 0
BBX 13 12 2 -1
BITMAP
00040000
00244000
00B41000
01A04100
18001040
78150400
7D500140
7FF40500
6AF45000
00F54000
00F80000
00900000
ENDCHAR
STARTCHAR arrowdown
ENCODING 8595
SWIDTH 1100 0
DWIDTH 18 0
BBX 12 12 3 -1
BITMAP
005040
01D000
03D000
055014
280001
BD1044
BF0000
3F8510
1FD040
0BF000
03F900
01F400
ENDCHAR
STARTCHAR arrowupleft
ENCODING 8598
SWIDTH 1100 0
DWIDTH 18 0
BBX 11 10 3 0
BITMAP
040000
280004
BC0104
7C0010
7D0410
3E0004
3E0800
2F2F00
1F7F90
1D0F40
ENDCHAR
STARTCHAR arrowupright
ENCODING 8599
SWIDTH 1100 0
DWIDTH 18 0
BBX 11 10 3 -1
BITMAP
050000
1D0414
7F4404
2F8544
091000
180500
7E1F50
7FAFD0
1E0B40
040000
ENDCHAR
STARTCHAR arrowdownright
ENCODING 8600
SWIDTH 1100 0
DWIDTH 18 0
BBX 11 11 3 -1
BITMAP
011050
040500
1C0004
7F0044
7F8404
0E0004
080000
2F9400
7FFFE4
05BFE0
000140
ENDCHAR
STARTCHAR arrowdownleft
ENCODING 8601
SWIDTH 1100 0
DWIDTH 18 0
BBX 11 11 3 -1
BITMAP
014050
060504
1E0040
1D1100
2D0410
3C4100
3C4000
780164
7EBFD0
BFA500
100000
ENDCHAR
STARTCHAR uni21AA
ENCODING 8618
SWIDTH 1100 0
DWIDTH 18 0
BBX 14 15 2 -3
BITMAP
01000000
08000000
3846A900
782FF800
B8195000
B81D0000
B82E0100
B8401000
BD155010
7F551040
3FFE0500
06AD1400
002E8000
003D0000
00100000
ENDCHAR
STARTCHAR uni21AB
ENCODING 8619
SWIDTH 1100 0
DWIDTH 18 0
BBX 13 16 2 -3
BITMAP
00400000
02000040
0F000000
1FAA9400
1FFFF800
05557800
00007800
0040B800
00040100
14155400
BD045500
BF90BC00
1FF45000
06FE4000
007E0000
00140000
ENDCHAR
STARTCHAR uni21B0
ENCODING 8624
SWIDTH 1100 0
DWIDTH 18 0
BBX 13 13 2 -2
BITMAP
00040000
00100000
01005400
04140000
24140440
FE04A000
BFD0B000
1FF87400
02FFB400
007DF400
0000F440
0000FF40
0000F900
ENDCHAR
STARTCHAR uni21B1
ENCODING 8625
SWIDTH 1100 0
DWIDTH 18 0
BBX 14 13 2 -2
BITMAP
00080000
003D0400
00690100
01001000
08005410
3C091140
7C1D0500
7C1C6000
7C1E4000
7C180000
7C100000
7F800000
7E000000
ENDCHAR
STARTCHAR uni21B2
ENCODING 8626
SWIDTH 1100 0
DWIDTH 18 0
BBX 13 14 2 -2
BITMAP
00000400
00002400
0000B400
0001B400
00047400
0040B000
01045040
14155440
78040100
FF40B800
7FE0A000
0BFD4000
01FF4000
00280000
ENDCHAR
STARTCHAR uni21B3
ENCODING 8627
SWIDTH 1100 0
DWIDTH 18 0
BBX 13 13 2 -2
BITMAP
18000000
78000000
B8040000
B8280000
B82C0400
B8140000
B8154400
BE005040
7FFD0100
1BFC1400
00388000
007D0000
00600000
ENDCHAR
STARTCHAR partialdiff
ENCODING 8706
SWIDTH 792 0
DWIDTH 13 0
BBX 12 14 0 -2
BITMAP
015550
060001
1E0011
1F5500
1FEA40
090000
180014
784644
B84B40
B84500
BC0051
BE0004
7FFAA0
1BFF80
ENDCHAR
STARTCHAR Delta
ENCODING 8710
SWIDTH 830 0
DWIDTH 13 0
BBX 13 14 0 -2
BITMAP
00555000
01400000
07440100
0F111100
0E134100
1D034000
2D078440
3C0BC000
380BC000
78000000
78000400
B8000040
BFFFFF00
7FFFF800
ENDCHAR
STARTCHAR product
ENCODING 8719
SWIDTH 859 0
DWIDTH 14 0
BBX 13 14 0 -2
BITMAP
01555540
1C000000
7C400000
7C054000
7C07D000
7C07D000
7C03D000
7C03D000
7C03D000
7C03D000
7C03D000
7C07D040
7FE3FF40
3F82F900
ENDCHAR
STARTCHAR summation
ENCODING 8721
SWIDTH 750 0
DWIDTH 12 0
BBX 12 16 0 -4
BITMAP
055554
180000
7C4000
7C0154
7D00B4
7F4010
2FD100
0BD110
024400
051000
184154
784000
B80000
BEAAA9
BFFFF4
155540
ENDCHAR
STARTCHAR minus
ENCODING 8722
SWIDTH 834 0
DWIDTH 13 0
BBX 13 6 0 2
BITMAP
01000000
08000000
3C000000
7D555540
7FFFFE00
2AAAA400
ENDCHAR
STARTCHAR uni2215
ENCODING 8725
SWIDTH 417 0
DWIDTH 7 0
BBX 7 14 0 -2
BITMAP
0154
0604
1E04
1D04
2D04
3C00
3C00
7810
7810
B510
B010
F000
FF40
FD00
ENDCHAR
STARTCHAR uni2219
ENCODING 8729
SWIDTH 464 0
DWIDTH 7 0
BBX 7 7 0 2
BITMAP
0404
1800
7800
B800
B800
BFF4
BFD0
ENDCHAR
STARTCHAR radical
ENCODING 8730
SWIDTH 841 0
DWIDTH 13 0
BBX 14 15 0 -2
BITMAP
00001410
00007000
0000E100
0001D000
0002D000
1406C400
74438400
F4138400
FE124000
FF400000
1F840000
0BC00000
07E00400
03FFE000
01FF8000
ENDCHAR
STARTCHAR infinity
ENCODING 8734
SWIDTH 978 0
DWIDTH 16 0
BBX 15 12 0 -1
BITMAP
00000540
01005004
18111040
78084610
B81D4B50
B81D4B50
B8190610
B8400000
BD004004
7FEBFAA0
2FFBFF40
01405400
ENDCHAR
STARTCHAR integral
ENCODING 8747
SWIDTH 574 0
DWIDTH 9 0
BBX 10 17 0 -4
BITMAP
001000
014000
070010
0E1180
1E1100
1E1000
1E1000
1E1000
1E1000
1E1000
1E1000
151000
704100
F00400
FAA000
FF8000
540000
ENDCHAR
STARTCHAR approxequal
ENCODING 8776
SWIDTH 834 0
DWIDTH 13 0
BBX 13 10 0 0
BITMAP
01005140
1C040000
3C000040
7EBEA900
7FABF900
14000040
2C010000
7C540040
7FFFFD00
7AAFE400
ENDCHAR
STARTCHAR notequal
ENCODING 8800
SWIDTH 834 0
DWIDTH 13 0
BBX 13 13 0 -2
BITMAP
00080400
05540500
1C004000
7C000000
7EA01A00
7FF02D00
19000040
2C010000
7C000040
7FD07E00
7FE5B800
02FD0000
01540000
ENDCHAR
STARTCHAR lessequal
ENCODING 8804
SWIDTH 814 0
DWIDTH 13 0
BBX 11 14 1 -2
BITMAP
000054
001400
000000
144014
7006E0
F01A40
F44000
F80000
FF9000
740000
B00000
F40004
FFFFF4
FFFF80
ENDCHAR
STARTCHAR greaterequal
ENCODING 8805
SWIDTH 814 0
DWIDTH 13 0
BBX 11 14 1 -2
BITMAP
054000
740500
F40010
F90040
FFE410
6FF910
054040
240004
B401A0
F40000
F40000
F40000
FFFFF4
BFFFD0
ENDCHAR
STARTCHAR block
ENCODING 9608
SWIDTH 1000 0
DWIDTH 16 0
BBX 18 18 -1 -3
BITMAP
5555555550
BFFFFFFFE0
BFFFFFFFE0
BFFFFFFFE0
BFFFFFFFE0
BFFFFFFFE0
BFFFFFFFE0
BFFFFFFFE0
BFFFFFFFE0
BFFFFFFFE0
BFFFFFFFE0
BFFFFFFFE0
BFFFFFFFE0
BFFFFFFFE0
BFFFFFFFE0
BFFFFFFFE0
BFFFFFFFE0
6AAAAAAA90
ENDCHAR
STARTCHAR blacksquare
ENCODING 9632
SWIDTH 1100 0
DWIDTH 18 0
BBX 10 9 4 0
BITMAP
240000
B40000
F40000
F40000
F40000
F40000
F95550
FFFF40
6AA900
ENDCHAR
STARTCHAR blackuppointingtriangle
ENCODING 9650
SWIDTH 1100 0
DWIDTH 18 0
BBX 11 10 3 0
BITMAP
000400
002000
009040
018010
030500
090504
1C0000
395554
BFFFF4
6AAA90
ENDCHAR
STARTCHAR whiteuppointingtriangle
ENCODING 9651
SWIDTH 1100 0
DWIDTH 18 0
BBX 10 8 5 2
BITMAP
005000
011000
010400
040100
140100
100040
400040
555550
ENDCHAR
STARTCHAR blackrightpointingtriangle
ENCODING 9654
SWIDTH 1100 0
DWIDTH 18 0
BBX 10 11 4 -1
BITMAP
244000
B40000
F40100
F45000
F45010
F44140
F40900
F46000
FA4000
F80000
400000
ENDCHAR
STARTCHAR whiterightpointingtriangle
ENCODING 9655
SWIDTH 1100 0
DWIDTH 18 0
BBX 8 10 6 1
BITMAP
4000
5400
4140
4050
4005
4001
4014
4140
4500
5000
ENDCHAR
STARTCHAR blackdownpointingtriangle
ENCODING 9660
SWIDTH 1100 0
DWIDTH 18 0
BBX 12 10 3 0
BITMAP
040000
280001
BD1504
7E0500
3F4010
1FC000
0BE000
03F500
01F800
009000
ENDCHAR
STARTCHAR whitedownpointingtriangle
ENCODING 9661
SWIDTH 1100 0
DWIDTH 18 0
BBX 10 8 5 2
BITMAP
555540
400010
100040
100100
040100
050400
010400
005000
ENDCHAR
STARTCHAR blackleftpointingtriangle
ENCODING 9664
SWIDTH 1100 0
DWIDTH 18 0
BBX 10 11 4 -1
BITMAP
000100
001000
004000
040500
241000
BE0000
BFD000
1FF900
02FF90
006F40
000500
ENDCHAR
STARTCHAR whiteleftpointingtriangle
ENCODING 9665
SWIDTH 1100 0
DWIDTH 18 0
BBX 8 10 6 1
BITMAP
0004
0011
0141
1401
4001
4001
1401
0501
0051
0005
ENDCHAR
STARTCHAR blackdiamond
ENCODING 9670
SWIDTH 1100 0
DWIDTH 18 0
BBX 12 12 3 -1
BITMAP
000400
001000
004000
010400
041000
241041
BD0504
BF4010
2FD040
0BF500
02F800
009000
ENDCHAR
STARTCHAR lozenge
ENCODING 9674
SWIDTH 831 0
DWIDTH 13 0
BBX 13 14 0 -2
BITMAP
00155000
00800400
03440000
0B101100
0D134000
1C078400
3C078000
7D034440
7E120100
3F001100
1F814000
0FC00400
0BFFE000
02FF4000
ENDCHAR
STARTCHAR uni25D6
ENCODING 9686
SWIDTH 546 0
DWIDTH 9 0
BBX 10 18 0 -3
BITMAP
000140
006FD0
02FFD0
0BFFD0
2FFFD0
6FFFD0
7FFFD0
BFFFD0
BFFFD0
BFFFD0
BFFFD0
BFFFD0
7FFFD0
2FFFD0
1FFFD0
07FFD0
01BFD0
001690
ENDCHAR
STARTCHAR uni25D7
ENCODING 9687
SWIDTH 546 0
DWIDTH 9 0
BBX 10 18 -1 -3
BITMAP
540000
BF9000
BFF800
BFFE00
BFFF40
BFFF80
BFFFD0
BFFFD0
BFFFD0
BFFFE0
BFFFD0
BFFFD0
BFFF80
BFFF80
BFFE00
BFF900
BFA000
694000
ENDCHAR
STARTCHAR uni25DC
ENCODING 9692
SWIDTH 1280 0
DWIDTH 20 0
BBX 18 18 1 -3
BITMAP
0000005550
00005BFFE0
0006FFFFE0
002FFFFFE0
00BFFFFFE0
02FFFFFFE0
07FFFFFFE0
0BFFFFFFE0
1FFFFFFFE0
1FFFFFFFE0
2FFFFFFFE0
3FFFFFFFE0
7FFFFFFFE0
7FFFFFFFE0
7FFFFFFFE0
7FFFFFFFE0
7FFFFFFFE0
6AAAAAAAA0
ENDCHAR
STARTCHAR uni25DD
ENCODING 9693
SWIDTH 1280 0
DWIDTH 20 0
BBX 18 18 1 -3
BITMAP
1554000000
7FFE900000
7FFFF90000
7FFFFF9000
7FFFFFF400
7FFFFFF900
7FFFFFFE00
7FFFFFFF40
7FFFFFFF80
7FFFFFFFC0
7FFFFFFFD0
7FFFFFFFD0
7FFFFFFFE0
7FFFFFFFE0
7FFFFFFFE0
7FFFFFFFE0
7FFFFFFFE0
6AAAAAAAA0
ENDCHAR
STARTCHAR uni25DE
ENCODING 9694
SWIDTH 1280 0
DWIDTH 20 0
BBX 18 18 1 -3
BITMAP
1555555550
7FFFFFFFE0
7FFFFFFFE0
7FFFFFFFE0
7FFFFFFFE0
7FFFFFFFE0
7FFFFFFFD0
7FFFFFFFD0
7FFFFFFFD0
7FFFFFFF80
7FFFFFFF40
7FFFFFFE00
7FFFFFFD00
7FFFFFF800
7FFFFFE000
7FFFFE4000
7FFFE40000
6AA9400000
ENDCHAR
STARTCHAR uni25DF
ENCODING 9695
SWIDTH 1280 0
DWIDTH 20 0
BBX 18 18 1 -3
BITMAP
1555555550
7FFFFFFFE0
7FFFFFFFE0
7FFFFFFFE0
7FFFFFFFE0
7FFFFFFFE0
7FFFFFFFE0
2FFFFFFFE0
2FFFFFFFE0
1FFFFFFFE0
0BFFFFFFE0
07FFFFFFE0
02FFFFFFE0
01BFFFFFE0
006FFFFFE0
001BFFFFE0
0001BFFFE0
000005AAA0
ENDCHAR
STARTCHAR uni261A
ENCODING 9754
SWIDTH 1100 0
DWIDTH 18 0
BBX 15 11 1 -1
BITMAP
00000144
04000140
2D540040
7FF00040
1AF50040
01F90040
00F80040
00BEAA40
00BFFFA0
00014FD0
00000100
ENDCHAR
STARTCHAR uni261B
ENCODING 9755
SWIDTH 1100 0
DWIDTH 18 0
BBX 14 11 2 -1
BITMAP
14400000
74400010
F4401550
F4400780
F4401500
F4401400
F4400000
F4AA9000
FAFF4000
FD500000
10000000
ENDCHAR
STARTCHAR uni261C
ENCODING 9756
SWIDTH 1100 0
DWIDTH 18 0
BBX 13 9 3 1
BITMAP
01550640
54005580
15500580
01400580
00500580
00500580
00400580
00155580
00000540
ENDCHAR
STARTCHAR uni261D
ENCODING 9757
SWIDTH 1100 0
DWIDTH 18 0
BBX 9 12 5 0
BITMAP
140000
110000
110000
125000
114900
104500
100100
100100
100100
155640
400040
7FFFC0
ENDCHAR
STARTCHAR uni261E
ENCODING 9758
SWIDTH 1100 0
DWIDTH 18 0
BBX 12 9 4 1
BITMAP
941550
C54005
C40155
C40040
C40140
C40540
C40100
C55500
500000
ENDCHAR
STARTCHAR uni261F
ENCODING 9759
SWIDTH 1100 0
DWIDTH 18 0
BBX 9 12 5 0
BITMAP
6AAA80
555580
555540
100100
100040
100040
100040
114440
055440
000440
000440
000500
ENDCHAR
STARTCHAR uni27A1
ENCODING 10145
SWIDTH 650 0
DWIDTH 10 0
BBX 12 24 -1 -6
BITMAP
140000
2E0000
2F8000
6FD000
BFE400
BFF800
BFFE00
BFFF40
BFFF90
BFFFE0
BFFFF4
BFFFF8
BFFFFD
BFFFF8
BFFFE4
BFFFD0
BFFF80
BFFE00
BFF900
BFF400
6FE000
2F8000
2E4000
290000
ENDCHAR
STARTCHAR uni2B1B
ENCODING 11035
SWIDTH 1280 0
DWIDTH 20 0
BBX 18 18 1 -3
BITMAP
1555555550
7FFFFFFFE0
7FFFFFFFE0
7FFFFFFFE0
7FFFFFFFE0
7FFFFFFFE0
7FFFFFFFE0
7FFFFFFFE0
7FFFFFFFE0
7FFFFFFFE0
7FFFFFFFE0
7FFFFFFFE0
7FFFFFFFE0
7FFFFFFFE0
7FFFFFFFE0
7FFFFFFFE0
7FFFFFFFE0
6AAAAAAAA0
ENDCHAR
STARTCHAR uni2B24
ENCODING 11044
SWIDTH 1280 0
DWIDTH 20 0
BBX 19 19 1 -4
BITMAP
0005650000
006FFFA400
02FFFFF900
0BFFFFFE40
1FFFFFFF80
2FFFFFFFD0
7FFFFFFFE0
BFFFFFFFE4
BFFFFFFFE4
BFFFFFFFF4
BFFFFFFFE4
7FFFFFFFE0
7FFFFFFFE0
2FFFFFFFD0
1FFFFFFF80
0BFFFFFE40
02FFFFF900
006BFF9000
0001550000
ENDCHAR
STARTCHAR A.salt
ENCODING 57600
SWIDTH 836 0
DWIDTH 13 0
BBX 13 14 0 -2
BITMAP
00400000
01000000
1C100000
3C068000
7C0BC000
7C0BC000
7C000000
7C400400
7C000000
7C0BC000
7C0BC000
7C07C040
7FE7FE00
7F83F800
ENDCHAR
STARTCHAR Agrave.salt
ENCODING 57601
SWIDTH 836 0
DWIDTH 13 0
BBX 13 18 0 -2
BITMAP
00400000
02400000
0B400000
0FE95000
0B955400
01000000
1C100000
3C068000
7C0BC000
7C0BC000
7C000000
7C400400
7C000000
7C0BC000
7C0BC000
7C07C040
7FE7FE00
7F83F800
ENDCHAR
STARTCHAR Aacute.salt
ENCODING 57602
SWIDTH 836 0
DWIDTH 13 0
BBX 13 17 0 -2
BITMAP
00400000
02800000
0B856800
0B955400
09000000
1C100040
3C068000
7C0BC000
7C0BC000
7C000000
7C400400
7C000000
7C0BC000
7C0BC000
7C07C040
7FE7FE00
7F83F800
ENDCHAR
STARTCHAR Acircumflex.salt
ENCODING 57603
SWIDTH 836 0
DWIDTH 13 0
BBX 13 18 0 -2
BITMAP
00004000
00400400
02400000
0B5A9000
0F955400
09000000
1C100040
3C068000
7C0BC000
7C0BC000
7C000000
7C400400
7C000000
7C0BC000
7C0BC000
7C07C040
7FE7FE00
7F83F800
ENDCHAR
STARTCHAR Atilde.salt
ENCODING 57604
SWIDTH 836 0
DWIDTH 13 0
BBX 13 17 0 -2
BITMAP
00400000
07400000
0B550400
0F955400
09000000
1C100000
3C068000
7C0BC000
7C0BC000
7C000000
7C400400
7C000000
7C0BC000
7C0BC000
7C07C040
7FE7FE00
7F83F800
ENDCHAR
STARTCHAR Adieresis.salt
ENCODING 57605
SWIDTH 836 0
DWIDTH 13 0
BBX 13 18 0 -2
BITMAP
00400000
02020000
0B020000
1F424100
1F955800
09000000
1C100040
3C068000
7C0BC000
7C0BC000
7C000000
7C400400
7C000000
7C0BC000
7C0BC000
7C07C040
7FE7FE00
7F83F800
ENDCHAR
STARTCHAR Aring.salt
ENCODING 57606
SWIDTH 836 0
DWIDTH 13 0
BBX 13 18 0 -2
BITMAP
00115000
00450400
03511000
0B478000
0F515100
0E054000
1C100000
3C068000
7C0BC000
7C0BC000
7C000000
7C400400
7C000000
7C0BC000
7C0BC000
7C07C040
7FE7FE00
7F83F800
ENDCHAR
STARTCHAR Amacron.salt
ENCODING 57607
SWIDTH 836 0
DWIDTH 13 0
BBX 13 17 0 -2
BITMAP
00400000
07400000
0F800400
0F955400
09000000
1C100040
3C068000
7C0BC000
7C0BC000
7C000000
7C400400
7C000000
7C0BC000
7C0BC000
7C07C040
7FE7FE00
7F83F800
ENDCHAR
STARTCHAR Abreve.salt
ENCODING 57608
SWIDTH 836 0
DWIDTH 13 0
BBX 13 18 0 -2
BITMAP
00545400
07414000
0F445000
0FD01400
0B955400
01000000
1C100040
3C068000
7C0BC000
7C0BC000
7C000000
7C400400
7C000000
7C0BC000
7C0BC000
7C07C040
7FE7FE00
7F83F800
ENDCHAR
STARTCHAR Aogonek.salt
ENCODING 57609
SWIDTH 836 0
DWIDTH 13 0
BBX 13 17 0 -5
BITMAP
00400000
01000000
1C100000
3C068000
7C0BC000
7C0BC000
7C000000
7C400400
7C000000
7C0BC000
7C0BC400
7C07C040
7FE78140
7F878400
000BD040
000BFF00
0002F800
ENDCHAR
STARTCHAR E.salt
ENCODING 57610
SWIDTH 743 0
DWIDTH 12 0
BBX 12 14 0 -2
BITMAP
005554
010000
081000
3805A4
780AA4
780000
784000
780550
780BD0
7C4001
7D1400
7F4001
2FFFF8
06FFD0
ENDCHAR
STARTCHAR Egrave.salt
ENCODING 57611
SWIDTH 743 0
DWIDTH 12 0
BBX 12 18 0 -2
BITMAP
004000
060004
1F0000
1FA544
1FE554
050000
081000
3805A4
780AA4
780000
784000
780550
780BD0
7C4001
7D1400
7F4001
2FFFF8
06FFD0
ENDCHAR
STARTCHAR Eacute.salt
ENCODING 57612
SWIDTH 743 0
DWIDTH 12 0
BBX 12 18 0 -2
BITMAP
000004
004000
074000
0F45A4
0FE554
0A0000
081000
3805A4
780AA4
780000
784000
780550
780BD0
7C4001
7D1400
7F4001
2FFFF8
06FFD0
ENDCHAR
STARTCHAR Ecircumflex.salt
ENCODING 57613
SWIDTH 743 0
DWIDTH 12 0
BBX 12 18 0 -2
BITMAP
000140
014004
070000
0F1A94
1FE554
0E0000
081000
3805A4
780AA4
780000
784000
780550
780BD0
7C4001
7D1400
7F4001
2FFFF8
06FFD0
ENDCHAR
STARTCHAR Edieresis.salt
ENCODING 57614
SWIDTH 743 0
DWIDTH 12 0
BBX 12 18 0 -2
BITMAP
000040
020200
0E0300
1F4744
1FE554
1A0000
081000
3805A4
780AA4
780000
784000
780550
780BD0
7C4001
7D1400
7F4001
2FFFF8
06FFD0
ENDCHAR
STARTCHAR Emacron.salt
ENCODING 57615
SWIDTH 743 0
DWIDTH 12 0
BBX 12 17 0 -2
BITMAP
014004
074000
0F4004
0FE554
0A0000
081000
3805A4
780AA4
780000
784000
780550
780BD0
7C4001
7D1400
7F4001
2FFFF8
06FFD0
ENDCHAR
STARTCHAR Ebreve.salt
ENCODING 57616
SWIDTH 743 0
DWIDTH 12 0
BBX 12 18 0 -2
BITMAP
005454
070240
0F4440
0FD014
0FE554
060000
081000
3805A4
780AA4
780000
784000
780550
780BD0
7C4001
7D1400
7F4001
2FFFF8
06FFD0
ENDCHAR
STARTCHAR Edotaccent.salt
ENCODING 57617
SWIDTH 743 0
DWIDTH 12 0
BBX 12 17 0 -2
BITMAP
006000
01E000
02F410
02E554
010000
081000
3805A4
780AA4
780000
784000
780550
780BD0
7C4001
7D1400
7F4001
2FFFF8
06FFD0
ENDCHAR
STARTCHAR Eogonek.salt
ENCODING 57618
SWIDTH 743 0
DWIDTH 12 0
BBX 12 17 0 -5
BITMAP
005554
010000
081000
3805A4
780AA4
780000
784000
780550
780BD0
7C4001
7D1410
7F4001
2FFD48
06FD00
002E01
002FF8
001BE0
ENDCHAR
STARTCHAR Ecaron.salt
ENCODING 57619
SWIDTH 743 0
DWIDTH 12 0
BBX 12 18 0 -2
BITMAP
015454
070000
0F4444
0FE464
0FE554
010000
081000
3805A4
780AA4
780000
784000
780550
780BD0
7C4001
7D1400
7F4001
2FFFF8
06FFD0
ENDCHAR
STARTCHAR I.salt
ENCODING 57620
SWIDTH 471 0
DWIDTH 8 0
BBX 7 14 0 -2
BITMAP
0154
1C00
7C00
7C00
7C00
7C00
7C00
7C00
7C00
7C00
7C00
7C04
7FF0
3F80
ENDCHAR
STARTCHAR Igrave.salt
ENCODING 57621
SWIDTH 471 0
DWIDTH 8 0
BBX 8 17 0 -2
BITMAP
1401
B400
BE55
BE59
2C00
7C00
7C00
7C00
7C00
7C00
7C00
7C00
7C00
7C00
7C04
7FF0
3F80
ENDCHAR
STARTCHAR Iacute.salt
ENCODING 57622
SWIDTH 471 0
DWIDTH 8 0
BBX 8 18 0 -2
BITMAP
0001
0400
2840
B959
BE54
7C00
7C00
7C00
7C00
7C00
7C00
7C00
7C00
7C00
7C00
7C04
7FF0
3F80
ENDCHAR
STARTCHAR Icircumflex.salt
ENCODING 57623
SWIDTH 471 0
DWIDTH 8 0
BBX 8 18 0 -2
BITMAP
0110
1001
7000
F6A5
FE58
5C00
7C00
7C00
7C00
7C00
7C00
7C00
7C00
7C00
7C00
7C04
7FF0
3F80
ENDCHAR
STARTCHAR Idieresis.salt
ENCODING 57624
SWIDTH 471 0
DWIDTH 8 0
BBX 9 17 0 -2
BITMAP
605000
E06000
E0A040
FE5A00
6C0400
7C0000
7C0000
7C0000
7C0000
7C0000
7C0000
7C0000
7C0000
7C0000
7C0400
7FF000
3F8000
ENDCHAR
STARTCHAR Itilde.salt
ENCODING 57625
SWIDTH 471 0
DWIDTH 8 0
BBX 8 17 0 -2
BITMAP
1001
A040
B541
BE58
1C00
7C00
7C00
7C00
7C00
7C00
7C00
7C00
7C00
7C00
7C04
7FF0
3F80
ENDCHAR
STARTCHAR Imacron.salt
ENCODING 57626
SWIDTH 471 0
DWIDTH 8 0
BBX 8 17 0 -2
BITMAP
1400
7400
F401
FE58
BC00
7C00
7C00
7C00
7C00
7C00
7C00
7C00
7C00
7C00
7C04
7FF0
3F80
ENDCHAR
STARTCHAR Ibreve.salt
ENCODING 57627
SWIDTH 471 0
DWIDTH 8 0
BBX 9 18 -1 -2
BITMAP
055540
181000
7C4040
7E4100
7F9500
1F0000
1F0000
1F0000
1F0000
1F0000
1F0000
1F0000
1F0000
1F0000
1F0000
1F0100
1FFC00
0FE000
ENDCHAR
STARTCHAR Iogonek.salt
ENCODING 57628
SWIDTH 471 0
DWIDTH 8 0
BBX 7 17 0 -5
BITMAP
0154
1C00
3C00
3C00
3C00
3C00
3C00
3C00
3C00
3C00
3C40
3C44
3C54
7840
7D04
7FF4
2F80
ENDCHAR
STARTCHAR Idotaccent.salt
ENCODING 57629
SWIDTH 471 0
DWIDTH 8 0
BBX 7 18 0 -2
BITMAP
0100
0800
3C00
7D04
7E54
3C00
7C00
7C00
7C00
7C00
7C00
7C00
7C00
7C00
7C00
7C04
7FF0
3F80
ENDCHAR
STARTCHAR L.salt
ENCODING 57630
SWIDTH 715 0
DWIDTH 11 0
BBX 12 14 0 -2
BITMAP
015000
1C0000
7C0000
7C0000
7C0000
7C0000
7C0000
7C0000
7C0400
7C0000
7C0000
7C0001
7FFFF8
3FFFD0
ENDCHAR
STARTCHAR Lacute.salt
ENCODING 57631
SWIDTH 715 0
DWIDTH 11 0
BBX 12 17 0 -2
BITMAP
050010
1C0010
7C5690
7E5B40
3C0400
7C0000
7C0000
7C0000
7C0000
7C0000
7C0000
7C0400
7C0000
7C0000
7C0001
7FFFF8
3FFFD0
ENDCHAR
STARTCHAR Lcommaaccent.salt
ENCODING 57632
SWIDTH 715 0
DWIDTH 11 0
BBX 12 20 0 -8
BITMAP
015000
1C0000
7C0000
7C0000
7C0000
7C0000
7C0000
7C0000
7C0400
7C0000
7C0000
7C0001
7FFAB8
3FD010
02D100
03E400
03E500
02E540
02FD00
01A400
ENDCHAR
STARTCHAR Lcaron.salt
ENCODING 57633
SWIDTH 715 0
DWIDTH 11 0
BBX 12 14 0 -2
BITMAP
015055
1C0641
7C0711
7C0701
7C0754
7C07E0
7C0680
7C0000
7C0400
7C0000
7C0000
7C0001
7FFFF8
3FFFD0
ENDCHAR
STARTCHAR Ldot.salt
ENCODING 57634
SWIDTH 715 0
DWIDTH 11 0
BBX 12 14 0 -2
BITMAP
015000
1C0000
7C0000
7C0040
7C0601
7C0701
7C0755
7C07F8
7C06A0
7C0000
7C0000
7C0001
7FFFF8
3FFFD0
ENDCHAR
STARTCHAR Lslash.salt
ENCODING 57635
SWIDTH 725 0
DWIDTH 12 0
BBX 12 14 0 -2
BITMAP
015400
1C0000
3C0000
3C0100
380040
705040
F00100
F80500
FC0000
7C0000
3C0000
3D0001
3FFFF8
3FFFE0
ENDCHAR
STARTCHAR M.salt
ENCODING 57636
SWIDTH 1170 0
DWIDTH 19 0
BBX 18 14 0 -2
BITMAP
0040040140
0100000010
1C10040100
3C06446000
7C0B84B400
7C0B84B400
7C0B84B400
7C0B84B400
7C0B84B400
7C0B84B400
7C0B80B400
7C0B80F400
7FEBFEFFD0
7F87F4BE40
ENDCHAR
STARTCHAR N.salt
ENCODING 57637
SWIDTH 846 0
DWIDTH 14 0
BBX 13 14 0 -2
BITMAP
00500400
01000000
0C100400
3C064000
7C0BC000
7C07C000
7C07C000
7C07C000
7C07C000
7C07C000
7C07C000
7C07C040
7FE7FF40
7F83F800
ENDCHAR
STARTCHAR Ntilde.salt
ENCODING 57638
SWIDTH 846 0
DWIDTH 14 0
BBX 13 17 0 -2
BITMAP
00400000
03410000
0B950400
0B955400
0A000000
0C100440
3C064000
7C0BC000
7C07C000
7C07C000
7C07C000
7C07C000
7C07C000
7C07C000
7C07C040
7FE7FF40
7F83F800
ENDCHAR
STARTCHAR Nacute.salt
ENCODING 57639
SWIDTH 846 0
DWIDTH 14 0
BBX 13 17 0 -2
BITMAP
00400000
02800000
0B856800
0B955400
06000000
0C100440
3C064000
7C0BC000
7C07C000
7C07C000
7C07C000
7C07C000
7C07C000
7C07C000
7C07C040
7FE7FF40
7F83F800
ENDCHAR
STARTCHAR Ncommaaccent.salt
ENCODING 57640
SWIDTH 846 0
DWIDTH 14 0
BBX 13 20 0 -8
BITMAP
00500400
01000000
0C100400
3C064000
7C0BC000
7C07C000
7C07C000
7C07C000
7C07C000
7C07C000
7C07C000
7C07C040
7FE6BF40
7FA01800
00F05000
01F51000
01F55000
00B54000
00FE0000
00A80000
ENDCHAR
STARTCHAR Ncaron.salt
ENCODING 57641
SWIDTH 846 0
DWIDTH 14 0
BBX 13 18 0 -2
BITMAP
00541400
03400000
0B844000
0BE46400
0B955400
01000000
0C100440
3C064000
7C0BC000
7C07C000
7C07C000
7C07C000
7C07C000
7C07C000
7C07C000
7C07C040
7FE7FF40
7F83F800
ENDCHAR
STARTCHAR W.salt
ENCODING 57642
SWIDTH 1170 0
DWIDTH 19 0
BBX 18 14 0 -2
BITMAP
0550550550
1802806400
7C0B84B440
7C0B84B440
7C0B84B440
7C0B84B440
7C0B84B440
7C0B84B440
7C0784B440
7C00040000
7C10000000
7E40040040
2FFAFFEA00
0BFEBFF800
ENDCHAR
STARTCHAR Wcircumflex.salt
ENCODING 57643
SWIDTH 1170 0
DWIDTH 19 0
BBX 18 18 0 -2
BITMAP
0000050000
0001001000
001C000000
003C6A5000
055FD6D550
1806806400
7C0B84B440
7C0B84B440
7C0B84B440
7C0B84B440
7C0B84B440
7C0B84B440
7C0784B440
7C00040000
7C10000000
7E40040040
2FFAFFEA00
0BFEBFF800
ENDCHAR
STARTCHAR Wgrave.salt
ENCODING 57644
SWIDTH 1170 0
DWIDTH 19 0
BBX 18 18 0 -2
BITMAP
0001000000
0018001000
007C001000
007E951000
055FD68550
1807806400
7C0B84B440
7C0B84B440
7C0B84B440
7C0B84B440
7C0B84B440
7C0B84B440
7C0784B440
7C00040000
7C10000000
7E40040040
2FFAFFEA00
0BFEBFF800
ENDCHAR
STARTCHAR Wacute.salt
ENCODING 57645
SWIDTH 1170 0
DWIDTH 19 0
BBX 18 18 0 -2
BITMAP
0000001000
0001000000
001D000000
003D169000
055FD64550
1807806400
7C0B84B440
7C0B84B440
7C0B84B440
7C0B84B440
7C0B84B440
7C0B84B440
7C0784B440
7C00040000
7C10000000
7E40040040
2FFAFFEA00
0BFEBFF800
ENDCHAR
STARTCHAR Wdieresis.salt
ENCODING 57646
SWIDTH 1170 0
DWIDTH 19 0
BBX 18 17 0 -2
BITMAP
0018080000
0078080000
00B81D1000
055FD6D550
1807806400
7C0B84B440
7C0B84B440
7C0B84B440
7C0B84B440
7C0B84B440
7C0B84B440
7C0784B440
7C00040000
7C10000000
7E40040040
2FFAFFEA00
0BFEBFF800
ENDCHAR
STARTCHAR X.salt
ENCODING 57647
SWIDTH 837 0
DWIDTH 13 0
BBX 13 14 0 -2
BITMAP
01505500
1D018000
3E034400
3F024000
2F010100
1D000040
1C155000
38014000
780BC000
780BC000
7807C000
7C07C040
7FE7FF00
7F83F800
ENDCHAR
STARTCHAR Y.salt
ENCODING 57648
SWIDTH 806 0
DWIDTH 13 0
BBX 11 14 0 -2
BITMAP
040040
280580
B84B80
B84B80
B84B80
B84640
B80000
BD0100
7F9014
2FE010
06E000
02E010
02FF80
01FE00
ENDCHAR
STARTCHAR Yacute.salt
ENCODING 57649
SWIDTH 806 0
DWIDTH 13 0
BBX 11 18 0 -2
BITMAP
000004
004000
074000
0F4564
0AAFD0
280680
B84B80
B84B80
B84B80
B84640
B80000
BD0100
7F9014
2FE010
06E000
02E010
02FF80
01FE00
ENDCHAR
STARTCHAR Ycircumflex.salt
ENCODING 57650
SWIDTH 806 0
DWIDTH 13 0
BBX 11 18 0 -2
BITMAP
000140
004004
070000
0F5A94
0EAFE4
280780
B84B80
B84B80
B84B80
B84640
B80000
BD0100
7F9014
2FE010
06E000
02E010
02FF80
01FE00
ENDCHAR
STARTCHAR Ydieresis.salt
ENCODING 57651
SWIDTH 806 0
DWIDTH 13 0
BBX 11 18 0 -2
BITMAP
000040
020200
1E0300
1F4744
1EAFE4
280B80
B84B80
B84B80
B84B80
B84640
B80000
BD0100
7F9014
2FE010
06E000
02E010
02FF80
01FE00
ENDCHAR
STARTCHAR Ygrave.salt
ENCODING 57652
SWIDTH 806 0
DWIDTH 13 0
BBX 11 18 0 -2
BITMAP
004000
070004
0F0000
1FA544
1EAFE4
280B80
B84B80
B84B80
B84B80
B84640
B80000
BD0100
7F9014
2FE010
06E000
02E010
02FF80
01FE00
ENDCHAR
STARTCHAR AE.salt
ENCODING 57653
SWIDTH 1113 0
DWIDTH 18 0
BBX 18 14 0 -2
BITMAP
0005555540
0100000000
0810040000
2C06806A40
7C0BC06A00
7C07C00000
7C00040000
7C40041500
7C00007D00
7C0BC00000
7C0BC00000
7C07C00010
7FE7FFFF80
7F83FFFD00
ENDCHAR
STARTCHAR IJ.salt
ENCODING 57654
SWIDTH 1133 0
DWIDTH 18 0
BBX 17 14 0 -2
BITMAP
0154001540
1C00006000
7C0001E000
7C0002E000
7C0002E000
7C0056E000
7C0602E000
7C0702E000
7C0701E000
7C07000000
7C07401400
7C07D00140
7FFBFEAD00
3F82FFE400
ENDCHAR
STARTCHAR IJ.stack
ENCODING 57655
SWIDTH 1363 0
DWIDTH 22 0
BBX 21 14 0 -2
BITMAP
055554001540
180000009000
78040002D000
BD405403D000
BFC06003D000
1BC04057D000
07C00603D000
07C01E02D000
07806E02D000
080006100000
780407001040
B80007900100
BFFFFFFEA800
7FFF86FFE000
ENDCHAR
STARTCHAR quoteleft.salt
ENCODING 57656
SWIDTH 407 0
DWIDTH 7 0
BBX 6 7 0 5
BITMAP
0150
0850
2850
7800
B950
BFD0
6A00
ENDCHAR
STARTCHAR quoteright.salt
ENCODING 57657
SWIDTH 407 0
DWIDTH 7 0
BBX 6 7 0 5
BITMAP
0550
2840
7810
BE50
7D50
7F40
6900
ENDCHAR
STARTCHAR ampersand.salt
ENCODING 57658
SWIDTH 732 0
DWIDTH 12 0
BBX 12 17 0 -4
BITMAP
002010
00A004
010100
0A0000
1E01A4
2E02A0
2E1000
180400
240550
B40F90
B44000
B80100
BE0101
7FF028
1BFA90
01FF00
005400
ENDCHAR
STARTCHAR caron.2
ENCODING 57659
SWIDTH 600 0
DWIDTH 10 0
BBX 7 7 1 5
BITMAP
0154
0900
2C44
3C04
7D50
7FC0
6A00
ENDCHAR
STARTCHAR indexup
ENCODING 57660
SWIDTH 1100 0
DWIDTH 18 0
BBX 11 14 3 -2
BITMAP
010000
061000
1E1000
2E1400
2D1450
2D0000
2D0000
3E0000
2E0000
2F5550
180000
780000
7FFFF4
7FFFD0
ENDCHAR
STARTCHAR indexdown
ENCODING 57661
SWIDTH 1100 0
DWIDTH 18 0
BBX 11 14 3 -2
BITMAP
040004
280000
7D5554
7F0010
6E0000
1D0000
2D0000
2D0040
3E1590
2E2F40
2E1400
2E1000
2F8000
1D0000
ENDCHAR
STARTCHAR indexupleft
ENCODING 57662
SWIDTH 1100 0
DWIDTH 18 0
BBX 13 15 2 -3
BITMAP
01100000
1F040000
2FC10000
0F804000
07401000
0A000100
1C400440
2D001040
7F404100
2FD10400
0BF81000
02F04000
00FD0000
00F80000
00500000
ENDCHAR
STARTCHAR indexupright
ENCODING 57663
SWIDTH 1100 0
DWIDTH 18 0
BBX 13 15 2 -3
BITMAP
00000440
00001100
00004400
00040000
00140100
00600040
05100040
1D040040
7F400100
3FD00400
0FF41000
03FD1000
00FF4000
003E0000
00040000
ENDCHAR
STARTCHAR indexdownleft
ENCODING 57664
SWIDTH 1100 0
DWIDTH 18 0
BBX 14 12 1 -1
BITMAP
00001000
00014000
00078000
000A0000
00000000
00500000
01400050
051000A0
18740280
39FE4400
B8BFD000
501B4000
ENDCHAR
STARTCHAR indexdownright
ENCODING 57665
SWIDTH 1100 0
DWIDTH 18 0
BBX 15 12 1 -1
BITMAP
00014000
00041000
00104000
00410400
01040100
04100040
3C400010
BFD00004
7BF406C0
02FD2BF4
00BF93E0
002E0080
ENDCHAR
STARTCHAR indexdownleft.outline
ENCODING 57666
SWIDTH 1100 0
DWIDTH 18 0
BBX 14 11 3 0
BITMAP
00024000
0004D000
00053400
00104D00
01401340
010004D0
04400540
11100400
45541000
50144000
00010000
ENDCHAR
STARTCHAR indexdownright.outline
ENCODING 57667
SWIDTH 1100 0
DWIDTH 18 0
BBX 14 11 3 0
BITMAP
00280000
00A10000
02890000
0A114000
28401000
A1000400
58001100
01005440
00445510
00124140
00040000
ENDCHAR
STARTCHAR indexupleft.outline
ENCODING 57668
SWIDTH 1100 0
DWIDTH 18 0
BBX 11 14 4 -1
BITMAP
040000
150000
144000
051000
054400
050100
210150
440088
100128
0404A0
011280
008A00
006800
006000
ENDCHAR
STARTCHAR indexupright.outline
ENCODING 57669
SWIDTH 1100 0
DWIDTH 18 0
BBX 10 14 5 -1
BITMAP
000040
000110
000440
005100
004540
010140
140050
940050
D50010
754040
1D5100
075800
01D400
006000
ENDCHAR
STARTCHAR uni261A.salt
ENCODING 57670
SWIDTH 1100 0
DWIDTH 18 0
BBX 14 10 1 0
BITMAP
00055050
04000140
2D550040
7FFC4040
2ABC0040
007E4140
007F8740
001F4FE0
000BDF80
000F4000
ENDCHAR
STARTCHAR uni261B.salt
ENCODING 57671
SWIDTH 1100 0
DWIDTH 18 0
BBX 14 11 2 -1
BITMAP
05055000
74400010
F4401550
F4401F80
F4411900
F4401000
F4B04000
FFF80000
F9FE0000
00780000
00100000
ENDCHAR
STARTCHAR indexdown.salt
ENCODING 57672
SWIDTH 1100 0
DWIDTH 18 0
BBX 11 14 3 -2
BITMAP
004004
070000
0F5554
0FD004
064000
040000
2D9000
7FE040
26FF80
01AF80
000B80
000B80
000BE0
000740
ENDCHAR
STARTCHAR indexdownleft.salt
ENCODING 57673
SWIDTH 1100 0
DWIDTH 18 0
BBX 15 12 1 -1
BITMAP
00001400
00004100
0002D040
00064410
00100104
00500044
018140D0
02081080
092E5400
2D7FFC40
7D1ABE00
24007400
ENDCHAR
STARTCHAR indexdownright.salt
ENCODING 57674
SWIDTH 1100 0
DWIDTH 18 0
BBX 15 12 1 -1
BITMAP
00010000
00144000
00504000
01410000
05040100
1C100040
7FA01000
3EE00500
05E15F44
02E3AFD4
02FA0BE0
02800240
ENDCHAR
STARTCHAR indexup.salt
ENCODING 57675
SWIDTH 1100 0
DWIDTH 18 0
BBX 11 14 3 -2
BITMAP
010000
0A0000
2D0000
2D0000
3C1100
3C1000
3C0440
7C0004
7E0050
3F5540
280000
780010
7FFFC0
7FFE00
ENDCHAR
STARTCHAR indexupleft.salt
ENCODING 57676
SWIDTH 1100 0
DWIDTH 18 0
BBX 12 14 3 -2
BITMAP
050000
240000
BD0400
BF4100
2F4040
091040
1D1014
3E0041
340100
75A400
FFF000
95F000
01F800
00E000
ENDCHAR
STARTCHAR indexupright.salt
ENCODING 57677
SWIDTH 1100 0
DWIDTH 18 0
BBX 12 14 3 -2
BITMAP
000004
000040
000104
000010
005050
01C044
058040
140004
B80001
FE02A5
7F81F8
1FE190
07F800
01E000
ENDCHAR
STARTCHAR uni261C.salt
ENCODING 57678
SWIDTH 1100 0
DWIDTH 18 0
BBX 13 9 3 1
BITMAP
01554640
54001580
15500580
00440580
00110580
00151580
00044580
00054500
00050000
ENDCHAR
STARTCHAR uni261D.salt
ENCODING 57679
SWIDTH 1100 0
DWIDTH 18 0
BBX 9 12 5 0
BITMAP
140000
110000
110000
110000
125000
410540
415440
100140
100400
155400
400100
7FFE00
ENDCHAR
STARTCHAR uni261E.salt
ENCODING 57680
SWIDTH 1100 0
DWIDTH 18 0
BBX 12 9 4 1
BITMAP
945550
C90005
C40555
C41100
C41100
C91500
D50400
504400
001000
ENDCHAR
STARTCHAR uni261F.salt
ENCODING 57681
SWIDTH 1100 0
DWIDTH 18 0
BBX 9 12 5 0
BITMAP
0AAA80
095580
055540
010100
140040
515040
150440
015440
000440
000440
000440
000540
ENDCHAR
STARTCHAR indexdownleft.salt_outline
ENCODING 57682
SWIDTH 1100 0
DWIDTH 18 0
BBX 12 10 4 1
BITMAP
000600
000680
0008A0
005128
01004A
040022
105414
424410
445510
500150
ENDCHAR
STARTCHAR indexdownright.salt_outline
ENCODING 57683
SWIDTH 1100 0
DWIDTH 18 0
BBX 12 10 4 1
BITMAP
008000
035000
0D2000
344500
D10040
880010
541514
044144
049411
050005
ENDCHAR
STARTCHAR indexupleft.salt_outline
ENCODING 57684
SWIDTH 1100 0
DWIDTH 18 0
BBX 10 12 5 0
BITMAP
500000
450000
114000
041000
050400
110400
110240
240560
4015D0
559740
015D00
00B400
ENDCHAR
STARTCHAR indexupright.salt_outline
ENCODING 57685
SWIDTH 1100 0
DWIDTH 18 0
BBX 10 13 5 -1
BITMAP
000150
000510
001040
004100
010500
040440
540440
C40140
710010
1C5550
071000
01D000
004000
ENDCHAR
STARTCHAR block.v
ENCODING 57687
SWIDTH 1000 0
DWIDTH 16 0
BBX 18 18 -1 -3
BITMAP
5555555550
7FFFFFFFD0
7FFFFFFFD0
7FFFFFFFD0
7FFFFFFFD0
7FFFFFFFD0
7FFFFFFFD0
7FFFFFFFD0
7FFFFFFFD0
7FFFFFFFD0
7FFFFFFFD0
7FFFFFFFD0
7FFFFFFFD0
7FFFFFFFD0
7FFFFFFFD0
7FFFFFFFD0
7FFFFFFFD0
7FFFFFFFD0
ENDCHAR
STARTCHAR uni25D6.v
ENCODING 57688
SWIDTH 1335 0
DWIDTH 21 0
BBX 18 10 2 1
BITMAP
0005540000
006FFE4000
02FFFFE400
0BFFFFF900
2FFFFFFE00
6FFFFFFF40
7FFFFFFF80
BFFFFFFF80
BFFFFFFF90
BFFFFFFF90
ENDCHAR
STARTCHAR uni25D7.v
ENCODING 57689
SWIDTH 1335 0
DWIDTH 21 0
BBX 18 10 2 1
BITMAP
5555555540
BFFFFFFFD0
BFFFFFFF90
BFFFFFFF80
7FFFFFFF80
2FFFFFFF40
1FFFFFFE00
07FFFFF800
01BFFF9000
0016A90000
ENDCHAR
STARTCHAR uni27A1.w
ENCODING 57690
SWIDTH 650 0
DWIDTH 10 0
BBX 11 24 0 -6
BITMAP
000050
0001F4
0007F4
000BF4
002FFC
007FFC
01FFFC
02FFFC
0BFFFC
1FFFFC
6FFFFC
BFFFFC
BFFFFC
7FFFFC
2FFFFC
0BFFFC
07FFFC
01FFFC
00BFFC
002FFC
001FF8
0007F4
0002F4
0000A0
ENDCHAR
STARTCHAR uni27A1.n
ENCODING 57691
SWIDTH 1000 0
DWIDTH 16 0
BBX 24 12 -4 0
BITMAP
005555555500
56FFFFFFFF95
BFFFFFFFFFFE
7FFFFFFFFFFD
1BFFFFFFFFE4
06FFFFFFFF90
00BFFFFFFE00
001FFFFFF400
0006FFFF9000
0000BFFE0000
00001BE40000
000005500000
ENDCHAR
STARTCHAR uni27A1.s
ENCODING 57692
SWIDTH 1000 0
DWIDTH 16 0
BBX 24 11 -4 0
BITMAP
00000BE00000
00006FF90000
0001BFFE4000
000BFFFFE000
006FFFFFF900
01FFFFFFFF40
0BFFFFFFFFE0
6FFFFFFFFFF9
BFFFFFFFFFFE
6AFFFFFFFFA9
01AAAAAAAA40
ENDCHAR
STARTCHAR uni2B24.salt
ENCODING 57693
SWIDTH 1280 0
DWIDTH 20 0
BBX 18 19 1 -4
BITMAP
0016A94000
01BFFFE400
0BFFFFFE40
2FFFFFFFD0
7FFFFFFFE0
7FFFFFFFE0
7FFFFFFFE0
7FFFFFFFE0
7FFFFFFFE0
7FFFFFFFE0
7FFFFFFFE0
7FFFFFFFE0
7FFFFFFFE0
7FFFFFFFE0
6FFFFFFFE0
1BFFFFFF80
06FFFFF900
006BFF9000
0001540000
ENDCHAR
STARTCHAR uni25DD.curve
ENCODING 57694
SWIDTH 1280 0
DWIDTH 20 0
BBX 18 18 1 -3
BITMAP
1555550000
7FFFFFE400
7FFFFFFE00
7FFFFFFF40
7FFFFFFF80
7FFFFFFFD0
7FFFFFFFE0
7FFFFFFFE0
7FFFFFFFE0
7FFFFFFFE0
7FFFFFFFE0
7FFFFFFFE0
7FFFFFFFE0
7FFFFFFFE0
7FFFFFFFE0
7FFFFFFFE0
7FFFFFFFE0
6AAAAAAAA0
ENDCHAR
STARTCHAR uni2B1B.trapezoid_e
ENCODING 57695
SWIDTH 1280 0
DWIDTH 20 0
BBX 20 18 1 -3
BITMAP
1555555554
7FFFFFFFFD
7FFFFFFFFD
7FFFFFFFF8
7FFFFFFFF8
7FFFFFFFF4
7FFFFFFFF4
7FFFFFFFF4
7FFFFFFFE0
7FFFFFFFE0
7FFFFFFFD0
7FFFFFFFD0
7FFFFFFFD0
7FFFFFFFC0
7FFFFFFF80
7FFFFFFF40
7FFFFFFF40
6AAAAAAA40
ENDCHAR
STARTCHAR uni2B1B.trapezoid_w
ENCODING 57696
SWIDTH 1280 0
DWIDTH 20 0
BBX 19 18 0 -3
BITMAP
5555555554
BFFFFFFFF8
BFFFFFFFF8
7FFFFFFFF8
7FFFFFFFF8
3FFFFFFFF8
2FFFFFFFF8
2FFFFFFFF8
1FFFFFFFF8
1FFFFFFFF8
0FFFFFFFF8
0BFFFFFFF8
0BFFFFFFF8
07FFFFFFF8
07FFFFFFF8
02FFFFFFF8
02FFFFFFF8
01AAAAAAA8
ENDCHAR
STARTCHAR arrowleft.chevron
ENCODING 57697
SWIDTH 1330 0
DWIDTH 21 0
BBX 21 23 0 -6
BITMAP
000060000000
0001A0000000
0002E5555540
000BFFFFFF80
002FFFFFFF80
007FFFFFFF40
01FFFFFFFE00
06FFFFFFFD00
0BFFFFFFF800
2FFFFFFFF800
7FFFFFFFF400
BFFFFFFFE400
6FFFFFFFF400
1FFFFFFFF800
07FFFFFFFD00
02FFFFFFFE00
00BFFFFFFE00
002FFFFFFF40
001BFFFFFF80
0007FAAAAA80
0001E0000000
0000A0000000
000010000000
ENDCHAR
STARTCHAR arrowup.chevron
ENCODING 57698
SWIDTH 1280 0
DWIDTH 20 0
BBX 23 23 -1 -6
BITMAP
000006400000
00002FD00000
0001BFF80000
0006FFFE0000
001FFFFF9000
00BFFFFFE400
02FFFFFFFE00
1BFFFFFFFF80
6FFFFFFFFFE4
BFFFFFFFFFF8
07FFFFFFFE00
07FFFFFFFE00
07FFFFFFFE00
07FFFFFFFE00
07FFFFFFFE00
07FFFFFFFE00
07FFFFFFFE00
07FFFFFFFE00
07FFFFFFFE00
07FFE9BFFE00
07FE501AFE00
06A400006E00
010000000500
ENDCHAR
STARTCHAR arrowright.chevron
ENCODING 57699
SWIDTH 1330 0
DWIDTH 21 0
BBX 21 23 0 -6
BITMAP
000002800000
000002D00000
555556F40000
BFFFFFF90000
7FFFFFFE0000
2FFFFFFF8000
1FFFFFFFE000
1BFFFFFFF400
0BFFFFFFFD00
07FFFFFFFE40
02FFFFFFFF80
02FFFFFFFF80
06FFFFFFFF40
07FFFFFFFE00
0BFFFFFFF800
1FFFFFFFE000
2FFFFFFF9000
6FFFFFFF4000
7FFFFFFD0000
AAAAAAF80000
000002E00000
000002900000
000001400000
ENDCHAR
STARTCHAR arrowdown.chevron
ENCODING 57700
SWIDTH 1280 0
DWIDTH 20 0
BBX 23 23 -1 -6
BITMAP
064000001600
07F90001BE00
07FF905BFE00
07FFFAFFFE00
07FFFFFFFE00
07FFFFFFFE00
07FFFFFFFE00
07FFFFFFFE00
07FFFFFFFE00
07FFFFFFFE00
07FFFFFFFE00
07FFFFFFFE00
5BFFFFFFFE54
BFFFFFFFFFE4
2FFFFFFFFFE0
0BFFFFFFFE40
01FFFFFFF900
006FFFFFE000
001BFFFF8000
0002FFFD0000
0000BFE40000
00001B900000
000005000000
ENDCHAR
STARTCHAR uni25D6.deco
ENCODING 57701
SWIDTH 560 0
DWIDTH 9 0
BBX 10 21 0 -5
BITMAP
000A40
006F50
00BFE0
01FFE0
0BFFE0
1FFFE0
2FFFE0
2FFFE0
3FFFE0
7FFFE0
7FFFE0
3FFFE0
3FFFE0
2FFFE0
2FFFE0
1BFFE0
06FFE0
00FFE0
006F90
001B40
000500
ENDCHAR
STARTCHAR uni25D7.deco
ENCODING 57702
SWIDTH 560 0
DWIDTH 9 0
BBX 9 21 -1 -5
BITMAP
1A0000
5E8000
BFE000
BFF400
BFFE00
BFFF40
BFFF80
BFFF80
BFFFC0
BFFFC0
BFFFC0
BFFFC0
BFFFC0
BFFF80
BFFF40
BFFE40
BFF900
BFE000
6F9000
1E4000
050000
ENDCHAR
STARTCHAR uni25D6.v_deco
ENCODING 57703
SWIDTH 1280 0
DWIDTH 20 0
BBX 21 10 0 0
BITMAP
000555500000
006BFFFA0000
01BFFFFF8000
06FFFFFF9000
1FFFFFFFF800
6FFFFFFFFD00
BFFFFFFFFE40
AFFFFFFFFE40
1FFFFFFFF800
055555555000
ENDCHAR
STARTCHAR uni25D7.v_deco
ENCODING 57704
SWIDTH 1280 0
DWIDTH 20 0
BBX 21 9 0 2
BITMAP
1AAAAAAAA800
6FFFFFFFF900
BFFFFFFFFF40
6FFFFFFFFE40
2FFFFFFFF900
0AFFFFFFE400
01FFFFFF8000
00BFFFFE4000
001AAAA40000
ENDCHAR
STARTCHAR uni25D6.bevel
ENCODING 57705
SWIDTH 350 0
DWIDTH 6 0
BBX 6 18 1 -3
BITMAP
0140
06D0
1BD0
2FD0
BFD0
BFD0
BFD0
BFD0
BFD0
BFD0
BFD0
BFD0
BFD0
BFD0
6FD0
2FD0
0AD0
0190
ENDCHAR
STARTCHAR uni25D7.bevel
ENCODING 57706
SWIDTH 350 0
DWIDTH 6 0
BBX 6 18 -1 -3
BITMAP
5000
A400
BE00
BF40
BF90
BFD0
BFD0
BFD0
BFD0
BFD0
BFD0
BFD0
BFD0
BFD0
BF90
BF40
B900
6400
ENDCHAR
STARTCHAR uni25D6.v_bevel
ENCODING 57707
SWIDTH 1280 0
DWIDTH 20 0
BBX 18 6 1 3
BITMAP
0055555000
01BFFFF800
0BFFFFFE40
1FFFFFFF80
6FFFFFFFE0
6AAAAAAAA0
ENDCHAR
STARTCHAR uni25D7.v_bevel
ENCODING 57708
SWIDTH 1280 0
DWIDTH 20 0
BBX 18 6 1 3
BITMAP
1555555550
7FFFFFFFE0
2FFFFFFF90
1BFFFFFF80
06FFFFF900
00AAAAA400
ENDCHAR
STARTCHAR uni25D6.spike
ENCODING 57709
SWIDTH 350 0
DWIDTH 6 0
BBX 7 19 0 -4
BITMAP
1950
1BF4
0BF4
07F4
02F4
02F4
07F4
1BF4
2FF4
7FF4
1FF4
0BF4
02F4
02F4
06F4
07F4
0BF4
1BA4
0400
ENDCHAR
STARTCHAR uni25D7.spike
ENCODING 57710
SWIDTH 350 0
DWIDTH 6 0
BBX 6 19 -1 -4
BITMAP
5580
BF80
BF40
BE00
BD00
BD00
BE00
BF80
BFE0
BFE0
BF90
BF40
BD00
BD00
BE00
BE40
BF40
6B80
0040
ENDCHAR
STARTCHAR uni25D6.v_spike
ENCODING 57711
SWIDTH 1280 0
DWIDTH 20 0
BBX 19 6 1 3
BITMAP
0000500000
5001B80050
7947FE06A4
7FAFFFAFF0
7FFFFFFFE0
7FFFFFFFE0
ENDCHAR
STARTCHAR uni25D7.v_spike
ENCODING 57712
SWIDTH 1280 0
DWIDTH 20 0
BBX 19 6 1 3
BITMAP
6AAAAAAA90
7FFFFFFFE0
7FFFFFFFE0
7E9BFF5BF0
A402F90164
0000A40000
ENDCHAR
STARTCHAR uni25D6.square
ENCODING 57713
SWIDTH 350 0
DWIDTH 6 0
BBX 6 18 1 -3
BITMAP
1540
6FD0
7FD0
7FD0
7FD0
7FD0
7FD0
7FD0
7FD0
7FD0
7FD0
7FD0
7FD0
7FD0
7FD0
7FD0
7FD0
6A90
ENDCHAR
STARTCHAR uni25D7.square
ENCODING 57714
SWIDTH 350 0
DWIDTH 6 0
BBX 5 18 -1 -3
BITMAP
5540
BF80
BF80
BF80
BF80
BF80
BF80
BF80
BF80
BF80
BF80
BF80
BF80
BF80
BF80
BF80
BF80
6A80
ENDCHAR
STARTCHAR uni25D6.v_square
ENCODING 57715
SWIDTH 1280 0
DWIDTH 20 0
BBX 18 5 1 3
BITMAP
6AAAAAAAA0
7FFFFFFFE0
7FFFFFFFE0
7FFFFFFFE0
6AAAAAAA90
ENDCHAR
STARTCHAR uni25D7.v_square
ENCODING 57716
SWIDTH 1280 0
DWIDTH 20 0
BBX 18 5 1 3
BITMAP
7FFFFFFFE0
7FFFFFFFE0
7FFFFFFFE0
7FFFFFFFE0
1555555550
ENDCHAR
STARTCHAR uni25D6.rounded
ENCODING 57717
SWIDTH 350 0
DWIDTH 6 0
BBX 6 18 1 -3
BITMAP
0140
1BD0
2FD0
7FD0
7FD0
7FD0
BFD0
BFD0
BFD0
BFD0
BFD0
BFD0
BFD0
7FD0
7FD0
2FD0
1FD0
0690
ENDCHAR
STARTCHAR uni25D7.rounded
ENCODING 57718
SWIDTH 350 0
DWIDTH 6 0
BBX 6 18 -1 -3
BITMAP
5400
BA00
BF40
BF80
BFC0
BFD0
BFD0
BFD0
BFD0
BFD0
BFD0
BFD0
BFD0
BFD0
BF80
BF40
BE00
6900
ENDCHAR
STARTCHAR uni25D6.v_rounded
ENCODING 57719
SWIDTH 1280 0
DWIDTH 20 0
BBX 18 6 1 3
BITMAP
0005550000
05BFFFE900
1BFFFFFF80
6FFFFFFFD0
7FFFFFFFE0
6AAAAAAAA0
ENDCHAR
STARTCHAR uni25D7.v_rounded
ENCODING 57720
SWIDTH 1280 0
DWIDTH 20 0
BBX 18 6 1 3
BITMAP
1555555550
7FFFFFFFE0
7FFFFFFFE0
2FFFFFFFD0
0AFFFFFE40
005AAA5400
ENDCHAR
STARTCHAR uni21AB.arrow
ENCODING 57721
SWIDTH 1000 0
DWIDTH 16 0
BBX 20 30 -1 -15
BITMAP
5555000000
BFFFA40000
BFFFFE4000
BFFFFF9000
BFFFFFF400
BFFFFFF800
BFFFFFFD00
BFFFFFFE00
BFFFFFFF40
BFFFFFFF40
BFFFFFFF80
BFFFFFFF80
BFFFFFFF80
BFFFFFFF80
BFFFFFFF80
BFFFFFFF80
BFFFFFFF80
6FFFFFFF80
07FFFFFF80
57FFFFFF95
BFFFFFFFFE
6FFFFFFFF8
1BFFFFFFE0
02FFFFFF80
00BFFFFE00
002FFFF800
000BFFD000
0002FF4000
0000BD0000
0000140000
ENDCHAR
STARTCHAR uni21AC.arrow
ENCODING 57722
SWIDTH 1000 0
DWIDTH 16 0
BBX 20 29 -1 -3
BITMAP
0000680000
0001BE0000
0007FF9000
001FFFE400
007FFFF900
01FFFFFE40
07FFFFFF90
1FFFFFFFF4
7FFFFFFFFD
ABFFFFFFEA
07FFFFFF80
5BFFFFFF80
BFFFFFFF80
BFFFFFFF80
BFFFFFFF80
BFFFFFFF80
BFFFFFFF80
BFFFFFFF80
BFFFFFFF80
BFFFFFFF80
BFFFFFFF40
BFFFFFFF40
BFFFFFFE00
BFFFFFFD00
BFFFFFF800
BFFFFFE000
BFFFFF8000
BFFFE90000
6AAA500000
ENDCHAR
STARTCHAR uni21AB.v_arrow
ENCODING 57723
SWIDTH 1335 0
DWIDTH 21 0
BBX 30 20 -10 -5
BITMAP
0000245555555540
0000B4BFFFFFFFD0
0002F5FFFFFFFFD0
000BFFFFFFFFFFD0
002FFFFFFFFFFFD0
00BFFFFFFFFFFFD0
02FFFFFFFFFFFF90
0BFFFFFFFFFFFF90
2FFFFFFFFFFFFF80
7FFFFFFFFFFFFF80
7FFFFFFFFFFFFF40
2FFFFFFFFFFFFE00
0BFFFFFFFFFFFD00
02FFFFFFFFFFF400
00BFFFFFFFFF9000
002FFFFFFFFA4000
000BFAAAAA940000
0002F40000000000
0000B40000000000
0000640000000000
ENDCHAR
STARTCHAR uni21AC.v_arrow
ENCODING 57724
SWIDTH 1335 0
DWIDTH 21 0
BBX 29 20 2 -5
BITMAP
5555555542400000
BFFFFFFFD2900000
BFFFFFFFE6E40000
BFFFFFFFFFF90000
BFFFFFFFFFFE4000
BFFFFFFFFFFF9000
BFFFFFFFFFFFE400
BFFFFFFFFFFFF900
7FFFFFFFFFFFFE00
7FFFFFFFFFFFFF80
2FFFFFFFFFFFFF80
1FFFFFFFFFFFFE00
0BFFFFFFFFFFF900
06FFFFFFFFFFE400
01BFFFFFFFFF9000
001BFFFFFFFE4000
00016AAAABFD0000
0000000002F40000
0000000002D00000
0000000002400000
ENDCHAR
STARTCHAR uni25D6.wings
ENCODING 57725
SWIDTH 900 0
DWIDTH 14 0
BBX 15 24 0 -6
BITMAP
01555500
02FFFE00
02FFFF40
56FFFF94
BFFFFFFC
BFFFFFFC
BFFFFFFC
BFFFFFFC
BFFFFFFC
BFFFFFFC
BFFFFFFC
BFFFFFFC
BFFFFFFC
BFFFFFFC
BFFFFFFC
BFFFFFFC
BFFFFFFC
BFFFFFFC
BFFFFFFC
BFFFFFFC
6AFFFFE8
02FFFF80
02FFFF00
02AAAA00
ENDCHAR
STARTCHAR uni25D7.wings
ENCODING 57726
SWIDTH 900 0
DWIDTH 14 0
BBX 15 24 -1 -6
BITMAP
00555500
01FFFE40
02FFFF40
5BFFFF54
BFFFFFF8
BFFFFFF8
BFFFFFF8
BFFFFFF8
BFFFFFF8
BFFFFFF8
BFFFFFF8
BFFFFFF8
BFFFFFF8
BFFFFFF8
BFFFFFF8
BFFFFFF8
BFFFFFF8
BFFFFFF8
BFFFFFF8
BFFFFFF8
6FFFFFA8
06FFFF40
01FFFF40
01AAAA40
ENDCHAR
STARTCHAR uni25D6.v_wings
ENCODING 57727
SWIDTH 1280 0
DWIDTH 20 0
BBX 24 15 -2 -2
BITMAP
01BFFFFFFF80
01FFFFFFFF80
16FFFFFFFF95
6FFFFFFFFFFE
7FFFFFFFFFFE
7FFFFFFFFFFE
7FFFFFFFFFFE
7FFFFFFFFFFE
7FFFFFFFFFFE
7FFFFFFFFFFE
7FFFFFFFFFFE
1BFFFFFFFFE5
02FFFFFFFFD0
01FFFFFFFF80
01AAAAAAAA40
ENDCHAR
STARTCHAR uni25D7.v_wings
ENCODING 57728
SWIDTH 1280 0
DWIDTH 20 0
BBX 24 15 -2 -2
BITMAP
01FFFFFFFF80
01FFFFFFFF80
06FFFFFFFFE0
6FFFFFFFFFFE
7FFFFFFFFFFE
7FFFFFFFFFFE
7FFFFFFFFFFE
7FFFFFFFFFFE
7FFFFFFFFFFE
7FFFFFFFFFFE
7FFFFFFFFFFE
6AFFFFFFFFAA
01FFFFFFFF80
01FFFFFFFF80
005555555540
ENDCHAR
STARTCHAR uni2B1B.chevron_e
ENCODING 57729
SWIDTH 1280 0
DWIDTH 20 0
BBX 21 18 0 -3
BITMAP
555555554000
BFFFFFFFD000
7FFFFFFFE000
2FFFFFFFE400
1FFFFFFFF400
1BFFFFFFF800
0BFFFFFFFD00
07FFFFFFFE00
02FFFFFFFF40
02FFFFFFFF40
06FFFFFFFE00
07FFFFFFFD00
0BFFFFFFFD00
1FFFFFFFF800
2FFFFFFFF400
6FFFFFFFE000
7FFFFFFFD000
AAAAAAAA9000
ENDCHAR
STARTCHAR uni2B1B.chevron_n
ENCODING 57730
SWIDTH 1280 0
DWIDTH 20 0
BBX 18 21 1 -5
BITMAP
0001A40000
005BFE9000
06BFFFF900
6FFFFFFFA0
7FFFFFFFE0
7FFFFFFFE0
7FFFFFFFE0
7FFFFFFFE0
7FFFFFFFE0
7FFFFFFFE0
7FFFFFFFE0
7FFFFFFFE0
7FFFFFFFE0
7FFFFFFFE0
7FFFFFFFE0
7FFFFFFFE0
7FFFFFFFE0
7FFE5AFFE0
7FA4006FE0
69000006A0
1000000010
ENDCHAR
STARTCHAR uni2B1B.chevron_s
ENCODING 57731
SWIDTH 1280 0
DWIDTH 20 0
BBX 18 21 1 -5
BITMAP
64000001A0
7E90001BE0
7FF906BFE0
7FFFAFFFE0
7FFFFFFFE0
7FFFFFFFE0
7FFFFFFFE0
7FFFFFFFE0
7FFFFFFFE0
7FFFFFFFE0
7FFFFFFFE0
7FFFFFFFE0
7FFFFFFFE0
7FFFFFFFE0
7FFFFFFFE0
7FFFFFFFE0
7FFFFFFFE0
1AFFFFFE40
006FFFA400
0006A90000
0000100000
ENDCHAR
STARTCHAR uni2B1B.chevron_w
ENCODING 57732
SWIDTH 1280 0
DWIDTH 20 0
BBX 21 18 0 -3
BITMAP
015555555500
02FFFFFFFE40
06FFFFFFFE00
0BFFFFFFFD00
0BFFFFFFF800
1FFFFFFFF800
2FFFFFFFF400
7FFFFFFFE000
BFFFFFFFD000
BFFFFFFFD000
7FFFFFFFE000
2FFFFFFFE000
2FFFFFFFF400
1FFFFFFFF800
0BFFFFFFFD00
07FFFFFFFE00
02FFFFFFFE00
02AAAAAAAA40
ENDCHAR
STARTCHAR uni2B1B.semichevron_e
ENCODING 57733
SWIDTH 650 0
DWIDTH 10 0
BBX 11 18 0 -3
BITMAP
555554
BFFFFC
7FFFFC
2FFFFC
1FFFFC
1BFFFC
0BFFFC
07FFFC
02FFFC
02FFFC
06FFFC
07FFFC
0BFFFC
1FFFFC
2FFFFC
6FFFFC
7FFFFC
AAAAA8
ENDCHAR
STARTCHAR uni2B1B.semichevron_w
ENCODING 57734
SWIDTH 650 0
DWIDTH 10 0
BBX 12 18 -1 -3
BITMAP
555554
BFFFF9
BFFFF8
BFFFF4
BFFFE0
BFFFE0
BFFFD0
BFFF80
BFFF40
BFFF40
BFFF80
BFFF80
BFFFD0
BFFFE0
BFFFF4
BFFFF8
BFFFF8
6AAAA9
ENDCHAR
STARTCHAR uni2B1B.semichevron_n
ENCODING 57735
SWIDTH 1000 0
DWIDTH 16 0
BBX 18 11 -1 0
BITMAP
6500000590
7F90006FD0
7FFA5AFFD0
7FFFFFFFD0
7FFFFFFFD0
7FFFFFFFD0
7FFFFFFFD0
7FFFFFFFD0
7FFFFFFFD0
7FFFFFFFD0
6AAAAAAA90
ENDCHAR
STARTCHAR uni2B1B.semichevron_s
ENCODING 57736
SWIDTH 1000 0
DWIDTH 16 0
BBX 18 12 -1 0
BITMAP
1555555540
7FFFFFFFD0
7FFFFFFFD0
7FFFFFFFD0
7FFFFFFFD0
7FFFFFFFD0
7FFFFFFFD0
7FFFFFFFD0
7FFEABFFD0
7FE505BFD0
7A40001AD0
5000000150
ENDCHAR
STARTCHAR space.v
ENCODING 57737
SWIDTH 1000 0
DWIDTH 16 0
BBX 1 1 0 0
BITMAP
00
ENDCHAR
STARTCHAR Agrave.v
ENCODING 57738
SWIDTH 1000 0
DWIDTH 16 0
BBX 12 17 2 -2
BITMAP
010000
0A0004
1E0000
2FFA94
1F4010
060000
0D0040
2C0500
380A10
740A00
B40000
F44000
F40A00
F41F40
F41F40
FFDFFD
BE0BE4
ENDCHAR
STARTCHAR Aacute.v
ENCODING 57739
SWIDTH 1000 0
DWIDTH 16 0
BBX 12 16 2 -2
BITMAP
020000
0E0004
2F6AE0
2F4010
0A0000
0D0040
2C0500
380A10
740A00
B40000
F44000
F40A00
F41F40
F41F40
FFDFFD
BE0BE4
ENDCHAR
STARTCHAR Acircumflex.v
ENCODING 57740
SWIDTH 1000 0
DWIDTH 16 0
BBX 12 17 2 -2
BITMAP
000040
020544
0E0000
2FAFA4
2F4010
1A0000
0D0040
2C0500
380A10
740A00
B40000
F44000
F40A00
F41F40
F41F40
FFDFFD
BE0BE4
ENDCHAR
STARTCHAR Atilde.v
ENCODING 57741
SWIDTH 1000 0
DWIDTH 16 0
BBX 12 17 2 -2
BITMAP
004510
020000
1E0000
2FAA50
2F4010
0A0000
0D0040
2C0500
380A10
740A00
B40000
F44000
F40A00
F41F40
F41F40
FFDFFD
BE0BE4
ENDCHAR
STARTCHAR Adieresis.v
ENCODING 57742
SWIDTH 1000 0
DWIDTH 16 0
BBX 12 17 2 -2
BITMAP
010104
090500
2D0500
3EAAA4
3F4010
1A0000
0D0040
2C0500
380A10
740A00
B40000
F44000
F40A00
F41F40
F41F40
FFDFFD
BE0BE4
ENDCHAR
STARTCHAR Aring.v
ENCODING 57743
SWIDTH 1000 0
DWIDTH 16 0
BBX 12 17 2 -2
BITMAP
005050
021444
0E0A00
2E0B00
2F1544
2E0504
1D0000
2C0500
380A10
740A00
B45550
F40000
F40A00
F41F40
F41F41
FFDFFD
BE0BE4
ENDCHAR
STARTCHAR Amacron.v
ENCODING 57744
SWIDTH 1000 0
DWIDTH 16 0
BBX 12 16 2 -2
BITMAP
020000
1E0000
2FAA90
2F4010
0A0000
0D0040
2C0500
380A10
740A00
B40000
F44000
F40A00
F41F40
F41F40
FFDFFD
BE0BE4
ENDCHAR
STARTCHAR Abreve.v
ENCODING 57745
SWIDTH 1000 0
DWIDTH 16 0
BBX 12 17 2 -2
BITMAP
010604
1E0500
2F0504
2FE590
1F4010
060000
0D0040
2C0500
380A10
740A00
B40000
F44000
F40A00
F41F40
F41F40
FFDFFD
BE0BE4
ENDCHAR
STARTCHAR Aogonek.v
ENCODING 57746
SWIDTH 1000 0
DWIDTH 16 0
BBX 12 17 2 -5
BITMAP
005550
020000
0E1044
1D0000
280A10
340F00
B40000
F44010
F40000
F41F40
F41F50
FA9F05
FF4F11
141F00
001FE9
000FF4
000140
ENDCHAR
STARTCHAR Ccedilla.v
ENCODING 57747
SWIDTH 1000 0
DWIDTH 16 0
BBX 12 16 2 -4
BITMAP
005555
040000
244000
B40555
F40FF8
F40550
F40000
F40000
F40001
F45100
FD0100
BF9029
2FD0B4
03EA40
03F800
015000
ENDCHAR
STARTCHAR Cacute.v
ENCODING 57748
SWIDTH 1000 0
DWIDTH 16 0
BBX 12 17 2 -2
BITMAP
000004
020000
0B0004
1F6AE0
1E4001
181000
344000
B40AA9
F41FF4
F40000
F40000
F40400
F44000
F81000
BE4001
7FFFFD
1BFFE0
ENDCHAR
STARTCHAR Ccircumflex.v
ENCODING 57749
SWIDTH 1000 0
DWIDTH 16 0
BBX 12 17 2 -2
BITMAP
000040
020444
0B0000
1F6FE4
1E4001
181000
344000
B40AA9
F41FF4
F40000
F40000
F40400
F44000
F81000
BE4001
7FFFFD
1BFFE0
ENDCHAR
STARTCHAR Cdotaccent.v
ENCODING 57750
SWIDTH 1000 0
DWIDTH 16 0
BBX 12 17 2 -2
BITMAP
001000
00D000
02D000
03EA40
024001
041000
344000
B40AA9
F41FF4
F40000
F40000
F40400
F44000
F81000
BE4001
7FFFFD
1BFFE0
ENDCHAR
STARTCHAR Ccaron.v
ENCODING 57751
SWIDTH 1000 0
DWIDTH 16 0
BBX 12 17 2 -2
BITMAP
021544
0F0000
1F4004
1FF990
0A4001
041000
344000
B40AA9
F41FF4
F40000
F40000
F40400
F44000
F81000
BE4001
7FFFFD
1BFFE0
ENDCHAR
STARTCHAR Dcaron.v
ENCODING 57752
SWIDTH 1000 0
DWIDTH 16 0
BBX 12 17 2 -2
BITMAP
021544
1E0000
2F4010
2FF590
140004
744041
F40011
F40A00
F40F40
F40B40
F40B40
F40B40
F40000
F44001
F40004
FFFFE0
BFFE40
ENDCHAR
STARTCHAR Egrave.v
ENCODING 57753
SWIDTH 1000 0
DWIDTH 16 0
BBX 12 17 2 -2
BITMAP
010000
0A0004
2E0000
2FFA94
240001
744000
F40001
F40FFD
F40004
F44000
F40554
F41FE0
F40001
F44000
F40001
FFFFFC
BFFFE0
ENDCHAR
STARTCHAR Eacute.v
ENCODING 57754
SWIDTH 1000 0
DWIDTH 16 0
BBX 12 16 2 -2
BITMAP
020000
1E0004
2F6AE0
240001
744000
F40001
F40FFD
F40004
F44000
F40554
F41FE0
F40001
F44000
F40001
FFFFFC
BFFFE0
ENDCHAR
STARTCHAR Ecircumflex.v
ENCODING 57755
SWIDTH 1000 0
DWIDTH 16 0
BBX 12 17 2 -2
BITMAP
000050
010504
0E0000
2FAFA4
240001
744000
F40001
F40FFD
F40004
F44000
F40554
F41FE0
F40001
F44000
F40001
FFFFFC
BFFFE0
ENDCHAR
STARTCHAR Edieresis.v
ENCODING 57756
SWIDTH 1000 0
DWIDTH 16 0
BBX 12 17 2 -2
BITMAP
010100
090500
2D0500
3EAAA4
340001
744000
F40001
F40FFD
F40004
F44000
F40554
F41FE0
F40001
F44000
F40001
FFFFFC
BFFFE0
ENDCHAR
STARTCHAR Emacron.v
ENCODING 57757
SWIDTH 1000 0
DWIDTH 16 0
BBX 12 16 2 -2
BITMAP
060000
1E0000
2FAAA4
240001
744000
F40001
F40FFD
F40004
F44000
F40554
F41FE0
F40001
F44000
F40001
FFFFFC
BFFFE0
ENDCHAR
STARTCHAR Ebreve.v
ENCODING 57758
SWIDTH 1000 0
DWIDTH 16 0
BBX 12 17 2 -2
BITMAP
010604
1E0500
2F0404
2FE590
140001
744000
F40001
F40FFD
F40004
F44000
F40554
F41FE0
F40001
F44000
F40001
FFFFFC
BFFFE0
ENDCHAR
STARTCHAR Edotaccent.v
ENCODING 57759
SWIDTH 1000 0
DWIDTH 16 0
BBX 12 17 2 -2
BITMAP
001040
01D000
03D000
03EA40
140001
744000
F40001
F40FFD
F40004
F44000
F40554
F41FE0
F40001
F44000
F40001
FFFFFC
BFFFE0
ENDCHAR
STARTCHAR Eogonek.v
ENCODING 57760
SWIDTH 1000 0
DWIDTH 16 0
BBX 12 17 2 -5
BITMAP
055554
240000
F44000
F40AA9
F40AA4
F44000
F40000
F40AA0
F40555
F44010
F40010
FAAA05
FFFE11
556F00
001FE9
001FF4
000140
ENDCHAR
STARTCHAR Ecaron.v
ENCODING 57761
SWIDTH 1000 0
DWIDTH 16 0
BBX 12 17 2 -2
BITMAP
021544
1E0000
2F4010
2FF590
140001
744000
F40001
F40FFD
F40004
F44000
F40554
F41FE0
F40001
F44000
F40001
FFFFFC
BFFFE0
ENDCHAR
STARTCHAR Gcircumflex.v
ENCODING 57762
SWIDTH 1000 0
DWIDTH 16 0
BBX 12 17 2 -2
BITMAP
000050
010504
0E0000
2FAFA4
2E4004
181000
344000
B40AA4
F01FD0
F00141
F00740
F00F40
F44000
F80010
BE4001
7FFFFD
1BFFE0
ENDCHAR
STARTCHAR Gbreve.v
ENCODING 57763
SWIDTH 1000 0
DWIDTH 16 0
BBX 12 17 2 -2
BITMAP
010604
1E0500
2F0404
2FE590
1E4004
041000
344000
B40AA4
F01FD0
F00141
F00740
F00F40
F44000
F80010
BE4001
7FFFFD
1BFFE0
ENDCHAR
STARTCHAR Gdotaccent.v
ENCODING 57764
SWIDTH 1000 0
DWIDTH 16 0
BBX 12 17 2 -2
BITMAP
001040
01D000
03D000
03EA40
024004
041000
344000
B40AA4
F01FD0
F00141
F00740
F00F40
F44000
F80010
BE4001
7FFFFD
1BFFE0
ENDCHAR
STARTCHAR Gcommaaccent.v
ENCODING 57765
SWIDTH 1000 0
DWIDTH 16 0
BBX 12 19 2 -7
BITMAP
001554
040000
245000
B40554
F01FE0
F01580
F00240
F00F40
F40500
F44010
FD0000
7FAAA9
2FD074
02D110
03E440
03E540
02E500
02FC00
019000
ENDCHAR
STARTCHAR Hcircumflex.v
ENCODING 57766
SWIDTH 1000 0
DWIDTH 16 0
BBX 12 17 2 -2
BITMAP
000050
010504
0E0000
2FAFA4
241F41
740B40
F40F40
F40F40
F40000
F44010
F40000
F40A00
F40F40
F40F40
F41F41
FFDFFD
BE4BE0
ENDCHAR
STARTCHAR Igrave.v
ENCODING 57767
SWIDTH 1000 0
DWIDTH 16 0
BBX 12 17 2 -2
BITMAP
010000
0A0004
2E0000
2FFA94
180001
740500
B40000
FE8029
BFC034
07C000
03C000
07C010
140000
740500
F40001
FFFFFD
BFFFE0
ENDCHAR
STARTCHAR Iacute.v
ENCODING 57768
SWIDTH 1000 0
DWIDTH 16 0
BBX 12 16 2 -2
BITMAP
020000
1E0004
2F6AE0
280001
740500
B40000
FE8029
BFC034
07C000
03C000
07C010
140000
740500
F40001
FFFFFD
BFFFE0
ENDCHAR
STARTCHAR Icircumflex.v
ENCODING 57769
SWIDTH 1000 0
DWIDTH 16 0
BBX 12 17 2 -2
BITMAP
000050
010504
0E0000
2FAFA4
280001
740500
B40000
FE8029
BFC034
07C000
03C000
07C010
140000
740500
F40001
FFFFFD
BFFFE0
ENDCHAR
STARTCHAR Idieresis.v
ENCODING 57770
SWIDTH 1000 0
DWIDTH 16 0
BBX 12 17 2 -2
BITMAP
010100
090500
2D0500
3EAAA4
380001
740500
B40000
FE8029
BFC034
07C000
03C000
07C010
140000
740500
F40001
FFFFFD
BFFFE0
ENDCHAR
STARTCHAR Itilde.v
ENCODING 57771
SWIDTH 1000 0
DWIDTH 16 0
BBX 12 17 2 -2
BITMAP
004110
020000
1E0000
2FAA50
280001
740500
B40000
FE8029
BFC034
07C000
03C000
07C010
140000
740500
F40001
FFFFFD
BFFFE0
ENDCHAR
STARTCHAR Imacron.v
ENCODING 57772
SWIDTH 1000 0
DWIDTH 16 0
BBX 12 16 2 -2
BITMAP
060000
1E0000
2FAA94
280001
740500
B40000
FE8029
BFC034
07C000
03C000
07C010
140000
740500
F40001
FFFFFD
BFFFE0
ENDCHAR
STARTCHAR Ibreve.v
ENCODING 57773
SWIDTH 1000 0
DWIDTH 16 0
BBX 12 17 2 -2
BITMAP
010604
1E0500
2F0404
2FE590
180001
740500
B40000
FE8029
BFC034
07C000
03C000
07C010
140000
740500
F40001
FFFFFD
BFFFE0
ENDCHAR
STARTCHAR Iogonek.v
ENCODING 57774
SWIDTH 1000 0
DWIDTH 16 0
BBX 12 17 2 -5
BITMAP
055555
240000
B40100
F94015
FFC038
5BC010
03C000
03C000
054011
340510
B40010
FEAA05
BFFE11
156F00
001FE9
001FF4
000140
ENDCHAR
STARTCHAR Idotaccent.v
ENCODING 57775
SWIDTH 1000 0
DWIDTH 16 0
BBX 12 17 2 -2
BITMAP
001040
01D000
03D000
03EA40
040001
740500
B40000
FE8029
BFC034
07C000
03C000
07C010
140000
740500
F40001
FFFFFD
BFFFE0
ENDCHAR
STARTCHAR Jcircumflex.v
ENCODING 57776
SWIDTH 1000 0
DWIDTH 16 0
BBX 12 17 2 -2
BITMAP
000010
005111
02C000
03EBF9
03FB41
014740
000F40
000F40
015F40
241F40
B41F40
F41F00
F44010
F80001
BD0004
7FFAE0
1BFF40
ENDCHAR
STARTCHAR Kcommaaccent.v
ENCODING 57777
SWIDTH 1000 0
DWIDTH 16 0
BBX 12 19 2 -7
BITMAP
055055
240601
F40D00
F40840
F40004
F44101
F44010
F40A00
F40F40
F40F40
F40F40
FA9FA9
FF9074
56D110
03E440
03E540
02E500
02FC00
019000
ENDCHAR
STARTCHAR Lacute.v
ENCODING 57778
SWIDTH 1000 0
DWIDTH 16 0
BBX 12 17 2 -2
BITMAP
000040
140000
B40040
F9AF40
F41800
B40000
F40000
F40000
F40000
F40141
F40740
F40F40
F40000
F44000
F40001
FFFFFD
BFFFE0
ENDCHAR
STARTCHAR Lcommaaccent.v
ENCODING 57779
SWIDTH 1000 0
DWIDTH 16 0
BBX 12 19 2 -7
BITMAP
055000
240000
F40000
F40000
F40000
F40041
F40340
F40B40
F40500
F44000
F40000
FAAAA9
FFD074
56D110
03E440
03E540
02E500
02FC00
019000
ENDCHAR
STARTCHAR Lcaron.v
ENCODING 57780
SWIDTH 1000 0
DWIDTH 16 0
BBX 12 14 2 -2
BITMAP
055054
240180
F40784
F40B40
F40B55
F40FE8
F40B40
F40B40
F40F40
F40000
F44000
F40001
FFFFFD
BFFFE0
ENDCHAR
STARTCHAR Ntilde.v
ENCODING 57781
SWIDTH 1000 0
DWIDTH 16 0
BBX 12 17 2 -2
BITMAP
004110
020000
1E0000
2FAA50
242F41
740B40
F44240
F40040
F40400
F40100
F41440
F41D10
F41F00
F41F40
F41F41
FFDFFD
BE0BE0
ENDCHAR
STARTCHAR Nacute.v
ENCODING 57782
SWIDTH 1000 0
DWIDTH 16 0
BBX 12 16 2 -2
BITMAP
020000
1E0004
2F6AE0
242F41
740740
F44240
F40040
F40400
F40100
F41440
F41D10
F41F00
F41F40
F41F41
FFDFFD
BE0BE0
ENDCHAR
STARTCHAR Ncommaaccent.v
ENCODING 57783
SWIDTH 1000 0
DWIDTH 16 0
BBX 12 19 2 -7
BITMAP
050055
240640
F44740
F41140
F40400
F40100
F40000
F41C00
F41E00
F41F40
F41F40
FA9FA9
FF9074
56D110
03E440
03E540
02E500
02FC00
019000
ENDCHAR
STARTCHAR Ncaron.v
ENCODING 57784
SWIDTH 1000 0
DWIDTH 16 0
BBX 12 17 2 -2
BITMAP
021544
1E0000
2F4010
2FF590
142F41
740740
F44240
F40040
F40400
F40100
F41440
F41D10
F41F00
F41F40
F41F41
FFDFFD
BE0BE0
ENDCHAR
STARTCHAR Ograve.v
ENCODING 57785
SWIDTH 1000 0
DWIDTH 16 0
BBX 12 17 2 -2
BITMAP
010000
0A0004
2E0000
2FFA94
1E4004
040001
744011
B40F00
F41F40
F40B40
F40B40
F40B40
F44000
F40001
FD0004
7FFAE0
1BFF40
ENDCHAR
STARTCHAR Oacute.v
ENCODING 57786
SWIDTH 1000 0
DWIDTH 16 0
BBX 12 16 2 -2
BITMAP
020000
1E0004
2F6AE0
2E4004
180000
744011
B40F00
F41F40
F40B40
F40B40
F40B40
F44000
F40001
FD0004
7FFAE0
1BFF40
ENDCHAR
STARTCHAR Ocircumflex.v
ENCODING 57787
SWIDTH 1000 0
DWIDTH 16 0
BBX 12 17 2 -2
BITMAP
000050
010504
0E0000
2FAFA4
2E4004
180001
744011
B40F00
F41F40
F40B40
F40B40
F40B40
F44000
F40001
FD0004
7FFAE0
1BFF40
ENDCHAR
STARTCHAR Otilde.v
ENCODING 57788
SWIDTH 1000 0
DWIDTH 16 0
BBX 12 17 2 -2
BITMAP
004110
020000
1E0000
2FA950
2E4004
180001
744011
B40F00
F41F40
F40B40
F40B40
F40B40
F44000
F40001
FD0004
7FFAE0
1BFF40
ENDCHAR
STARTCHAR Odieresis.v
ENCODING 57789
SWIDTH 1000 0
DWIDTH 16 0
BBX 12 17 2 -2
BITMAP
010100
090500
2D0500
3E9A64
3E4004
180001
744011
B40F00
F41F40
F40B40
F40B40
F40B40
F44000
F40001
FD0004
7FFAE0
1BFF40
ENDCHAR
STARTCHAR Omacron.v
ENCODING 57790
SWIDTH 1000 0
DWIDTH 16 0
BBX 12 16 2 -2
BITMAP
060000
1E0000
2F9550
2E4004
180001
744011
B40F00
F41F40
F40B40
F40B40
F40B40
F44000
F40001
FD0004
7FFAE0
1BFF40
ENDCHAR
STARTCHAR Obreve.v
ENCODING 57791
SWIDTH 1000 0
DWIDTH 16 0
BBX 12 17 2 -2
BITMAP
010604
1E0500
2F0404
2FE590
1E4004
040001
744011
B40F00
F41F40
F40B40
F40B40
F40B40
F44000
F40001
FD0004
7FFAE0
1BFF40
ENDCHAR
STARTCHAR Ohungarumlaut.v
ENCODING 57792
SWIDTH 1000 0
DWIDTH 16 0
BBX 12 18 2 -2
BITMAP
004141
074340
0F1710
0E0B00
1F9A64
2E4004
180001
744011
B40F00
F41F40
F40B40
F40B40
F40B40
F44000
F40001
FD0004
7FFAE0
1BFF40
ENDCHAR
STARTCHAR Racute.v
ENCODING 57793
SWIDTH 1000 0
DWIDTH 16 0
BBX 12 16 2 -2
BITMAP
050000
1D0000
2E6BD0
240000
744000
F40000
F40D00
F40D00
F40000
F44010
F40500
F40F40
F40F40
F41F40
FFDBFD
BE0BF4
ENDCHAR
STARTCHAR Rcommaaccent.v
ENCODING 57794
SWIDTH 1000 0
DWIDTH 16 0
BBX 12 19 2 -7
BITMAP
055550
240004
F44040
F40900
F40E00
F40414
F44041
F40000
F40F40
F40F40
F40F40
FA9BE9
FF9078
56D110
03E440
03E540
02E500
02FC00
019000
ENDCHAR
STARTCHAR Rcaron.v
ENCODING 57795
SWIDTH 1000 0
DWIDTH 16 0
BBX 12 17 2 -2
BITMAP
021544
1E0000
2F4010
2FF590
140000
744000
F40000
F40D00
F40D00
F40000
F44010
F40500
F40F40
F40F40
F41F40
FFDBFD
BE0BF4
ENDCHAR
STARTCHAR Sacute.v
ENCODING 57796
SWIDTH 1000 0
DWIDTH 16 0
BBX 12 16 2 -2
BITMAP
020000
1E0004
2F6AE0
2E4001
180000
344001
B40FF8
F44004
F41401
FD0000
BFFE00
240000
740001
F40004
FFFFE0
BFFE40
ENDCHAR
STARTCHAR Scircumflex.v
ENCODING 57797
SWIDTH 1000 0
DWIDTH 16 0
BBX 12 17 2 -2
BITMAP
000050
010504
0E0000
2FAFA4
2E4001
180000
344001
B40FF8
F44004
F41401
FD0000
BFFE00
240000
740001
F40004
FFFFE0
BFFE40
ENDCHAR
STARTCHAR Scedilla.v
ENCODING 57798
SWIDTH 1000 0
DWIDTH 16 0
BBX 12 16 2 -4
BITMAP
001554
040000
244000
B40AA8
F40564
F45401
F80011
FFA900
7AA900
240110
F40000
FA80A4
FF8080
5BE900
0BF400
014000
ENDCHAR
STARTCHAR Scaron.v
ENCODING 57799
SWIDTH 1000 0
DWIDTH 16 0
BBX 12 17 2 -2
BITMAP
021544
1E0000
2F4010
2FF590
1A4001
040000
344001
B40FF8
F44004
F41401
FD0000
BFFE00
240000
740001
F40004
FFFFE0
BFFE40
ENDCHAR
STARTCHAR Scommaaccent.v
ENCODING 57800
SWIDTH 1000 0
DWIDTH 16 0
BBX 12 19 2 -7
BITMAP
001554
040000
244000
B40AA8
F40564
F45401
F80011
FFA900
7AA900
240010
F40000
FAAAA4
FFD050
56D100
03E440
03E540
02E500
02FC00
019000
ENDCHAR
STARTCHAR Tcommaaccent.v
ENCODING 57801
SWIDTH 1000 0
DWIDTH 16 0
BBX 12 17 2 -5
BITMAP
055555
240000
F40100
F94015
FFC038
5BC010
03C000
03C000
03C000
03C000
03E540
03D000
03D040
03E940
03D540
02FD00
02E400
ENDCHAR
STARTCHAR Tcaron.v
ENCODING 57802
SWIDTH 1000 0
DWIDTH 16 0
BBX 12 17 2 -2
BITMAP
021544
1E0000
2F4010
2FF590
140001
740500
F40000
FE8029
FFC034
07C000
03C000
03C000
03C000
03C000
03D000
03FF40
03FD00
ENDCHAR
STARTCHAR Ugrave.v
ENCODING 57803
SWIDTH 1000 0
DWIDTH 16 0
BBX 12 17 2 -2
BITMAP
010000
0A0004
2E0000
2FFA94
241F41
740B40
F40F40
F40F40
F40F40
F40F40
F40F40
F40F00
F44010
F80001
BD0004
7FFAE0
1BFF40
ENDCHAR
STARTCHAR Uacute.v
ENCODING 57804
SWIDTH 1000 0
DWIDTH 16 0
BBX 12 17 2 -2
BITMAP
000004
020000
0B0004
1F6AE0
141F41
740740
F40F40
F40F40
F40F40
F40F40
F40F40
F40F00
F44010
F80001
BD0004
7FFAE0
1BFF40
ENDCHAR
STARTCHAR Ucircumflex.v
ENCODING 57805
SWIDTH 1000 0
DWIDTH 16 0
BBX 12 17 2 -2
BITMAP
000050
010504
0E0000
2FAFA4
241F41
740B40
F40F40
F40F40
F40F40
F40F40
F40F40
F40F00
F44010
F80001
BD0004
7FFAE0
1BFF40
ENDCHAR
STARTCHAR Udieresis.v
ENCODING 57806
SWIDTH 1000 0
DWIDTH 16 0
BBX 12 17 2 -2
BITMAP
010100
090500
2D0500
3EAAA4
341F41
740B40
F40F40
F40F40
F40F40
F40F40
F40F40
F40F00
F44010
F80001
BD0004
7FFAE0
1BFF40
ENDCHAR
STARTCHAR Utilde.v
ENCODING 57807
SWIDTH 1000 0
DWIDTH 16 0
BBX 12 17 2 -2
BITMAP
004110
020000
1E0000
2FAA50
241F41
740F40
F40F40
F40F40
F40F40
F40F40
F40F40
F40F00
F44010
F80001
BD0004
7FFAE0
1BFF40
ENDCHAR
STARTCHAR Umacron.v
ENCODING 57808
SWIDTH 1000 0
DWIDTH 16 0
BBX 12 16 2 -2
BITMAP
060000
1E0000
2FAA94
241F41
740B40
F40F40
F40F40
F40F40
F40F40
F40F40
F40F00
F44010
F80001
BD0004
7FFAE0
1BFF40
ENDCHAR
STARTCHAR Ubreve.v
ENCODING 57809
SWIDTH 1000 0
DWIDTH 16 0
BBX 12 17 2 -2
BITMAP
010604
1E0500
2F0404
2FE590
141F41
740B40
F40F40
F40F40
F40F40
F40F40
F40F40
F40F00
F44010
F80001
BD0004
7FFAE0
1BFF40
ENDCHAR
STARTCHAR Uring.v
ENCODING 57810
SWIDTH 1000 0
DWIDTH 16 0
BBX 12 20 2 -2
BITMAP
001540
010004
0A0500
1E0F00
2E0500
2F0004
2FE590
141F41
740B40
F40F40
F40F40
F40F40
F40F40
F40F40
F40F00
F44010
F80001
BD0004
7FFAE0
1BFF40
ENDCHAR
STARTCHAR Uhungarumlaut.v
ENCODING 57811
SWIDTH 1000 0
DWIDTH 16 0
BBX 12 18 2 -2
BITMAP
004141
074340
0B1710
0E0700
1FAFA4
241F41
740B40
F40F40
F40F40
F40F40
F40F40
F40F40
F40F00
F44010
F80001
BD0004
7FFAE0
1BFF40
ENDCHAR
STARTCHAR Uogonek.v
ENCODING 57812
SWIDTH 1000 0
DWIDTH 16 0
BBX 12 17 2 -5
BITMAP
055055
240640
F40F40
F40F40
F40F40
F40F40
F40F40
F40F40
F40500
F40000
FC0400
BF9064
2FD410
07D000
03FA80
02FF00
005400
ENDCHAR
STARTCHAR Wcircumflex.v
ENCODING 57813
SWIDTH 1000 0
DWIDTH 16 0
BBX 14 17 1 -2
BITMAP
00001400
00414100
03800000
0BEBE900
080BF400
2C00F010
7C41F010
7C456000
7C441000
7C400000
7C410000
7C001000
7D059000
3E12C440
3F03D040
2FFBFE00
1FD2F400
ENDCHAR
STARTCHAR Wgrave.v
ENCODING 57814
SWIDTH 1000 0
DWIDTH 16 0
BBX 14 17 1 -2
BITMAP
00400000
02800100
0B800000
0BFEA500
080BF400
2C05F010
7C41F010
7C456000
7C441000
7C400000
7C410000
7C001000
7D059000
3E12C440
3F03D040
2FFBFE00
1FD2F400
ENDCHAR
STARTCHAR Wacute.v
ENCODING 57815
SWIDTH 1000 0
DWIDTH 16 0
BBX 14 17 1 -2
BITMAP
00000100
00800000
02C00100
07DAB800
080BF400
2C04B010
7C41F010
7C456000
7C441000
7C400000
7C410000
7C001000
7D059000
3E12C440
3F03D040
2FFBFE00
1FD2F400
ENDCHAR
STARTCHAR Wdieresis.v
ENCODING 57816
SWIDTH 1000 0
DWIDTH 16 0
BBX 14 17 1 -2
BITMAP
00414100
02418000
0B418000
0BAAE900
080BF400
2C05F010
7C41F010
7C456000
7C441000
7C400000
7C410000
7C001000
7D059000
3E12C440
3F03D040
2FFBFE00
1FD2F400
ENDCHAR
STARTCHAR Yacute.v
ENCODING 57817
SWIDTH 1000 0
DWIDTH 16 0
BBX 12 17 2 -2
BITMAP
000004
020000
0B0004
1F6AE0
141F41
740740
F40F40
F40F00
F44611
FC0000
BE0504
3F4010
1FC000
0BD000
03D000
03FF40
02F900
ENDCHAR
STARTCHAR Ycircumflex.v
ENCODING 57818
SWIDTH 1000 0
DWIDTH 16 0
BBX 12 17 2 -2
BITMAP
000050
010504
0E0000
2FAFA4
241F41
740740
F40F40
F40F00
F44611
FC0000
BE0504
3F4010
1FC000
0BD000
03D000
03FF40
02F900
ENDCHAR
STARTCHAR Ydieresis.v
ENCODING 57819
SWIDTH 1000 0
DWIDTH 16 0
BBX 12 17 2 -2
BITMAP
010104
090600
2D0600
3EAAA4
341F41
740B40
F40F40
F40F00
F44611
FC0000
BE0504
3F4010
1FC000
0BD000
03D000
03FF40
02F900
ENDCHAR
STARTCHAR Ygrave.v
ENCODING 57820
SWIDTH 1000 0
DWIDTH 16 0
BBX 12 17 2 -2
BITMAP
010000
0A0004
2E0000
2FFA94
241F41
740B40
F40F40
F40F00
F44611
FC0000
BE0504
3F4010
1FC000
0BD000
03D000
03FF40
02F900
ENDCHAR
STARTCHAR Zacute.v
ENCODING 57821
SWIDTH 1000 0
DWIDTH 16 0
BBX 12 17 2 -2
BITMAP
000004
020000
0B0004
1F6AE0
180001
740000
F40000
FEA811
BFE000
004000
010040
040140
740000
F40000
F40001
FFFFFD
BFFFE0
ENDCHAR
STARTCHAR Zdotaccent.v
ENCODING 57822
SWIDTH 1000 0
DWIDTH 16 0
BBX 12 17 2 -2
BITMAP
001040
01D000
03D000
03EA40
040001
740000
F40000
FEA811
BFE000
004000
010040
040140
740000
F40000
F40001
FFFFFD
BFFFE0
ENDCHAR
STARTCHAR Zcaron.v
ENCODING 57823
SWIDTH 1000 0
DWIDTH 16 0
BBX 12 17 2 -2
BITMAP
021544
0E0000
1F4004
1FF990
180001
740000
F40000
FEA811
BFE000
004000
010040
040140
740000
F40000
F40001
FFFFFD
BFFFE0
ENDCHAR
STARTCHAR AE.v
ENCODING 57824
SWIDTH 1000 0
DWIDTH 16 0
BBX 13 14 1 -2
BITMAP
00155540
01800000
07401000
0A110240
0D020240
2C4A0000
38041000
78555140
78000740
78090000
780E1000
780E0000
7FFFFF40
7F5FFD00
ENDCHAR
STARTCHAR Eth.v
ENCODING 57825
SWIDTH 1000 0
DWIDTH 16 0
BBX 13 14 1 -2
BITMAP
01555000
09000040
3D100440
3D014000
3D03D000
3400D000
B450D000
F801D000
FD03C000
7D000400
3D100040
3D000500
3FFFF800
2FFF9000
ENDCHAR
STARTCHAR Oslash.v
ENCODING 57826
SWIDTH 1000 0
DWIDTH 16 0
BBX 12 16 2 -3
BITMAP
000040
004100
040000
244050
B41800
F41800
F41500
F41040
F40580
F40340
F45100
F81001
FC0004
BC0AE0
3FFF40
7F4000
ENDCHAR
STARTCHAR Thorn.v
ENCODING 57827
SWIDTH 1000 0
DWIDTH 16 0
BBX 12 14 2 -2
BITMAP
055000
240000
F40004
F45501
F40001
F40F40
F40F40
F40500
F44011
F40001
F40AA4
F41F80
FFD400
BE4000
ENDCHAR
STARTCHAR Dcroat.v
ENCODING 57828
SWIDTH 1000 0
DWIDTH 16 0
BBX 13 14 1 -2
BITMAP
01555000
09000040
3D100440
3D014000
3D03D000
3400D000
B450D000
F801D000
FD03C000
7D000400
3D100040
3D000500
3FFFF800
2FFF9000
ENDCHAR
STARTCHAR Hbar.v
ENCODING 57829
SWIDTH 1000 0
DWIDTH 16 0
BBX 14 14 1 -2
BITMAP
01541540
09009000
38018000
34500500
B4000000
BD029010
BD014000
3D000000
3D100000
3D014000
3D07D000
3D07D040
3FF7FF40
2F82F800
ENDCHAR
STARTCHAR IJ.v
ENCODING 57830
SWIDTH 1000 0
DWIDTH 16 0
BBX 12 14 2 -2
BITMAP
055055
240240
F40F40
F40F40
F40F40
F40F40
F95F40
FF8F40
6A5E00
140011
B40041
F40014
FFFFE0
BFFE40
ENDCHAR
STARTCHAR Ldot.v
ENCODING 57831
SWIDTH 1000 0
DWIDTH 16 0
BBX 12 18 2 -6
BITMAP
055000
240000
F40000
F40000
F40000
F40041
F40340
F40B40
F40500
F44000
F40000
FAAAA9
FFE574
55D010
02D000
02E540
02FE00
015400
ENDCHAR
STARTCHAR Lslash.v
ENCODING 57832
SWIDTH 1000 0
DWIDTH 16 0
BBX 13 14 1 -2
BITMAP
01540000
09000000
3D000000
3D010000
3C000000
38100500
78019000
BC03D000
7D03D000
3D000000
3D100000
3D000000
3FFFFF40
2FFFF800
ENDCHAR
STARTCHAR Eng.v
ENCODING 57833
SWIDTH 1000 0
DWIDTH 16 0
BBX 12 16 2 -4
BITMAP
004010
000000
144011
740500
B40F00
F41F40
F41F40
F41F40
F41F40
F41F00
F41900
F41811
FFF800
BEBEA4
00BF80
001400
ENDCHAR
STARTCHAR OE.v
ENCODING 57834
SWIDTH 1000 0
DWIDTH 16 0
BBX 14 14 1 -2
BITMAP
00055540
01000010
08101010
2C451240
3C0E1240
7C0E1000
7C0E1000
7C0E1140
7C0A1340
7C401010
7D001010
3F400010
2FFFFF80
06FFFD00
ENDCHAR
STARTCHAR Tbar.v
ENCODING 57835
SWIDTH 1000 0
DWIDTH 16 0
BBX 12 14 2 -2
BITMAP
155555
740000
F40500
F94015
FFD038
5A8010
090000
2D1540
3E4010
3FD020
1BD000
03D000
03FF40
03FD00
ENDCHAR
STARTCHAR Germandbls.v
ENCODING 57836
SWIDTH 1000 0
DWIDTH 16 0
BBX 12 14 2 -2
BITMAP
055550
240004
F44000
F40800
F40D04
F40C41
F40C10
F40E44
F40F44
F40800
F40811
F41804
FFFFF0
BEBF80
ENDCHAR
STARTCHAR A.salt_v
ENCODING 57837
SWIDTH 1000 0
DWIDTH 16 0
BBX 12 13 2 -2
BITMAP
040001
244010
B40A00
F41F40
F41F40
F40000
F44010
F40000
F41F40
F41F40
F41F41
FFDFFD
BE0BE0
ENDCHAR
STARTCHAR Agrave.salt_v
ENCODING 57838
SWIDTH 1000 0
DWIDTH 16 0
BBX 12 17 2 -2
BITMAP
010000
0A0004
2E0000
2FFA94
1E4004
040040
744011
B41F00
F41F40
F40500
F44010
F40000
F41A40
F41F40
F41F41
FFDFFD
BE0BE0
ENDCHAR
STARTCHAR Aacute.salt_v
ENCODING 57839
SWIDTH 1000 0
DWIDTH 16 0
BBX 12 16 2 -2
BITMAP
020000
1E0004
2F6AE0
2E4004
180040
744011
B41F00
F41F40
F40500
F44010
F40000
F41A40
F41F40
F41F41
FFDFFD
BE0BE0
ENDCHAR
STARTCHAR Acircumflex.salt_v
ENCODING 57840
SWIDTH 1000 0
DWIDTH 16 0
BBX 12 17 2 -2
BITMAP
000050
010504
0E0000
2FAFA4
2E4004
180041
744011
B41F00
F41F40
F40500
F44010
F40000
F41A40
F41F40
F41F41
FFDFFD
BE0BE0
ENDCHAR
STARTCHAR Atilde.salt_v
ENCODING 57841
SWIDTH 1000 0
DWIDTH 16 0
BBX 12 17 2 -2
BITMAP
004110
020000
1E0000
2FA950
2E4004
180040
744011
B41F00
F41F40
F40500
F44010
F40000
F41A40
F41F40
F41F41
FFDFFD
BE0BE0
ENDCHAR
STARTCHAR Adieresis.salt_v
ENCODING 57842
SWIDTH 1000 0
DWIDTH 16 0
BBX 12 17 2 -2
BITMAP
010100
090500
2D0500
3E9A64
3E4004
180041
744011
B41F00
F41F40
F40500
F44010
F40000
F41A40
F41F40
F41F41
FFDFFD
BE0BE0
ENDCHAR
STARTCHAR Aring.salt_v
ENCODING 57843
SWIDTH 1000 0
DWIDTH 16 0
BBX 12 17 2 -2
BITMAP
004050
021144
1E0A00
2E0F00
2D1544
280041
744010
B40F00
F41F40
F40500
F44010
F40000
F40A00
F41F40
F41F41
FFDFFD
BE0BE0
ENDCHAR
STARTCHAR Amacron.salt_v
ENCODING 57844
SWIDTH 1000 0
DWIDTH 16 0
BBX 12 16 2 -2
BITMAP
060000
1E0000
2F9550
2E4004
180041
744011
B41F00
F41F40
F40500
F44010
F40000
F41A40
F41F40
F41F41
FFDFFD
BE0BE0
ENDCHAR
STARTCHAR Abreve.salt_v
ENCODING 57845
SWIDTH 1000 0
DWIDTH 16 0
BBX 12 17 2 -2
BITMAP
010604
1E0500
2F0404
2FE590
1E4004
040041
744011
B41F00
F41F40
F40500
F44010
F40000
F41A40
F41F40
F41F41
FFDFFD
BE0BE0
ENDCHAR
STARTCHAR Aogonek.salt_v
ENCODING 57846
SWIDTH 1000 0
DWIDTH 16 0
BBX 12 16 2 -5
BITMAP
010004
040041
744010
B41F00
F41F40
F40500
F44010
F40000
F41A40
F41F40
F41F40
FFDF05
BE0F10
001F40
001FFD
000BE4
ENDCHAR
STARTCHAR E.salt_v
ENCODING 57847
SWIDTH 1000 0
DWIDTH 16 0
BBX 12 14 2 -2
BITMAP
005555
040000
245000
B406A9
F40AA8
F40000
F44000
F40554
F40FD0
F44001
F81000
BE4001
7FFFFD
1BFFE0
ENDCHAR
STARTCHAR Egrave.salt_v
ENCODING 57848
SWIDTH 1000 0
DWIDTH 16 0
BBX 12 17 2 -2
BITMAP
010000
0A0004
2E0000
2FFA94
1E4001
041000
344001
B40FFD
F40004
F44000
F40554
F40FE0
F44001
F81000
BE4001
7FFFFC
1BFFE0
ENDCHAR
STARTCHAR Eacute.salt_v
ENCODING 57849
SWIDTH 1000 0
DWIDTH 16 0
BBX 12 16 2 -2
BITMAP
020000
1E0004
2F6AE0
2E4001
181000
344001
B40FFD
F40004
F44000
F40554
F40FE0
F44001
F81000
BE4001
7FFFFC
1BFFE0
ENDCHAR
STARTCHAR Ecircumflex.salt_v
ENCODING 57850
SWIDTH 1000 0
DWIDTH 16 0
BBX 12 17 2 -2
BITMAP
000050
010504
0E0000
2FAFA4
2E4001
181000
344001
B40FFD
F40004
F44000
F40554
F40FE0
F44001
F81000
BE4001
7FFFFC
1BFFE0
ENDCHAR
STARTCHAR Edieresis.salt_v
ENCODING 57851
SWIDTH 1000 0
DWIDTH 16 0
BBX 12 17 2 -2
BITMAP
010100
090500
2D0500
3EAAA4
3E4001
181000
344001
B40FFD
F40004
F44000
F40554
F40FE0
F44001
F81000
BE4001
7FFFFD
1BFFE0
ENDCHAR
STARTCHAR Emacron.salt_v
ENCODING 57852
SWIDTH 1000 0
DWIDTH 16 0
BBX 12 16 2 -2
BITMAP
060000
1E0000
2FAA94
2E4001
181000
344001
B40FFD
F40004
F44000
F40554
F40FE0
F44001
F81000
BE4001
7FFFFC
1BFFE0
ENDCHAR
STARTCHAR Ebreve.salt_v
ENCODING 57853
SWIDTH 1000 0
DWIDTH 16 0
BBX 12 17 2 -2
BITMAP
010604
1E0500
2F0404
2FE590
1E4001
081000
344001
B40FFD
F40004
F44000
F40554
F40FE0
F44001
F81000
BE4001
7FFFFC
1BFFE0
ENDCHAR
STARTCHAR Edotaccent.salt_v
ENCODING 57854
SWIDTH 1000 0
DWIDTH 16 0
BBX 12 17 2 -2
BITMAP
001040
01D000
03D000
03EA40
024001
041000
344001
B40FFD
F40004
F44000
F40554
F40FE0
F44001
F81000
BE4001
7FFFFC
1BFFE0
ENDCHAR
STARTCHAR Eogonek.salt_v
ENCODING 57855
SWIDTH 1000 0
DWIDTH 16 0
BBX 12 17 2 -5
BITMAP
005554
040000
244000
B40AA9
F40AA4
F44000
F40000
F41AA0
F40555
F45010
FD0010
7FAA05
2FFE11
016F00
001FE9
001FF4
000140
ENDCHAR
STARTCHAR Ecaron.salt_v
ENCODING 57856
SWIDTH 1000 0
DWIDTH 16 0
BBX 12 17 2 -2
BITMAP
021544
1E0000
2F4010
2FF590
1A4001
041000
344001
B40FFD
F40004
F44000
F40554
F40FE0
F44001
F81000
BE4001
7FFFFC
1BFFE0
ENDCHAR
STARTCHAR I.salt_v
ENCODING 57857
SWIDTH 1000 0
DWIDTH 16 0
BBX 6 14 5 -2
BITMAP
0550
3400
F400
F400
F400
F400
F400
F400
F400
F400
F400
F410
FFD0
BE40
ENDCHAR
STARTCHAR I_I.salt_v
ENCODING 57858
SWIDTH 1000 0
DWIDTH 16 0
BBX 12 14 2 -2
BITMAP
055055
240240
F40F40
F40F40
F40F40
F40F40
F40F40
F40F40
F40F40
F40F40
F40F40
F41F41
FFDFFD
BE4BE0
ENDCHAR
STARTCHAR Igrave.salt_v
ENCODING 57859
SWIDTH 1000 0
DWIDTH 16 0
BBX 10 17 3 -2
BITMAP
040000
280010
B80000
BFEA50
7F4140
074000
0F4000
0F4000
0F4000
0F4000
0F4000
0F4000
0F4000
0F4000
0F4100
0FFD00
0BE400
ENDCHAR
STARTCHAR Iacute.salt_v
ENCODING 57860
SWIDTH 1000 0
DWIDTH 16 0
BBX 10 16 3 -2
BITMAP
080000
780010
BDAB80
BF4100
5B4000
0F4000
0F4000
0F4000
0F4000
0F4000
0F4000
0F4000
0F4000
0F4100
0FFD00
0BE400
ENDCHAR
STARTCHAR Icircumflex.salt_v
ENCODING 57861
SWIDTH 1000 0
DWIDTH 16 0
BBX 10 17 3 -2
BITMAP
000140
041410
380000
BEBE90
BF4140
5B4000
0F4000
0F4000
0F4000
0F4000
0F4000
0F4000
0F4000
0F4000
0F4100
0FFD00
0BE400
ENDCHAR
STARTCHAR Idieresis.salt_v
ENCODING 57862
SWIDTH 1000 0
DWIDTH 16 0
BBX 10 17 3 -2
BITMAP
040400
241400
B41400
FAAA90
FF4140
5B4000
0F4000
0F4000
0F4000
0F4000
0F4000
0F4000
0F4000
0F4000
0F4100
0FFD00
0BE400
ENDCHAR
STARTCHAR Itilde.salt_v
ENCODING 57863
SWIDTH 1000 0
DWIDTH 16 0
BBX 9 17 3 -2
BITMAP
010440
080000
780000
BEA940
BF4100
1B4000
0F4000
0F4000
0F4000
0F4000
0F4000
0F4000
0F4000
0F4000
0F4100
0FFD00
0BE400
ENDCHAR
STARTCHAR Imacron.salt_v
ENCODING 57864
SWIDTH 1000 0
DWIDTH 16 0
BBX 9 16 3 -2
BITMAP
180000
780000
BEAA40
BF4140
1B4000
0F4000
0F4000
0F4000
0F4000
0F4000
0F4000
0F4000
0F4000
0F4100
0FFD00
0BE400
ENDCHAR
STARTCHAR Ibreve.salt_v
ENCODING 57865
SWIDTH 1000 0
DWIDTH 16 0
BBX 10 17 3 -2
BITMAP
041810
781400
BC1010
BF9640
7F4100
0B4000
0F4000
0F4000
0F4000
0F4000
0F4000
0F4000
0F4000
0F4000
0F4100
0FFD00
0BE400
ENDCHAR
STARTCHAR Iogonek.salt_v
ENCODING 57866
SWIDTH 1000 0
DWIDTH 16 0
BBX 7 16 4 -5
BITMAP
0500
1D00
3D00
3D00
3D00
3D00
3D00
3D00
3D00
3D00
3D00
3C48
3C40
7D00
7FF4
2F90
ENDCHAR
STARTCHAR Idotaccent.salt_v
ENCODING 57867
SWIDTH 1000 0
DWIDTH 16 0
BBX 6 17 5 -2
BITMAP
0410
7400
F400
FA90
F410
B400
F400
F400
F400
F400
F400
F400
F400
F400
F410
FFD0
BE40
ENDCHAR
STARTCHAR L.salt_v
ENCODING 57868
SWIDTH 1000 0
DWIDTH 16 0
BBX 12 14 2 -2
BITMAP
055000
240000
F40000
F40000
F40000
F40000
F40000
F40000
F40400
F40000
F44000
F40001
FFFFFD
BFFFE0
ENDCHAR
STARTCHAR Lacute.salt_v
ENCODING 57869
SWIDTH 1000 0
DWIDTH 16 0
BBX 12 17 2 -2
BITMAP
000040
140000
B40040
F9AF40
F41800
B40000
F40000
F40000
F40000
F40000
F40000
F40400
F40000
F44000
F40001
FFFFFD
BFFFE0
ENDCHAR
STARTCHAR Lcommaaccent.salt_v
ENCODING 57870
SWIDTH 1000 0
DWIDTH 16 0
BBX 12 19 2 -7
BITMAP
055000
240000
F40000
F40000
F40000
F40000
F40000
F40000
F40001
F44000
F40000
FAAAA9
FFD074
16D110
03E440
03E540
02E500
02FC00
019000
ENDCHAR
ENDFONT
